<?xml version="1.0" standalone="no"?>
<!DOCTYPE svg PUBLIC "-//W3C//DTD SVG 20010904//EN"
 "http://www.w3.org/TR/2001/REC-SVG-20010904/DTD/svg10.dtd">
<svg version="1.0" xmlns="http://www.w3.org/2000/svg"
 width="831.000000pt" height="831.000000pt" viewBox="0 0 831.000000 831.000000"
 preserveAspectRatio="xMidYMid meet">
<metadata>
Created by potrace 1.11, written by Peter Selinger 2001-2013
</metadata>
<g transform="translate(0.000000,831.000000) scale(0.100000,-0.100000)"
fill="#000000" stroke="none">
<path d="M306 7730 c-53 -117 -70 -195 -70 -335 0 -232 73 -391 270 -593 45
-46 85 -96 89 -109 4 -16 -1 -39 -13 -62 -39 -75 -186 -122 -320 -101 -71 11
-202 67 -240 102 l-22 21 0 -49 c0 -152 101 -344 243 -462 29 -24 129 -94 222
-157 242 -161 336 -264 440 -480 53 -111 79 -191 148 -471 76 -300 103 -440
202 -1024 167 -983 190 -1081 347 -1479 246 -623 674 -1174 1173 -1508 382
-256 789 -418 1240 -493 185 -31 545 -39 705 -16 128 19 337 73 447 117 103
41 285 133 368 187 199 128 343 259 570 517 263 299 410 396 664 440 47 8 214
21 371 29 429 23 588 51 768 136 107 51 201 138 241 225 47 99 105 352 136
590 46 351 16 889 -58 1047 -51 109 -162 186 -281 195 -52 4 -110 -8 -406 -82
-190 -47 -352 -88 -360 -90 -13 -4 -15 14 -11 133 8 332 -81 604 -282 857 -49
63 -77 88 -128 115 -60 33 -70 35 -154 35 -82 0 -97 -3 -157 -33 -138 -68
-151 -121 -93 -382 21 -92 16 -377 -9 -508 -79 -424 -312 -888 -653 -1300
-102 -122 -353 -368 -453 -443 -264 -198 -627 -329 -1019 -370 -143 -15 -475
-6 -589 15 -115 21 -304 72 -382 103 -357 141 -642 356 -885 668 -441 565
-726 1266 -810 1990 -38 333 -4 598 109 830 62 127 117 204 217 304 198 196
460 315 804 366 129 19 497 22 707 5 497 -39 904 -126 1206 -258 127 -56 244
-121 336 -186 90 -65 88 -75 19 134 -106 322 -267 579 -473 755 -356 304 -847
435 -1637 435 -288 0 -545 15 -745 44 -674 98 -1442 381 -1704 628 l-51 48
-37 -80z"/>
<path d="M2963 5389 c-42 -12 -97 -79 -114 -137 -7 -26 -13 -83 -12 -128 4
-263 195 -545 386 -570 148 -19 235 172 178 396 -54 214 -183 387 -324 434
-53 18 -67 18 -114 5z"/>
<path d="M4950 5261 c-125 -41 -308 -168 -460 -321 -198 -198 -321 -391 -322
-502 -1 -92 24 -124 202 -256 170 -127 361 -309 453 -432 31 -41 55 -76 53
-77 -9 -9 -166 46 -246 87 -116 60 -212 138 -286 233 -77 98 -105 113 -164 82
-39 -20 -74 -95 -112 -240 -28 -111 -31 -133 -32 -295 -1 -163 1 -180 23 -239
47 -124 124 -172 289 -179 227 -10 484 60 659 179 23 16 46 29 52 29 15 0 88
-232 106 -340 9 -52 19 -147 23 -210 l7 -115 49 110 c97 219 165 455 204 708
26 172 23 586 -5 767 -61 385 -158 674 -305 907 -59 93 -119 126 -188 104z"/>
</g>
</svg>
