<svg xmlns="http://www.w3.org/2000/svg" viewBox="0 0 62.09 62.09"><title>Asset 17 target</title><g id="Layer_2" data-name="Layer 2"><g id="Layer_1-2" data-name="Layer 1"><path id="_Compound_Path_" data-name="&lt;Compound Path&gt;" d="M57.72,43.25a2.16,2.16,0,0,0,2.52-1.71L62.05,32a2.13,2.13,0,0,0-.33-1.61,2.16,2.16,0,0,0-1.38-.9l-3.67-.7a25,25,0,0,0-1.23-5.91l3.1-2.1a2.16,2.16,0,0,0,.57-3l-5.44-8a2.16,2.16,0,0,0-3-.57l-3.1,2.1a25.42,25.42,0,0,0-5-3.31l.7-3.67a2.15,2.15,0,0,0-1.71-2.52L32,0a2.14,2.14,0,0,0-2.51,1.71l-.7,3.67a25.46,25.46,0,0,0-5.91,1.22l-2.1-3.09a2.11,2.11,0,0,0-1.37-.9A2.16,2.16,0,0,0,17.82,3l-8,5.44a2.16,2.16,0,0,0-.57,3l2.1,3.09a25.79,25.79,0,0,0-3.31,5l-3.67-.7a2.15,2.15,0,0,0-2.52,1.71L0,30.05a2.15,2.15,0,0,0,1.71,2.52l3.67.7a25.38,25.38,0,0,0,1.22,5.9L3.55,41.28a2.15,2.15,0,0,0-.57,3l5.44,8a2.16,2.16,0,0,0,3,.57l3.09-2.1a25.79,25.79,0,0,0,5,3.31l-.7,3.67a2.16,2.16,0,0,0,1.71,2.52l9.5,1.81a2,2,0,0,0,.41,0,2.16,2.16,0,0,0,2.11-1.75l.7-3.67a24.89,24.89,0,0,0,5.9-1.23l2.11,3.1a2.15,2.15,0,0,0,3,.57l8-5.44a2.15,2.15,0,0,0,.57-3l-2.1-3.09a25.79,25.79,0,0,0,3.31-5Zm-6.91-4a21.2,21.2,0,0,1-4.35,6.61,2.16,2.16,0,0,0-.23,2.71l1.84,2.71-4.44,3-1.85-2.71a2.15,2.15,0,0,0-2.6-.78,21.31,21.31,0,0,1-7.74,1.61,2.16,2.16,0,0,0-2.08,1.75l-.61,3.21-5.28-1,.61-3.21a2.14,2.14,0,0,0-1.29-2.39,21.32,21.32,0,0,1-6.61-4.35,2.15,2.15,0,0,0-2.7-.23l-2.71,1.84-3-4.45,2.71-1.84a2.15,2.15,0,0,0,.78-2.6,21.31,21.31,0,0,1-1.61-7.74,2.16,2.16,0,0,0-1.75-2.08l-3.21-.61,1-5.28,3.21.61a2.16,2.16,0,0,0,2.39-1.29,21.14,21.14,0,0,1,4.35-6.61,2.15,2.15,0,0,0,.23-2.7L14,10.77l4.44-3,1.84,2.71a2.16,2.16,0,0,0,2.6.78,21.36,21.36,0,0,1,7.75-1.61,2.16,2.16,0,0,0,2.08-1.75l.61-3.21,5.28,1L38,8.89a2.15,2.15,0,0,0,1.28,2.39,21,21,0,0,1,6.61,4.35,2.16,2.16,0,0,0,2.71.23L51.32,14l3,4.44L51.63,20.3a2.16,2.16,0,0,0-.78,2.6,21.36,21.36,0,0,1,1.61,7.75,2.16,2.16,0,0,0,1.75,2.08l3.21.61-1,5.28L53.2,38A2.14,2.14,0,0,0,50.81,39.29Z"/><path id="_Compound_Path_2" data-name="&lt;Compound Path&gt;" d="M33.94,15.85a15.46,15.46,0,1,0-5.79,30.38h0a15.07,15.07,0,0,0,2.9.28,15.47,15.47,0,0,0,2.89-30.66ZM42,33.14A11.18,11.18,0,0,1,29,42h0A11.16,11.16,0,0,1,31,19.88a11.79,11.79,0,0,1,2.12.2A11.18,11.18,0,0,1,42,33.14Z"/></g></g></svg>