<svg xmlns="http://www.w3.org/2000/svg" viewBox="0 0 65.44 86.16"><defs><style>.cls-1{fill:none;}</style></defs><title>Asset 47 target</title><g id="Layer_2" data-name="Layer 2"><g id="Layer_1-2" data-name="Layer 1"><path d="M8.77,61.53A1.46,1.46,0,0,0,9.51,61a1.77,1.77,0,0,0,.15-.73,8,8,0,0,1,6.65-7.2,8.52,8.52,0,0,1,4,.29A21.83,21.83,0,0,1,19.76,28,24.31,24.31,0,0,0,5.87,63.28,14.91,14.91,0,0,1,8.77,61.53Z"/><rect class="cls-1" width="65.44" height="86.16"/><path d="M37.52,49.25A13,13,0,0,1,50.61,62a3.81,3.81,0,0,0,3.12,3.66,9.67,9.67,0,0,1,7.89,9.5q0,.4,0,.81a7.24,7.24,0,0,1-7.36,6.36h-43a7.31,7.31,0,0,1-7.43-7.07v-.1A11.28,11.28,0,0,1,10.35,65a4.83,4.83,0,0,0,3.12-4.5A4.16,4.16,0,0,1,17,56.84a4.65,4.65,0,0,1,.75-.06,4.77,4.77,0,0,1,2.68.83,3.78,3.78,0,0,0,2.18.68,4,4,0,0,0,.91-.11,3.84,3.84,0,0,0,2.48-2,13.13,13.13,0,0,1,11.57-7m0-3.82a17,17,0,0,0-15,9A8.62,8.62,0,0,0,17.7,53a8.07,8.07,0,0,0-1.39.12,8,8,0,0,0-6.65,7.2,1.77,1.77,0,0,1-.15.73,1.46,1.46,0,0,1-.74.52A15.09,15.09,0,0,0,0,75.17v.13A11.15,11.15,0,0,0,11.25,86.16h43a11.06,11.06,0,0,0,11.16-9.87,10.38,10.38,0,0,0,0-1.12,13.5,13.5,0,0,0-11-13.26A16.92,16.92,0,0,0,37.52,45.43Z"/></g></g></svg>