<svg xmlns="http://www.w3.org/2000/svg" viewBox="0 0 557.52 744.09"><defs><style>.cls-1{fill:none;}</style></defs><title>Asset 17 privacy</title><g id="Layer_2" data-name="Layer 2"><g id="Layer_1-2" data-name="Layer 1"><path d="M414.52,211.32h-33V136.7c0-.63,0-1.25,0-1.88A102.76,102.76,0,0,0,278.79,33h-1A102.87,102.87,0,0,0,176,136.7v74.62H143V136.93C142.36,62.11,202.69.69,277.52,0h1.28A135.76,135.76,0,0,1,414.52,134.52c0,.8,0,1.6,0,2.41Z"/><path d="M470.32,211.33h-55.8v-74.4c0-.81,0-1.61,0-2.41A135.76,135.76,0,0,0,278.8,0h-1.28C202.69.69,142.36,62.11,143,136.93v74.4H87.21A87.23,87.23,0,0,0,0,298.54V656.89a87.21,87.21,0,0,0,87.21,87.2h383.1a87.2,87.2,0,0,0,87.21-87.19V298.55A87.22,87.22,0,0,0,470.32,211.33ZM176,136.7A102.87,102.87,0,0,1,277.82,33h1A102.76,102.76,0,0,1,381.52,134.82c0,.63,0,1.25,0,1.88v74.63H176V136.7ZM524.52,656.89a54.21,54.21,0,0,1-54.21,54.2H87.21A54.21,54.21,0,0,1,33,656.89V298.54a54.22,54.22,0,0,1,54.21-54.22h383.1a54.22,54.22,0,0,1,54.21,54.22Z"/><rect class="cls-1" y="211.32" width="557.52" height="532.77"/><path d="M278.76,383.83a93.88,93.88,0,1,1-93.88,93.88,94,94,0,0,1,93.88-93.88m0-33A126.88,126.88,0,1,0,405.64,477.71,126.88,126.88,0,0,0,278.76,350.83Z"/><path d="M322.24,484.72a34.55,34.55,0,0,1-17.62-64.26,62.44,62.44,0,1,0,37.49,58A34.38,34.38,0,0,1,322.24,484.72Z"/></g></g></svg>