<svg xmlns="http://www.w3.org/2000/svg" viewBox="0 0 65.44 86.16"><title>Asset 27 target</title><g id="Layer_2" data-name="Layer 2"><g id="Layer_1-2" data-name="Layer 1"><g id="Layer_2-2" data-name="Layer 2"><path d="M64.56,44.76V34.57a10.1,10.1,0,0,0-10.1-10.1H48V15.58A15.72,15.72,0,0,0,32.28,0h-.15A15.72,15.72,0,0,0,16.56,15.85v8.62H10.1A10.1,10.1,0,0,0,0,34.57V76.06a10.1,10.1,0,0,0,10.1,10.1H54.46a10.1,10.1,0,0,0,10.1-10.1h0V59.14a.89.89,0,0,0,.88-.89h0V45.64A.89.89,0,0,0,64.56,44.76ZM20.38,15.83a11.9,11.9,0,0,1,23.8-.22v8.86H20.38V15.83ZM36.7,29.2a.65.65,0,0,1-.65.65H28.5a.66.66,0,0,1-.65-.65h0a.65.65,0,0,1,.65-.65h7.55A.65.65,0,0,1,36.7,29.2Zm24,46.86a6.29,6.29,0,0,1-6.28,6.28H10.1a6.28,6.28,0,0,1-6.28-6.28V34.57a6.28,6.28,0,0,1,6.28-6.28h5.18a1.09,1.09,0,0,1,1.1,1.09v.52a2.92,2.92,0,0,0,2.92,2.93h26a2.93,2.93,0,0,0,2.93-2.93v-.52a1.09,1.09,0,0,1,1.09-1.09h5.19a6.28,6.28,0,0,1,6.28,6.28Z"/></g><path d="M37.18,53.86a4.46,4.46,0,1,0-6.67,3.85v4.84a2.21,2.21,0,0,0,4.42,0V57.71A4.44,4.44,0,0,0,37.18,53.86Z"/></g></g></svg>