<svg xmlns="http://www.w3.org/2000/svg" viewBox="0 0 584.21 584.21"><title>Asset 17 target</title><g id="Layer_2" data-name="Layer 2"><g id="Layer_1-2" data-name="Layer 1"><path d="M567.3,309H16.9a16.91,16.91,0,0,1,0-33.81H567.3a16.91,16.91,0,1,1,0,33.81Z"/><path d="M567.3,275.2H309V16.9a16.91,16.91,0,0,0-33.81,0V275.2H16.9a16.91,16.91,0,0,0,0,33.81H275.2V567.3a16.91,16.91,0,1,0,33.81,0V309H567.3a16.91,16.91,0,1,0,0-33.81Z"/><path d="M247.55,265.2a52.46,52.46,0,0,1,17.65-17.65v-37a86,86,0,0,0-54.64,54.64Z"/><path d="M336.66,319A52.46,52.46,0,0,1,319,336.66v37A86,86,0,0,0,373.65,319Z"/><path d="M265.2,336.66A52.46,52.46,0,0,1,247.55,319h-37a86,86,0,0,0,54.64,54.64Z"/><path d="M319,247.55a52.46,52.46,0,0,1,17.65,17.65h37A86,86,0,0,0,319,210.56Z"/><path d="M516.93,319A226.15,226.15,0,0,1,319,516.93v34C441.24,538.39,538.39,441.24,551,319Z"/><path d="M319,67.28A226.15,226.15,0,0,1,516.93,265.2h34C538.39,143,441.24,45.82,319,33.26Z"/><path d="M265.2,516.93A226.15,226.15,0,0,1,67.28,319h-34C45.82,441.24,143,538.39,265.2,551Z"/><path d="M67.28,265.2A226.15,226.15,0,0,1,265.2,67.28v-34C143,45.82,45.82,143,33.26,265.2Z"/></g></g></svg>