<svg xmlns="http://www.w3.org/2000/svg" viewBox="0 0 238.27 238.3"><defs><style>.cls-1{fill:none;}.cls-2{fill:#fff;}</style></defs><title>Asset 17 target bla</title><g id="Layer_2" data-name="Layer 2"><g id="Layer_1-2" data-name="Layer 1"><rect class="cls-1" y="0.01" width="238.27" height="238.27"/><g id="Layer_2-2" data-name="Layer 2"><g id="Layer_1-2-2" data-name="Layer 1-2"><path class="cls-2" d="M230.25,176.57c-2.93-9.66-7.34-18.88-8.4-29-1.16-11.1.12-22.29,1.67-33.29,2.21-15.71,3.66-30.65-.45-46.18A91.54,91.54,0,0,0,62,35.69C52.25,48.42,47.8,62.76,43.77,78.1c-2.83,10.74-6,21.56-11.34,31.35-4.9,8.94-12.53,15.74-19,23.51C9,138.34,4.48,145.57,6.9,152.77a15.16,15.16,0,0,0,11.35,10l98,19.71,98,19.71a15.19,15.19,0,0,0,14.35-4.85C233.58,191.65,232.25,183.25,230.25,176.57Z"/><path class="cls-2" d="M101.41,188.32v.76a49.18,49.18,0,0,0,94.84,18.31Z"/></g></g></g></g></svg>