<svg id="Layer_1" data-name="Layer 1" xmlns="http://www.w3.org/2000/svg" xmlns:xlink="http://www.w3.org/1999/xlink" viewBox="0 0 65.44 86.16"><defs><style>.cls-1{fill:url(#linear-gradient);}.cls-2{fill:none;}.cls-3{fill:url(#linear-gradient-2);}</style><linearGradient id="linear-gradient" x1="2.66" y1="45.64" x2="20.31" y2="45.64" gradientUnits="userSpaceOnUse"><stop offset="0" stop-color="#0a007c"/><stop offset="1" stop-color="red" stop-opacity="0.5"/></linearGradient><linearGradient id="linear-gradient-2" x1="0" y1="65.8" x2="65.43" y2="65.8" xlink:href="#linear-gradient"/></defs><title>Asset 47 target</title><path class="cls-1" d="M8.77,61.53A1.42,1.42,0,0,0,9.51,61a1.83,1.83,0,0,0,.15-.73,8,8,0,0,1,6.65-7.2,8.6,8.6,0,0,1,4,.29A21.83,21.83,0,0,1,19.76,28a24.31,24.31,0,0,0-16,30.43,24,24,0,0,0,2.11,4.85A15,15,0,0,1,8.77,61.53Z"/><g id="Layer_2" data-name="Layer 2"><g id="Layer_1-2" data-name="Layer 1-2"><rect class="cls-2" width="65.44" height="86.16"/><path class="cls-3" d="M54.41,61.91A16.92,16.92,0,0,0,37.52,45.43h0a16.85,16.85,0,0,0-15,8.93,8.5,8.5,0,0,0-2.28-1l0,0a8.6,8.6,0,0,0-4-.29,8,8,0,0,0-6.65,7.2,1.83,1.83,0,0,1-.15.73,1.42,1.42,0,0,1-.74.53A15,15,0,0,0,0,75.17v.13A11.15,11.15,0,0,0,11.25,86.16h43a11.06,11.06,0,0,0,11.16-9.87,10.46,10.46,0,0,0,0-1.12A13.49,13.49,0,0,0,54.41,61.91ZM61.62,76a7.24,7.24,0,0,1-7.36,6.36h-43a7.31,7.31,0,0,1-7.43-7.07v-.1A11.28,11.28,0,0,1,10.35,65a4.84,4.84,0,0,0,3.12-4.5A4.17,4.17,0,0,1,17,56.84a4.74,4.74,0,0,1,3.43.77,3.78,3.78,0,0,0,2.18.68,4,4,0,0,0,.91-.11,3.86,3.86,0,0,0,2.48-2,13,13,0,0,1,11.52-6.93h0A13,13,0,0,1,50.61,62a3.8,3.8,0,0,0,3.12,3.66,9.68,9.68,0,0,1,7.89,9.5Z"/></g></g></svg>