<svg xmlns="http://www.w3.org/2000/svg" xmlns:xlink="http://www.w3.org/1999/xlink" viewBox="0 0 30.51 30.51"><defs><style>.cls-1{fill:url(#linear-gradient);}</style><linearGradient id="linear-gradient" y1="15.26" x2="30.51" y2="15.26" gradientUnits="userSpaceOnUse"><stop offset="0" stop-color="#5712fa"/><stop offset="1" stop-color="#00c7ff"/></linearGradient></defs><title>Asset 47 target</title><g id="Layer_2" data-name="Layer 2"><g id="DESIGNED_BY_FREEPIK" data-name="DESIGNED BY FREEPIK"><path class="cls-1" d="M29.63,14.37H28.7A13.47,13.47,0,0,0,16.14,1.82V.88a.89.89,0,0,0-1.77,0v.94A13.46,13.46,0,0,0,1.82,14.37H.88a.89.89,0,0,0,0,1.77h.94A13.47,13.47,0,0,0,14.37,28.7v.93a.89.89,0,0,0,1.77,0V28.7A13.47,13.47,0,0,0,28.7,16.14h.93a.89.89,0,0,0,0-1.77Zm-13.49,0v-4.1a5.06,5.06,0,0,1,4.1,4.1Zm-1.77,0h-4.1a5.06,5.06,0,0,1,4.1-4.1Zm0,1.77v4.1a5.06,5.06,0,0,1-4.1-4.1Zm1.77,0h4.1a5.06,5.06,0,0,1-4.1,4.1Zm10.79-1.77H22a6.85,6.85,0,0,0-5.9-5.9V3.59A11.73,11.73,0,0,1,26.93,14.37ZM14.37,3.59V8.47a6.85,6.85,0,0,0-5.9,5.9H3.59A11.71,11.71,0,0,1,14.37,3.59ZM3.59,16.14H8.47a6.85,6.85,0,0,0,5.9,5.9v4.89A11.73,11.73,0,0,1,3.59,16.14ZM16.14,26.93V22a6.85,6.85,0,0,0,5.9-5.9h4.89A11.74,11.74,0,0,1,16.14,26.93Z"/></g></g></svg>