<svg xmlns="http://www.w3.org/2000/svg" viewBox="0 0 719.94 1458.77"><title>Asset 87</title><g id="Layer_2" data-name="Layer 2"><g id="Layer_1-2" data-name="Layer 1"><path d="M609.42,0H110.52A110.52,110.52,0,0,0,0,110.52V1348.25a110.52,110.52,0,0,0,110.52,110.52h498.9a110.52,110.52,0,0,0,110.52-110.52V110.52A110.52,110.52,0,0,0,609.42,0Zm66.73,1347.23A66.79,66.79,0,0,1,609.36,1414H110.14a66.79,66.79,0,0,1-66.79-66.79V109.6a66.79,66.79,0,0,1,63.12-66.69h67.06a9.31,9.31,0,0,1,9.31,9.32v3.64a37.32,37.32,0,0,0,37.32,37.32H499.33a37.32,37.32,0,0,0,37.32-37.32V52.23A9.31,9.31,0,0,1,546,42.91H613a66.79,66.79,0,0,1,63.12,66.69Z"/></g></g></svg>