<svg xmlns="http://www.w3.org/2000/svg" viewBox="0 0 238.27 238.27"><defs><style>.cls-1{fill:none;}.cls-2{fill:#fff;}</style></defs><title>Asset 57 target bla</title><g id="Layer_2" data-name="Layer 2"><g id="Layer_1-2" data-name="Layer 1"><rect class="cls-1" width="238.27" height="238.27"/><path class="cls-2" d="M203.86,96.75h-13.3V72.54a71.43,71.43,0,1,0-142.85,0V96.75H34.41a20.59,20.59,0,0,0-20.59,20.59V217.68a20.59,20.59,0,0,0,20.59,20.59H203.86a20.59,20.59,0,0,0,20.59-20.59V117.34A20.59,20.59,0,0,0,203.86,96.75ZM68.71,72.54a50.43,50.43,0,1,1,100.85,0V96.75H68.71Zm58.2,105.29v15H111.36v-15a12.94,12.94,0,1,1,15.55,0Z"/></g></g></svg>