<svg xmlns="http://www.w3.org/2000/svg" viewBox="0 0 1841.47 1048.73"><title>Asset 77</title><g id="Layer_2" data-name="Layer 2"><g id="Layer_1-2" data-name="Layer 1"><path d="M1840.71,995.39H1666.34V48.93A48.93,48.93,0,0,0,1617.41,0H224.06a48.93,48.93,0,0,0-48.93,48.93V995.39H.76a.76.76,0,0,0-.76.76v26.36c0,1.24,40.86,26.22,162.11,26.22H1679.36c121.25,0,162.11-25,162.11-26.22V996.15A.76.76,0,0,0,1840.71,995.39ZM211,60.5a1,1,0,0,1,1-1H1629.43a1,1,0,0,1,1,1V945.12a1,1,0,0,1-1,1H212a1,1,0,0,1-1-1Z"/></g></g></svg>