<svg xmlns="http://www.w3.org/2000/svg" viewBox="0 0 142.56 274.83"><defs><style>.cls-1{fill:#ababab;}</style></defs><title>Asset 47 target bla</title><g id="Layer_2" data-name="Layer 2"><g id="Layer_1-2" data-name="Layer 1"><path class="cls-1" d="M58.32,0Q83.1,0,102.16,8.2t29.73,23.06a56.74,56.74,0,0,1,10.67,33.92q0,20.2-9.91,34.5t-29,32.21Q88.82,146,81.38,155.52a46,46,0,0,0-9.34,21l-1.9,12.58H36.21V170q0-19.81,7-32.79t20.78-29A150.52,150.52,0,0,0,78.9,88.62a34.32,34.32,0,0,0,5-18.1q0-11.43-7.81-17.54t-22.3-6.09Q26.3,46.89,0,63.28V15.63Q25.16,0,58.32,0ZM22.87,274.83V213.46H85v61.37Z"/></g></g></svg>