<svg xmlns="http://www.w3.org/2000/svg" xmlns:xlink="http://www.w3.org/1999/xlink" viewBox="0 0 1619 406.77"><defs><style>.cls-1{fill:none;}.cls-2{isolation:isolate;}.cls-3{clip-path:url(#clip-path);}.cls-4{fill:url(#Degradado_sin_nombre_410);}.cls-5{mix-blend-mode:overlay;}.cls-6{fill:#fff;opacity:0.06;}.cls-7{opacity:0.45;}.cls-8{fill:#e05079;}.cls-10,.cls-9{mix-blend-mode:hard-light;}.cls-9{fill:url(#Degradado_sin_nombre_240);}.cls-10{fill:url(#Degradado_sin_nombre_265);}.cls-11{opacity:0.49;}.cls-12{fill:#de3e6a;}.cls-13{opacity:0.5;}.cls-14{fill:url(#Degradado_sin_nombre_436);}.cls-15{fill:url(#Degradado_sin_nombre_381);}.cls-16{fill:url(#Degradado_sin_nombre_381-2);}.cls-17{fill:url(#Degradado_sin_nombre_381-3);}.cls-18{fill:url(#Degradado_sin_nombre_381-4);}.cls-19{fill:url(#Degradado_sin_nombre_381-5);}.cls-20{opacity:0.3;fill:url(#Degradado_sin_nombre_381-6);}.cls-21{fill:url(#Degradado_sin_nombre_381-7);}.cls-22{fill:url(#Degradado_sin_nombre_381-8);}.cls-23{fill:url(#Degradado_sin_nombre_381-9);}.cls-24{fill:url(#Degradado_sin_nombre_381-10);}.cls-25{fill:url(#Degradado_sin_nombre_381-11);}.cls-26{fill:url(#Degradado_sin_nombre_381-12);}.cls-27{fill:url(#Degradado_sin_nombre_381-13);}.cls-28{fill:url(#Degradado_sin_nombre_381-14);}.cls-29{fill:url(#Degradado_sin_nombre_381-15);}.cls-30{fill:url(#Degradado_sin_nombre_381-16);}.cls-31{fill:url(#Degradado_sin_nombre_381-17);}.cls-32{fill:url(#Degradado_sin_nombre_381-18);}.cls-33{fill:url(#Degradado_sin_nombre_381-19);}.cls-34{fill:url(#Degradado_sin_nombre_381-20);}.cls-35{fill:url(#Degradado_sin_nombre_381-21);}.cls-36{fill:url(#Degradado_sin_nombre_381-22);}.cls-37{fill:url(#Degradado_sin_nombre_381-23);}.cls-38{fill:url(#Degradado_sin_nombre_381-24);}.cls-39{fill:url(#Degradado_sin_nombre_381-25);}.cls-40{fill:url(#Degradado_sin_nombre_381-26);}.cls-41{fill:url(#Degradado_sin_nombre_381-27);}.cls-42{fill:url(#Degradado_sin_nombre_381-28);}.cls-43{fill:url(#Degradado_sin_nombre_381-29);}.cls-44{fill:url(#Degradado_sin_nombre_381-30);}.cls-45{fill:url(#Degradado_sin_nombre_381-31);}.cls-46{fill:url(#Degradado_sin_nombre_381-32);}.cls-47{opacity:0.53;}.cls-48{fill:url(#Degradado_sin_nombre_381-33);}.cls-49{fill:url(#Degradado_sin_nombre_381-34);}.cls-50{fill:url(#Degradado_sin_nombre_381-35);}.cls-51{fill:url(#Degradado_sin_nombre_381-36);}.cls-52{fill:url(#Degradado_sin_nombre_381-37);}.cls-53{fill:url(#Degradado_sin_nombre_381-38);}.cls-54{fill:url(#Degradado_sin_nombre_381-39);}.cls-55{fill:url(#Degradado_sin_nombre_381-40);}.cls-56{fill:url(#Degradado_sin_nombre_381-41);}.cls-57{fill:url(#Degradado_sin_nombre_381-42);}.cls-58{fill:url(#Degradado_sin_nombre_381-43);}.cls-59{fill:url(#Degradado_sin_nombre_381-44);}</style><clipPath id="clip-path"><rect class="cls-1" width="1618.92" height="406.77"/></clipPath><linearGradient id="Degradado_sin_nombre_410" x1="809.5" y1="851.61" x2="809.5" gradientUnits="userSpaceOnUse"><stop offset="0.27" stop-color="#6082bc"/><stop offset="0.34" stop-color="#5f71b2"/><stop offset="0.53" stop-color="#5d4597"/><stop offset="0.69" stop-color="#5c2987"/><stop offset="0.78" stop-color="#5b1f81"/><stop offset="0.86" stop-color="#5a1872"/><stop offset="1" stop-color="#57054e"/></linearGradient><radialGradient id="Degradado_sin_nombre_240" cx="-4664.2" cy="-528.08" r="389.91" gradientTransform="matrix(-0.37, -0.93, -0.93, 0.37, -1827.72, -3549.17)" gradientUnits="userSpaceOnUse"><stop offset="0.01" stop-color="#005b96" stop-opacity="0"/><stop offset="0.04" stop-color="#0c5c96" stop-opacity="0.05"/><stop offset="0.23" stop-color="#586296" stop-opacity="0.39"/><stop offset="0.4" stop-color="#946795" stop-opacity="0.65"/><stop offset="0.54" stop-color="#bf6b95" stop-opacity="0.84"/><stop offset="0.65" stop-color="#da6d95" stop-opacity="0.96"/><stop offset="0.72" stop-color="#e46e95"/><stop offset="0.74" stop-color="#e6789b"/><stop offset="0.79" stop-color="#ea8ea8"/><stop offset="0.85" stop-color="#ed9fb2"/><stop offset="0.91" stop-color="#eea8b7"/><stop offset="1" stop-color="#efabb9"/></radialGradient><radialGradient id="Degradado_sin_nombre_265" cx="-5446.69" cy="-958.39" r="241.82" gradientTransform="matrix(-0.37, -0.93, -0.93, 0.37, -1581.28, -4222.2)" gradientUnits="userSpaceOnUse"><stop offset="0.01" stop-color="#8c8f17" stop-opacity="0"/><stop offset="0.16" stop-color="#7d8e46" stop-opacity="0.28"/><stop offset="0.35" stop-color="#6c8c7a" stop-opacity="0.58"/><stop offset="0.52" stop-color="#5f8ba0" stop-opacity="0.81"/><stop offset="0.64" stop-color="#588ab7" stop-opacity="0.95"/><stop offset="0.72" stop-color="#558ac0"/><stop offset="0.76" stop-color="#6f97c8"/><stop offset="0.81" stop-color="#85a3ce"/><stop offset="0.86" stop-color="#96acd3"/><stop offset="0.92" stop-color="#9fb0d6"/><stop offset="1" stop-color="#a2b2d7"/></radialGradient><linearGradient id="Degradado_sin_nombre_436" x1="809.64" y1="1079.28" x2="809.64" y2="330.33" gradientUnits="userSpaceOnUse"><stop offset="0.37" stop-color="#cf3c51"/><stop offset="0.39" stop-color="#cb394f"/><stop offset="0.52" stop-color="#b32943"/><stop offset="0.67" stop-color="#a21d3b"/><stop offset="0.82" stop-color="#971636"/><stop offset="1" stop-color="#941434"/></linearGradient><radialGradient id="Degradado_sin_nombre_381" cx="344.48" cy="64.76" r="6.89" gradientUnits="userSpaceOnUse"><stop offset="0" stop-color="#fdff00"/><stop offset="0.25" stop-color="#fee04d" stop-opacity="0.7"/><stop offset="0.52" stop-color="#fec399" stop-opacity="0.4"/><stop offset="0.75" stop-color="#ffadd0" stop-opacity="0.18"/><stop offset="0.91" stop-color="#ff9ff2" stop-opacity="0.05"/><stop offset="1" stop-color="#ff9aff" stop-opacity="0"/></radialGradient><radialGradient id="Degradado_sin_nombre_381-2" cx="344.48" cy="64.76" r="14.48" xlink:href="#Degradado_sin_nombre_381"/><radialGradient id="Degradado_sin_nombre_381-3" cx="76.18" cy="75.79" r="6.89" xlink:href="#Degradado_sin_nombre_381"/><radialGradient id="Degradado_sin_nombre_381-4" cx="76.18" cy="75.79" r="14.48" xlink:href="#Degradado_sin_nombre_381"/><radialGradient id="Degradado_sin_nombre_381-5" cx="1262.72" cy="131.04" r="6.89" xlink:href="#Degradado_sin_nombre_381"/><radialGradient id="Degradado_sin_nombre_381-6" cx="1262.72" cy="131.04" r="14.48" xlink:href="#Degradado_sin_nombre_381"/><radialGradient id="Degradado_sin_nombre_381-7" cx="1508.32" cy="177.63" r="6.89" xlink:href="#Degradado_sin_nombre_381"/><radialGradient id="Degradado_sin_nombre_381-8" cx="1508.32" cy="177.63" r="14.48" xlink:href="#Degradado_sin_nombre_381"/><radialGradient id="Degradado_sin_nombre_381-9" cx="1117.85" cy="100.95" r="6.89" xlink:href="#Degradado_sin_nombre_381"/><radialGradient id="Degradado_sin_nombre_381-10" cx="1117.85" cy="100.95" r="14.48" xlink:href="#Degradado_sin_nombre_381"/><radialGradient id="Degradado_sin_nombre_381-11" cx="563.82" cy="245.2" r="6.89" xlink:href="#Degradado_sin_nombre_381"/><radialGradient id="Degradado_sin_nombre_381-12" cx="563.82" cy="245.2" r="14.48" xlink:href="#Degradado_sin_nombre_381"/><radialGradient id="Degradado_sin_nombre_381-13" cx="1040.96" cy="267.7" r="6.89" xlink:href="#Degradado_sin_nombre_381"/><radialGradient id="Degradado_sin_nombre_381-14" cx="1040.96" cy="267.7" r="14.48" xlink:href="#Degradado_sin_nombre_381"/><radialGradient id="Degradado_sin_nombre_381-15" cx="184.25" cy="253.23" r="6.89" xlink:href="#Degradado_sin_nombre_381"/><radialGradient id="Degradado_sin_nombre_381-16" cx="184.25" cy="253.23" r="14.48" xlink:href="#Degradado_sin_nombre_381"/><radialGradient id="Degradado_sin_nombre_381-17" cx="456.19" cy="154.02" r="3.45" xlink:href="#Degradado_sin_nombre_381"/><radialGradient id="Degradado_sin_nombre_381-18" cx="456.19" cy="154.02" r="7.24" xlink:href="#Degradado_sin_nombre_381"/><radialGradient id="Degradado_sin_nombre_381-19" cx="505.03" cy="50.28" r="3.45" xlink:href="#Degradado_sin_nombre_381"/><radialGradient id="Degradado_sin_nombre_381-20" cx="505.03" cy="50.28" r="7.24" xlink:href="#Degradado_sin_nombre_381"/><radialGradient id="Degradado_sin_nombre_381-21" cx="704.77" cy="224.28" r="3.45" xlink:href="#Degradado_sin_nombre_381"/><radialGradient id="Degradado_sin_nombre_381-22" cx="704.77" cy="224.28" r="7.24" xlink:href="#Degradado_sin_nombre_381"/><radialGradient id="Degradado_sin_nombre_381-23" cx="1296.21" cy="29.13" r="3.45" xlink:href="#Degradado_sin_nombre_381"/><radialGradient id="Degradado_sin_nombre_381-24" cx="1296.21" cy="29.13" r="7.24" xlink:href="#Degradado_sin_nombre_381"/><radialGradient id="Degradado_sin_nombre_381-25" cx="1554.16" cy="392.99" r="3.45" xlink:href="#Degradado_sin_nombre_381"/><radialGradient id="Degradado_sin_nombre_381-26" cx="1554.16" cy="392.99" r="7.24" xlink:href="#Degradado_sin_nombre_381"/><radialGradient id="Degradado_sin_nombre_381-27" cx="1501.43" cy="131.04" r="3.45" xlink:href="#Degradado_sin_nombre_381"/><radialGradient id="Degradado_sin_nombre_381-28" cx="1501.43" cy="131.04" r="7.24" xlink:href="#Degradado_sin_nombre_381"/><radialGradient id="Degradado_sin_nombre_381-29" cx="1106.81" cy="65.18" r="3.45" xlink:href="#Degradado_sin_nombre_381"/><radialGradient id="Degradado_sin_nombre_381-30" cx="1106.81" cy="65.18" r="7.24" xlink:href="#Degradado_sin_nombre_381"/><radialGradient id="Degradado_sin_nombre_381-31" cx="1071.9" cy="79.23" r="3.45" xlink:href="#Degradado_sin_nombre_381"/><radialGradient id="Degradado_sin_nombre_381-32" cx="1071.9" cy="79.23" r="7.24" xlink:href="#Degradado_sin_nombre_381"/><radialGradient id="Degradado_sin_nombre_381-33" cx="177.36" cy="290.63" r="1.95" xlink:href="#Degradado_sin_nombre_381"/><radialGradient id="Degradado_sin_nombre_381-34" cx="177.36" cy="290.63" r="4.09" xlink:href="#Degradado_sin_nombre_381"/><radialGradient id="Degradado_sin_nombre_381-35" cx="660.52" cy="57.86" r="1.95" xlink:href="#Degradado_sin_nombre_381"/><radialGradient id="Degradado_sin_nombre_381-36" cx="660.52" cy="57.86" r="4.09" xlink:href="#Degradado_sin_nombre_381"/><radialGradient id="Degradado_sin_nombre_381-37" cx="708.22" cy="361.37" r="1.95" xlink:href="#Degradado_sin_nombre_381"/><radialGradient id="Degradado_sin_nombre_381-38" cx="708.22" cy="361.37" r="4.09" xlink:href="#Degradado_sin_nombre_381"/><radialGradient id="Degradado_sin_nombre_381-39" cx="191.15" cy="154.02" r="1.95" xlink:href="#Degradado_sin_nombre_381"/><radialGradient id="Degradado_sin_nombre_381-40" cx="191.15" cy="154.02" r="4.08" xlink:href="#Degradado_sin_nombre_381"/><radialGradient id="Degradado_sin_nombre_381-41" cx="940.84" cy="327.19" r="1.95" xlink:href="#Degradado_sin_nombre_381"/><radialGradient id="Degradado_sin_nombre_381-42" cx="940.84" cy="327.19" r="4.09" xlink:href="#Degradado_sin_nombre_381"/><radialGradient id="Degradado_sin_nombre_381-43" cx="917.56" cy="302.56" r="1.95" xlink:href="#Degradado_sin_nombre_381"/><radialGradient id="Degradado_sin_nombre_381-44" cx="917.56" cy="302.56" r="4.09" xlink:href="#Degradado_sin_nombre_381"/></defs><title>pink parrot about page graphic sarah</title><g class="cls-2"><g id="Layer_5" data-name="Layer 5"><g class="cls-3"><polygon class="cls-4" points="1618.92 851.61 0 851.61 0 0 1619 0 1618.92 851.61"/><g class="cls-5"><path d="M299.1,302.23h49.16q17.69,0,27.4,8.48t9.72,23q0,14.37-9.86,22.91t-27.26,8.56h-21.9v40.31H299.1Zm45.53,42.63Q360,344.86,360,334q0-5.5-3.69-8.33t-11.68-2.83H326.36v22Z"/><path d="M401.33,405.47V302.23h27.26V405.47Z"/><path d="M516.75,302.23h25.66V405.47H522.26l-46.84-58.58v58.58H450.05V302.23h19.86l46.84,58.29Z"/><path d="M664.94,405.47H632.6l-41.32-46.83v46.83H564V302.23h27.26V346.6l40.16-44.37h31.9l-45.67,49Z"/><path d="M714.23,302.23h49.16q17.68,0,27.4,8.48t9.72,23q0,14.37-9.86,22.91t-27.26,8.56h-21.9v40.31H714.23Zm45.53,42.63q15.38,0,15.37-10.88,0-5.5-3.69-8.33t-11.68-2.83H741.49v22Z"/><path d="M884.17,405.47,875,384.15H829.22l-9.14,21.32H792.82l48.29-103.24h21.46L911,405.47Zm-46.11-41.76h28.13l-14.06-32.62Z"/><path d="M1009.6,405.47H980.74L967.4,371.1q-2.31-5.79-10.87-5.79h-9.86v40.16H919.84V302.23h48q18.7,0,28.13,8t9.42,23a28.9,28.9,0,0,1-21.31,28.85,16.1,16.1,0,0,1,7.83,4.07,21.83,21.83,0,0,1,5.51,8.55Zm-33.5-63.15c2.61-1.79,3.92-4.56,3.92-8.34q0-5.94-3.84-8.55t-12.69-2.61H946.38V345h17.11Q972.19,345,976.1,342.32Z"/><path d="M1116,405.47h-28.86l-13.34-34.37q-2.31-5.79-10.87-5.79h-9.86v40.16h-26.83V302.23h48q18.7,0,28.13,8t9.42,23a28.9,28.9,0,0,1-21.31,28.85,16.1,16.1,0,0,1,7.83,4.07,21.83,21.83,0,0,1,5.51,8.55Zm-33.5-63.15c2.61-1.79,3.92-4.56,3.92-8.34q0-5.94-3.85-8.55t-12.68-2.61h-17.11V345h17.11Q1078.62,345,1082.53,342.32Z"/><path d="M1153.58,400.32a43.78,43.78,0,0,1-18-18.48q-6.32-12-6.31-28.13t6.38-28a44.61,44.61,0,0,1,18.05-18.34q11.67-6.45,27.48-6.45t27.48,6.45a43.75,43.75,0,0,1,17.91,18.34q6.23,11.89,6.23,28t-6.23,28.13a43.52,43.52,0,0,1-17.91,18.48q-11.67,6.46-27.48,6.45T1153.58,400.32Zm45.75-22.55q6.6-8.25,6.6-24.06t-6.6-23.86q-6.6-8.19-18.2-8.19T1163,329.78q-6.52,8.12-6.53,23.93t6.53,24.14q6.52,8.19,18.12,8.19T1199.33,377.77Z"/><path d="M1269.15,405.47v-81.2h-30.74v-22h89v22H1296.7v81.2Z"/></g><path class="cls-6" d="M0,1079.28V240.66s34-51.84,95.82-79.44C203,113.35,360.05,138,482,171.28c54.86,15,104.81,38.55,160,53,106.06,27.8,223.28,19.95,333.73,3.63s219.52-39.43,331.87-45.38c237.6-12.57,311.77,63.84,311.77,63.84v832.91Z"/><path class="cls-6" d="M0,1079.28V291.81s34-48.67,95.82-74.6c107.16-45,264.23-21.83,386.14,9.45,54.86,14.07,104.81,36.2,160,49.76,106.06,26.11,223.28,18.74,333.73,3.42s219.52-37,331.87-42.62c237.6-11.8,311.77,60,311.77,60v782.11Z"/><g class="cls-7"><path class="cls-8" d="M1103.36,416.65a277.85,277.85,0,0,1,52.84-9.35,309,309,0,0,1,54.41.22c9.09.78,18.14,2.1,27,3.52s17.57,3.14,26.15,4.79c17.15,3.29,33.88,6.36,50.3,7.51,32.54,2.32,66.12-4.44,101.18-9.73,17.53-2.62,35.58-4.81,53.91-4.88s36.95,2.14,53.65,8.49l-.65,2.38c-35.41-2.57-68.24,5.68-102.13,13.85-17,4.05-34.26,8.26-52.33,11a237.13,237.13,0,0,1-55.91,2.56c-18.81-1.57-36.66-5.53-53.81-9.67s-33.69-8.57-50.42-11.61a436.55,436.55,0,0,0-51.17-6.25,522.23,522.23,0,0,0-52.54-.41Z"/></g><circle class="cls-9" cx="368.44" cy="428.58" r="186.33" transform="translate(-195.14 386.05) rotate(-45)"/><circle class="cls-10" cx="1304.08" cy="389.54" r="115.56" transform="translate(106.51 1036.22) rotate(-45)"/><g class="cls-11"><path class="cls-12" d="M1595.34,288.58a360.14,360.14,0,0,0-64.5-5.56,394.76,394.76,0,0,0-63.56,5.31A361,361,0,0,0,1405.92,304c-5,1.55-9.88,3.69-14.8,5.55s-9.75,3.93-14.46,6.07c-9.46,4.24-18.57,8.69-27.6,12.94-18,8.5-35.85,16.18-54.66,20.16s-38.64,4.88-58.49,3.75-39.83-4.08-59.76-7.21l-.54,2.49c19.46,5.38,39,10.64,59.23,14.1s41,5.09,62.06,3a202.42,202.42,0,0,0,31.12-5.67c10.13-2.64,20-5.8,29.69-9.08s19.15-6.62,28.51-9.59c4.68-1.52,9.33-2.88,14-4.07s9.27-2.63,14-3.51a328.45,328.45,0,0,1,57.12-7.78,355.85,355.85,0,0,1,57.16,1.76A313.61,313.61,0,0,1,1583.64,338,268.08,268.08,0,0,1,1619,351.56V294C1611.6,292.14,1602.78,289.92,1595.34,288.58Z"/></g><g class="cls-13"><path class="cls-12" d="M1019.42,387c-23.86.17-46.7-5.28-69.13-12.1l-33.85-10.72c-11.38-3.6-23-7.11-35-9.81a294.75,294.75,0,0,0-146.9,4.47c-11.85,3.48-23.34,7.55-34.57,11.78l-33,13c-5.29,2.07-10.55,4.09-15.82,6l13.79,15.82H632.6L626,398a216.87,216.87,0,0,1-24.39,5.56l-.1,0a103.21,103.21,0,0,1-17.81,1.53c-11,0-31.06-.2-41.26-2.19v2.59H522.26l-8.81-11c-13.44-5.28-23-10.42-38-21.24-2.82-2-3.61-1.25-3-.32l3,4.18c14.24,16.39,33.57,29,54.77,37.2a159.94,159.94,0,0,0,36.38,9.13,163.78,163.78,0,0,0,37.94.43c25.22-2.52,49.08-10,71.54-18.32,11.29-4.12,22.28-8.53,33.24-12.64s21.76-8.1,32.67-11.38A307.59,307.59,0,0,1,877.77,372c11.39,1.81,22.86,4.17,34.43,6.7s23.2,5.32,35.09,7.45c23.59,4.44,48.52,7.13,72.31,2.61Z"/></g><path class="cls-14" d="M1610,630.8a40.76,40.76,0,0,0-1.86-5.49c-6.61-13.14-11,9.48-14.14,12-5.5,4.45-14-1.53-16.39-7.93-1-2.78-5.52-24.32-11.26-14.71-2.87,4.8-1.72,11.35-2.78,16.53-1.45,7-8.49,14.73-15.5,11.75-5.11-2.16-10.2-29.27-17.41-17.61-1.39,2.23-1.62,4.91-2.5,7.36-1.4,3.92-6.65,7.41-11,4.45-1.82-1.24-2.78-3.27-3.56-5.24-3.87-9.82-5-20.34-6.18-30.74L1494.3,481.46c-.4-3.71-1.81-24.42-8.52-22.34-4.92,1.52-4.74,22.35-5.09,26.63-1.61,19.26-1.41,38.6-2.43,57.89-1.5,28.59-3.78,57.2-9.18,85.4-2.25,11.7-5.15,23.8-13.08,33.12-4.54,5.34-13.2,10.73-20.76,7.94-8.37-3.1-11.72-13.65-20.39-15.92-7.47-2-14.8,3.2-22.46,4.36-5.26.79-10.62-.34-16-.31-16.31.07-16.65,15-22.41,25.63-3.47,6.43-10.84,12.23-18.31,10.32-17-4.36-8.32-33-20.27-42.62a2.07,2.07,0,0,0-1.33-.58,2,2,0,0,0-1.18.63c-4.18,4-2.89,11.23-7.27,15a2.65,2.65,0,0,1-1.47.74c-1.52.13-2.3-1.64-2.56-3q-2-10.53-3-21.2c-.3-3.31.32-12-6.07-8.65-1.5.79-2.06,2.5-2.74,4a16.65,16.65,0,0,1-4.84,6.08c-10.87-4.37-5.93-18.76-13.38-26.29a3.75,3.75,0,0,0-1.62-1.1c-1.53-.43-3,.81-3.86,2.06-2.3,3.36-3,7.47-5.07,10.94-1.09,1.81-2.79,3.55-5,3.74a6,6,0,0,1-5.29-2.87,15.33,15.33,0,0,1-1.85-5.72c-.75-4.07-8.68-50.2-18-43.16a8.08,8.08,0,0,0-2.35,3.49c-2.68,6.43-.09,20.32-7.42,24.24-5.27,2.82-12-1.8-13.82-6.27a29.52,29.52,0,0,1-1.67-8.27,299.31,299.31,0,0,0-7.2-40.1c-.44-1.74-1.32-3.83-3.23-4-2.29-.17-3.39,2.52-3.74,4.63-1.41,8.51-1.59,17.54-3.61,25.89-1.48,6.16-7.17,8-11.21,3-3.11-3.84-3.62-9.52-4.06-14.12-2.35-24.34-2.6-48.78-3.31-73.19-.39-13.66-.46-27.33-1.34-41-.75-11.76-.91-24.07-3.16-35.61-.28-1.4-.87-3-2.33-3.4a3.13,3.13,0,0,0-3.21,1.35,7.82,7.82,0,0,0-1.07,3.33c-2.12,13.11-3.28,26.3-5,39.57-1.76,13.47-3,27-4.64,40.48q-5.94,49-15.39,97.56c-1.07,5.45-3.66,12.2-9.62,12.47-6.46.29-9.51-7.19-10.61-13.11-2.78-15-3.71-31-8.22-45.59-.41-1.32-1.35-3-2.82-2.7a2.74,2.74,0,0,0-1.42.89c-1.78,1.87-2.57,4.35-3.25,6.77-3.91,13.93-3.66,27.41-5.33,41.44-1.61,13.6-1.53,27-2.21,40.6a9.92,9.92,0,0,1-2.38,6.51c-1.69,1.73-4.72,2.49-6.8,1.17s-2.44-4-3.09-6.21-2.53-4.77-5-4.34c-2.23.39-3.14,2.85-3.59,4.91-2.26,10.35-2.27,20.74-3.16,31-2.44-.26-4.74-.35-6.45-.44-7.77-.37-12.87-8.49-14.52-16.09-1.29-6-1.24-12.07-1.94-18.11a8.66,8.66,0,0,0-.79-3.19,3,3,0,0,0-2.63-1.7c-7,.42-4.1,18.77-13.31,20.21-11.55,1.79-9.52-19.09-11.21-25.39a8.71,8.71,0,0,0-1.75-3.75,3.18,3.18,0,0,0-3.78-.8,4.57,4.57,0,0,0-1.62,2.32c-2.09,5-5.14,14-12.38,12.81-3.65-.58-6-4.1-7.68-7.4-18.67-37.33-13.6-82-14.7-122.31-.07-2.57-1.85-17.34-7-14a4.7,4.7,0,0,0-1.62,3.12c-6.29,28.89-6.73,59-12.92,88.22-2,9.29-4,18.64-7.56,27.44-1.12,2.75-2.53,5.59-5,7.18-4.29,2.72-10.3.6-13.55-3.3s-4.43-9.07-5.51-14c-1-4.46-2.15-8.93-2.92-13.43-.7-4.11-.64-8.13-2.62-12a2.92,2.92,0,0,0-1.61-1.66c-1.36-.36-2.45,1.13-3,2.42-2.2,5.17-8.71,38.94-20.62,26.82-1.64-1.67-2.43-4-3.13-6.21A260.36,260.36,0,0,1,876,555.15c-.22-1.71-1.59-4-3-3a2.43,2.43,0,0,0-.78,1.27,14.1,14.1,0,0,1-1.81,4c-5.42,7.08-7.44-6.9-7.87-9.76-.73-4.87-1.06-11.52-6-14.19-1.56-.86-3.44-1.28-4.6-2.62a8,8,0,0,1-1.44-4.55c-1-13.74-1.56-27.45-2.12-41.21-.29-7-.67-14-1.36-21-.57-5.72-2.4-10.85-3.38-16.51-.43-2.53-.91-5.17-2.44-7.25a4,4,0,0,0-2.48-1.74c-1.49-.21-2.85.93-3.71,2.18-1.64,2.38-2.23,5.3-3.12,8-1.37,4.24-8.21,20.19-14.72,13.14a9.73,9.73,0,0,1-1.92-4.81q-2.94-14.43-6-28.83-1.57-7.41-3.19-14.82c-.46-2.07-.5-8.71-3-9.55-1.36-.46-2.74.73-3.35,2s-.82,2.79-1.65,3.95a4.12,4.12,0,0,1-4.76,1.44c-3.17-1.31-3.17-8.56-3.65-11.39q-1.29-7.74-2.17-15.53c-.16-1.47-3.8-15.64-6.8-7.94-.77,2-2.89,11.36-6.47,6.17-1.68-2.45-1.19-7.93-1.54-10.78-.52-4.39-1.06-8.76-1.6-13.14C770,350,769,341.21,767.92,332.43c-.09-.8-.3-1.75-1.06-2-.94-.34-1.8.65-2.27,1.52-2.72,5-3.75,10.76-4.72,16.39-3.15,18.2-5.5,36.53-8.16,54.8-1.57,10.79.19,24.17-5.4,34-4.08,7.16-8.23,3.26-14.74,1.42C719,435,720.21,448.65,716.12,456.28c-3.51,6.54-11.82,6.53-18,4.44-4.15-1.42-8.29-9.36-12.42-8.92-3.15.33-4.31,4.24-4.66,7.38-2.89,25.7-1.45,52.64-10.76,77.2-9,23.65-24.14,45.07-39.86,64.77-4.22,5.28-9,10.91-15.6,12.23-10.6,2.12-19.41-8.14-22.33-17.35a47.67,47.67,0,0,0-1.85-5.91c-6.62-14.16-11,10.2-14.15,12.93-5.5,4.79-14-1.66-16.39-8.55-1-3-5.52-26.21-11.26-15.86-2.87,5.18-1.72,12.24-2.78,17.82-1.45,7.57-8.49,15.87-15.5,12.67-5.11-2.34-10.2-31.55-17.41-19-1.39,2.41-1.62,5.3-2.5,7.94-1.4,4.22-6.65,8-11,4.79-1.82-1.34-2.78-3.53-3.56-5.65-3.87-10.57-5-21.91-6.18-33.11l-13.14-129c-.4-4-1.81-26.31-8.51-24.08-4.93,1.65-4.74,24.09-5.1,28.7-1.61,20.76-1.41,41.6-2.43,62.38-1.5,30.81-3.78,61.64-9.18,92-2.25,12.6-5.15,25.63-13.08,35.68-4.54,5.75-13.2,11.56-20.76,8.55-8.37-3.33-11.72-14.7-20.39-17.15-7.47-2.11-14.8,3.45-22.46,4.7-5.26.85-10.62-.36-15.95-.34-16.31.08-16.65,16.12-22.41,27.62-3.47,6.93-10.84,13.18-18.31,11.12-17-4.69-8.32-35.61-20.27-45.92a2,2,0,0,0-1.33-.63,1.88,1.88,0,0,0-1.18.69c-4.18,4.3-2.89,12.09-7.27,16.19a2.56,2.56,0,0,1-1.47.8c-1.52.15-2.29-1.77-2.56-3.28-1.32-7.56-2.32-15.19-3-22.84-.3-3.57.32-13-6.07-9.33-1.5.86-2.06,2.69-2.74,4.28a17.85,17.85,0,0,1-4.84,6.56c-10.87-4.72-5.93-20.22-13.38-28.34a3.76,3.76,0,0,0-1.62-1.18c-1.53-.46-3,.88-3.86,2.23-2.3,3.61-3,8-5.07,11.78-1.09,1.95-2.79,3.82-5,4a5.9,5.9,0,0,1-5.3-3.1,17.36,17.36,0,0,1-1.85-6.15c-.75-4.4-8.68-54.1-18-46.51a8.66,8.66,0,0,0-2.35,3.76c-2.68,6.92-.09,21.89-7.42,26.12-5.27,3-12-1.94-13.82-6.76a33.91,33.91,0,0,1-1.67-8.91,345,345,0,0,0-7.2-43.21c-.43-1.87-1.32-4.13-3.23-4.29-2.29-.18-3.39,2.72-3.74,5-1.41,9.17-1.59,18.9-3.6,27.9-1.49,6.63-7.18,8.64-11.21,3.27-3.12-4.13-3.63-10.25-4.07-15.22-2.35-26.22-2.6-52.56-3.31-78.85-.39-14.72-.46-29.46-1.34-44.16-.75-12.68-.91-25.94-3.16-38.38-.28-1.5-.87-3.23-2.33-3.66a3,3,0,0,0-3.21,1.46,8.87,8.87,0,0,0-1.07,3.59c-2.12,14.12-3.28,28.33-5,42.63-1.76,14.52-3,29.09-4.64,43.62q-5.94,52.8-15.39,105.12c-1.07,5.88-3.66,13.15-9.62,13.44-6.46.31-9.51-7.75-10.61-14.12-2.78-16.19-3.71-33.36-8.22-49.12-.41-1.44-1.35-3.19-2.82-2.92a2.69,2.69,0,0,0-1.42,1c-1.78,2-2.57,4.69-3.25,7.29-3.91,15-3.66,29.54-5.32,44.66-1.62,14.65-1.54,29.14-2.22,43.74a11.2,11.2,0,0,1-2.38,7c-1.69,1.87-4.72,2.68-6.8,1.26s-2.44-4.26-3.09-6.69-2.53-5.14-5-4.67c-2.23.41-3.14,3.06-3.59,5.29-2.92,14.4-2.06,28.87-4.23,43.09-1.29,8.45-6.67,17.41-16.27,11.68-3.76-2.24-6.29-6-8.39-9.88a85.77,85.77,0,0,1-5.68-12.73c-1.14-3.24-2.44-6.95-5.63-8.21a4.05,4.05,0,0,0-3.77.27,5.56,5.56,0,0,0-1.5,1.92C-.61,646.93,0,661.14,0,674.19v405.09H1619.28V643.56A27.29,27.29,0,0,1,1610,630.8Z"/><circle class="cls-15" cx="344.48" cy="64.76" r="6.89"/><circle class="cls-16" cx="344.48" cy="64.76" r="14.48"/><path class="cls-17" d="M83.08,75.79a6.9,6.9,0,1,1-6.9-6.9A6.9,6.9,0,0,1,83.08,75.79Z"/><circle class="cls-18" cx="76.18" cy="75.79" r="14.48"/><path class="cls-19" d="M1269.62,131a6.9,6.9,0,1,1-6.9-6.9A6.89,6.89,0,0,1,1269.62,131Z"/><circle class="cls-20" cx="1262.72" cy="131.04" r="14.48"/><path class="cls-21" d="M1515.22,177.63a6.9,6.9,0,1,1-6.9-6.89A6.9,6.9,0,0,1,1515.22,177.63Z"/><circle class="cls-22" cx="1508.32" cy="177.63" r="14.48"/><path class="cls-23" d="M1124.74,101a6.9,6.9,0,1,1-6.89-6.9A6.88,6.88,0,0,1,1124.74,101Z"/><path class="cls-24" d="M1132.32,101a14.48,14.48,0,1,1-14.47-14.48A14.47,14.47,0,0,1,1132.32,101Z"/><path class="cls-25" d="M570.71,245.2a6.9,6.9,0,1,1-6.89-6.9A6.88,6.88,0,0,1,570.71,245.2Z"/><path class="cls-26" d="M578.3,245.2a14.48,14.48,0,1,1-14.48-14.48A14.48,14.48,0,0,1,578.3,245.2Z"/><path class="cls-27" d="M1047.85,267.7a6.9,6.9,0,1,1-6.89-6.89A6.9,6.9,0,0,1,1047.85,267.7Z"/><circle class="cls-28" cx="1040.96" cy="267.7" r="14.48"/><path class="cls-29" d="M191.15,253.23a6.9,6.9,0,1,1-6.9-6.9A6.9,6.9,0,0,1,191.15,253.23Z"/><circle class="cls-30" cx="184.25" cy="253.23" r="14.48"/><circle class="cls-31" cx="456.19" cy="154.02" r="3.45"/><path class="cls-32" d="M463.43,154a7.24,7.24,0,1,1-7.24-7.24A7.24,7.24,0,0,1,463.43,154Z"/><path class="cls-33" d="M508.48,50.28A3.45,3.45,0,1,1,505,46.83,3.46,3.46,0,0,1,508.48,50.28Z"/><path class="cls-34" d="M512.27,50.28A7.24,7.24,0,1,1,505,43,7.24,7.24,0,0,1,512.27,50.28Z"/><circle class="cls-35" cx="704.77" cy="224.28" r="3.45"/><path class="cls-36" d="M712,224.28a7.24,7.24,0,1,1-7.24-7.24A7.24,7.24,0,0,1,712,224.28Z"/><circle class="cls-37" cx="1296.21" cy="29.13" r="3.45"/><path class="cls-38" d="M1303.45,29.13a7.24,7.24,0,1,1-7.24-7.24A7.24,7.24,0,0,1,1303.45,29.13Z"/><circle class="cls-39" cx="1554.16" cy="392.99" r="3.45"/><path class="cls-40" d="M1561.4,393a7.24,7.24,0,1,1-7.24-7.24A7.24,7.24,0,0,1,1561.4,393Z"/><path class="cls-41" d="M1504.88,131a3.45,3.45,0,1,1-3.45-3.45A3.46,3.46,0,0,1,1504.88,131Z"/><path class="cls-42" d="M1508.67,131a7.24,7.24,0,1,1-7.24-7.24A7.24,7.24,0,0,1,1508.67,131Z"/><path class="cls-43" d="M1110.26,65.18a3.45,3.45,0,1,1-3.45-3.45A3.45,3.45,0,0,1,1110.26,65.18Z"/><path class="cls-44" d="M1114.05,65.18a7.24,7.24,0,1,1-7.24-7.24A7.24,7.24,0,0,1,1114.05,65.18Z"/><path class="cls-45" d="M1075.35,79.23a3.45,3.45,0,1,1-3.45-3.44A3.45,3.45,0,0,1,1075.35,79.23Z"/><path class="cls-46" d="M1079.14,79.23A7.24,7.24,0,1,1,1071.9,72,7.24,7.24,0,0,1,1079.14,79.23Z"/><g class="cls-47"><path class="cls-12" d="M408.66,463.26h0A126.61,126.61,0,0,1,379,464.76a106.19,106.19,0,0,1-28.18-6,121.88,121.88,0,0,1-24.87-12.41c-2-1.2-3.81-2.52-5.66-3.85s-3.67-2.68-5.46-4.07-3.53-2.82-5.26-4.27l-5.63-4.61a157.5,157.5,0,0,0-56.61-28.25,142.76,142.76,0,0,0-34.1-4.92c-3-.14-5.94,0-8.93.15s-6,.45-9,.81a88.13,88.13,0,0,0-9,1.5c-3,.55-5.92,1.3-8.68,2.08-11,3.18-20.2,6.81-28,8.45a53.16,53.16,0,0,1-11,1.25,64.7,64.7,0,0,1-11.22-1,100.47,100.47,0,0,1-23.3-7.26c-3.89-1.7-7.74-3.59-11.6-5.65s-7.9-4.36-12-6.72c-8.16-4.72-16.67-9.89-26.25-14.9-4.78-2.5-9.82-5-15.19-7.25-2.67-1.15-5.45-2.23-8.29-3.3s-6-2.06-9.06-2.94A196.07,196.07,0,0,0,0,357v45.7c1.18.16,5.46.3,6.64.52,1.84.33,3.66.74,5.49,1.18s3.89,1.07,5.87,1.7c4,1.25,8,2.74,12.19,4.41,8.31,3.34,17,7.47,26.3,11.69,4.66,2.11,9.45,4.26,14.48,6.33s10.39,4.08,15.87,5.86a149.35,149.35,0,0,0,35.5,7.25,110.63,110.63,0,0,0,19.49-.27,95.55,95.55,0,0,0,19.06-4.06c11.64-3.79,20.51-8.49,28.57-11.57a56.87,56.87,0,0,1,5.88-2,52.13,52.13,0,0,1,6-1.59,56.73,56.73,0,0,1,6.21-1.15,58.62,58.62,0,0,1,6.42-.71,111.25,111.25,0,0,1,26.76,1.41,140.25,140.25,0,0,1,51,19.61c1.88,1.22,3.72,2.39,5.88,3.86s4.15,2.81,6.34,4.12,4.29,2.68,6.55,3.91,4.45,2.51,6.79,3.65a142.25,142.25,0,0,0,29.47,11.27,120.54,120.54,0,0,0,32,3.79A132.41,132.41,0,0,0,410,467.44a2.15,2.15,0,0,0,1.77-2.48A2.63,2.63,0,0,0,408.66,463.26Z"/><path class="cls-12" d="M178.26,328.9c5.2.84,10.19,2.2,15.3,3.33s10.17,2.44,15.27,3.9C219,339,229.38,342.24,240,345.41s21.45,6.26,32.62,8.83A242.15,242.15,0,0,0,307,359.68c23.36,1.89,46.43,0,68.54-3.71s43.51-9.13,64.72-14.67l-.72-2.35c-21.83,3.42-43.69,6.68-65.51,8.12s-43.57,1-64.14-2.76-39.84-11-59.43-19.22c-9.81-4.09-19.72-8.38-30.07-12.47-5.14-2.07-10.46-4-15.87-5.84s-10.75-3.84-16.29-5.33C144.34,288.08,97.2,282,49.69,282.67c-15.49.26-34.16,1.87-49.69,3.74v48.32c16.28-4.19,36.33-8.38,53.5-10.37C94.45,319.66,137.21,320.8,178.26,328.9Z"/></g><circle class="cls-48" cx="177.36" cy="290.63" r="1.95"/><path class="cls-49" d="M181.44,290.63a4.09,4.09,0,1,1-4.08-4.09A4.08,4.08,0,0,1,181.44,290.63Z"/><path class="cls-50" d="M662.46,57.86a1.95,1.95,0,1,1-1.94-1.94A1.94,1.94,0,0,1,662.46,57.86Z"/><path class="cls-51" d="M664.6,57.86a4.09,4.09,0,1,1-4.08-4.08A4.09,4.09,0,0,1,664.6,57.86Z"/><circle class="cls-52" cx="708.22" cy="361.37" r="1.95"/><circle class="cls-53" cx="708.22" cy="361.37" r="4.09"/><path class="cls-54" d="M193.09,154a1.95,1.95,0,1,1-1.94-2A2,2,0,0,1,193.09,154Z"/><path class="cls-55" d="M195.23,154a4.09,4.09,0,1,1-4.08-4.08A4.09,4.09,0,0,1,195.23,154Z"/><circle class="cls-56" cx="940.84" cy="327.19" r="1.95"/><path class="cls-57" d="M944.92,327.19a4.09,4.09,0,1,1-4.08-4.09A4.08,4.08,0,0,1,944.92,327.19Z"/><circle class="cls-58" cx="917.56" cy="302.56" r="1.95"/><circle class="cls-59" cx="917.56" cy="302.56" r="4.09"/></g></g></g></svg>