<svg xmlns="http://www.w3.org/2000/svg" viewBox="0 0 830.27 830.27"><defs><style>.cls-1{fill:none;}.cls-2,.cls-3{fill:#f7436a;}.cls-2{opacity:0.49;}</style></defs><title>Asset 3pink parrot logo</title><g id="Layer_2" data-name="Layer 2"><g id="Layer_1-2" data-name="Layer 1"><rect class="cls-1" width="830.27" height="830.27"/><path class="cls-2" d="M414.2,640.47l-.49-.05h0Z"/><path class="cls-3" d="M533.8,612.67c1.86-1.18,3.68-2.39,5.49-3.62C537.48,610.28,535.66,611.49,533.8,612.67Z"/><path class="cls-3" d="M539.59,608.84c.13-.08.25-.17.37-.26l-.67.47.16-.11Z"/><ellipse class="cls-3" cx="312.39" cy="333.31" rx="25.78" ry="44.84" transform="translate(-105.29 148.31) rotate(-22.97)"/><path class="cls-3" d="M413.46,427.05c3.69-5.54,9.44-7.92,14.78-3.05a39.62,39.62,0,0,1,5,6.15c9.54,13.07,22.7,22.17,37.27,28.19q4.29,1.77,8.72,3.19c1.59.52,8.32,1.37,9.14,2.62a190.23,190.23,0,0,1,17.34,32.78,116,116,0,0,1-19.27,11.36,111.73,111.73,0,0,1-58.86,9.91c-36.86-3.86-25.48-62.09-16.91-85.52A27.67,27.67,0,0,1,413.46,427.05Z"/><path class="cls-3" d="M493.69,304.63a14.6,14.6,0,0,1,5.12-1c5.48.05,10.13,4.3,13.23,9,19.1,29,27.76,62.75,32.45,97.2a265.6,265.6,0,0,1-26.38,156.09c.07-1.82.12-3.63.15-5.45v-.21a151.12,151.12,0,0,0-6.74-47.16,192.35,192.35,0,0,0-7.14-19.32C489.81,460,465.6,433.3,436.52,412.42q-2.77-2-5.56-3.93c-4.9-3.44-10-7-12.85-12.43-4.72-9-.67-18.28,4-26.22,15.88-27,40.69-51,68.7-64C491.75,305.4,492.71,305,493.69,304.63Z"/><path class="cls-3" d="M600.56,511.2a327.26,327.26,0,0,0,15.88-30.54c7.27-16,13.35-32.28,16.65-49.55a185.78,185.78,0,0,0,3-47.94c-.84-12-10.5-32.37.55-41.26a39.55,39.55,0,0,1,17.46-8.08c.77-.15,1.52-.27,2.5-.37A33.43,33.43,0,0,1,684.89,345a126.25,126.25,0,0,1,16.58,23.85,129.7,129.7,0,0,1,13.41,38.83,131.62,131.62,0,0,1,.82,40.82l68-17.11c19.06-4.64,38,8.19,41.53,28.17l.07.37a321.34,321.34,0,0,1-8.1,147.22c-12.56,42.53-79.28,42.05-113.87,43.42-26.6,1-47.81,3.5-69,21.54-16.07,13.67-28.65,30.93-43.43,46-37.54,38.26-90,62.35-143.55,62.79-89,.72-177.61-41.75-233.55-110.72-39.61-48.82-65.3-108.95-76.72-171.47C124.93,432.39,116.9,363.83,97.7,299c-5.9-19.92-18.65-42.35-35.16-55.5C45.35,229.81,24.65,222,11.4,203,6,195.25,1.55,186,.26,175.88c-.12-1,.12-10-.26-10.34,31.1,27.12,73.66,5.67,54.78-10.77C-2,105.37,34.57,49.37,34.57,49.37c18,26.82,134.41,72.5,228.29,72.06,107.74-.51,206,7.93,238,139.27-53.62-46.37-159-52.85-207.73-52.21-83.41,1.09-146.45,49.67-138.66,141.22,6.73,79.17,38.47,157,88.31,217.44a186.6,186.6,0,0,0,13.86,15.06,200.81,200.81,0,0,0,136.2,56.47c47.12.64,99.76-11.88,136.47-42.85A329.88,329.88,0,0,0,600.56,511.2Z"/></g></g></svg>