<svg xmlns="http://www.w3.org/2000/svg" xmlns:xlink="http://www.w3.org/1999/xlink" viewBox="0 0 1619 1080"><defs><style>.cls-1{fill:none;}.cls-125,.cls-132,.cls-2{isolation:isolate;}.cls-3{fill:url(#Degradado_sin_nombre_410);}.cls-4{mix-blend-mode:overlay;font-size:145px;font-family:Muli-Black, Muli Black;letter-spacing:0.02em;}.cls-5{letter-spacing:-0.06em;}.cls-6{letter-spacing:0.02em;}.cls-7{letter-spacing:0.02em;}.cls-8{letter-spacing:-0.02em;}.cls-122,.cls-124,.cls-137,.cls-9{fill:#fff;}.cls-9{opacity:0.06;}.cls-10{opacity:0.45;}.cls-11{fill:#e05079;}.cls-12{opacity:0.49;}.cls-13{fill:#de3e6a;}.cls-14,.cls-15{mix-blend-mode:hard-light;}.cls-14{fill:url(#Degradado_sin_nombre_240);}.cls-15{fill:url(#Degradado_sin_nombre_265);}.cls-16{fill:url(#Degradado_sin_nombre_89);}.cls-118,.cls-134,.cls-141,.cls-145,.cls-147,.cls-17{opacity:0.5;}.cls-18{fill:url(#Degradado_sin_nombre_436);}.cls-19{fill:url(#Degradado_sin_nombre_397);}.cls-118,.cls-134,.cls-141,.cls-145,.cls-147,.cls-149,.cls-150,.cls-20,.cls-26,.cls-29,.cls-32,.cls-35{mix-blend-mode:multiply;}.cls-20{fill:url(#Degradado_sin_nombre_449);}.cls-21{fill:#e1618b;}.cls-22{fill:url(#Degradado_sin_nombre_419);}.cls-23{fill:#c42951;}.cls-24{fill:#ae1142;}.cls-25{fill:url(#Degradado_sin_nombre_305);}.cls-26{fill:url(#Degradado_sin_nombre_447);}.cls-27{fill:url(#Degradado_sin_nombre_305-2);}.cls-28{fill:url(#Degradado_sin_nombre_419-2);}.cls-29{fill:url(#Degradado_sin_nombre_447-2);}.cls-30{fill:url(#Degradado_sin_nombre_305-3);}.cls-31{fill:url(#Degradado_sin_nombre_419-3);}.cls-32{fill:url(#Degradado_sin_nombre_447-3);}.cls-33{fill:url(#Degradado_sin_nombre_419-4);}.cls-34{fill:url(#Degradado_sin_nombre_305-4);}.cls-35{fill:url(#Degradado_sin_nombre_447-4);}.cls-36{fill:url(#Degradado_sin_nombre_419-5);}.cls-37{fill:url(#Degradado_sin_nombre_305-5);}.cls-150,.cls-38,.cls-40{opacity:0.4;}.cls-38{fill:url(#Degradado_sin_nombre_293);}.cls-39,.cls-42{opacity:0.29;}.cls-39{fill:url(#Degradado_sin_nombre_293-2);}.cls-40{fill:url(#Degradado_sin_nombre_293-3);}.cls-116,.cls-41{opacity:0.71;}.cls-41{fill:url(#Degradado_sin_nombre_293-4);}.cls-43{fill:url(#Degradado_sin_nombre_293-5);}.cls-44{fill:url(#Degradado_sin_nombre_293-6);}.cls-45{fill:url(#Degradado_sin_nombre_293-7);}.cls-46{fill:url(#Degradado_sin_nombre_293-8);}.cls-47{fill:url(#Degradado_sin_nombre_293-9);}.cls-48{fill:url(#Degradado_sin_nombre_293-10);}.cls-49{fill:url(#Degradado_sin_nombre_293-11);}.cls-50{fill:url(#Degradado_sin_nombre_293-12);}.cls-51{fill:url(#Degradado_sin_nombre_293-13);}.cls-52{fill:url(#Degradado_sin_nombre_293-14);}.cls-53{fill:url(#Degradado_sin_nombre_293-15);}.cls-54{fill:url(#Degradado_sin_nombre_293-16);}.cls-55{fill:url(#Degradado_sin_nombre_293-17);}.cls-56{fill:url(#Degradado_sin_nombre_293-18);}.cls-57{fill:url(#Degradado_sin_nombre_293-19);}.cls-58{fill:url(#Degradado_sin_nombre_293-20);}.cls-59{fill:url(#Degradado_sin_nombre_293-21);}.cls-60{fill:url(#Degradado_sin_nombre_293-22);}.cls-61{fill:url(#Degradado_sin_nombre_293-23);}.cls-62{fill:url(#Degradado_sin_nombre_293-24);}.cls-63{fill:url(#Degradado_sin_nombre_293-25);}.cls-64{fill:url(#Degradado_sin_nombre_293-26);}.cls-65{fill:url(#Degradado_sin_nombre_293-27);}.cls-66{fill:url(#Degradado_sin_nombre_293-28);}.cls-67{fill:url(#Degradado_sin_nombre_293-29);}.cls-68{fill:url(#Degradado_sin_nombre_381);}.cls-69{fill:url(#Degradado_sin_nombre_381-2);}.cls-70{fill:url(#Degradado_sin_nombre_381-3);}.cls-71{fill:url(#Degradado_sin_nombre_381-4);}.cls-72{fill:url(#Degradado_sin_nombre_381-5);}.cls-151,.cls-73{opacity:0.3;}.cls-73{fill:url(#Degradado_sin_nombre_381-6);}.cls-74{fill:url(#Degradado_sin_nombre_381-7);}.cls-75{fill:url(#Degradado_sin_nombre_381-8);}.cls-76{fill:url(#Degradado_sin_nombre_381-9);}.cls-77{fill:url(#Degradado_sin_nombre_381-10);}.cls-78{fill:url(#Degradado_sin_nombre_381-11);}.cls-79{fill:url(#Degradado_sin_nombre_381-12);}.cls-80{fill:url(#Degradado_sin_nombre_381-13);}.cls-81{fill:url(#Degradado_sin_nombre_381-14);}.cls-82{fill:url(#Degradado_sin_nombre_381-15);}.cls-83{fill:url(#Degradado_sin_nombre_381-16);}.cls-84{fill:url(#Degradado_sin_nombre_381-17);}.cls-85{fill:url(#Degradado_sin_nombre_381-18);}.cls-86{fill:url(#Degradado_sin_nombre_381-19);}.cls-87{fill:url(#Degradado_sin_nombre_381-20);}.cls-88{fill:url(#Degradado_sin_nombre_381-21);}.cls-89{fill:url(#Degradado_sin_nombre_381-22);}.cls-90{fill:url(#Degradado_sin_nombre_381-23);}.cls-91{fill:url(#Degradado_sin_nombre_381-24);}.cls-92{fill:url(#Degradado_sin_nombre_381-25);}.cls-93{fill:url(#Degradado_sin_nombre_381-26);}.cls-94{fill:url(#Degradado_sin_nombre_381-27);}.cls-95{fill:url(#Degradado_sin_nombre_381-28);}.cls-96{fill:url(#Degradado_sin_nombre_381-29);}.cls-97{fill:url(#Degradado_sin_nombre_381-30);}.cls-98{fill:url(#Degradado_sin_nombre_381-31);}.cls-99{fill:url(#Degradado_sin_nombre_381-32);}.cls-100{opacity:0.53;}.cls-101{fill:url(#Degradado_sin_nombre_381-33);}.cls-102{fill:url(#Degradado_sin_nombre_381-34);}.cls-103{fill:url(#Degradado_sin_nombre_381-35);}.cls-104{fill:url(#Degradado_sin_nombre_381-36);}.cls-105{fill:url(#Degradado_sin_nombre_381-37);}.cls-106{fill:url(#Degradado_sin_nombre_381-38);}.cls-107{fill:url(#Degradado_sin_nombre_381-39);}.cls-108{fill:url(#Degradado_sin_nombre_381-40);}.cls-109{fill:url(#Degradado_sin_nombre_381-41);}.cls-110{fill:url(#Degradado_sin_nombre_381-42);}.cls-111{fill:url(#Degradado_sin_nombre_381-43);}.cls-112{fill:url(#Degradado_sin_nombre_381-44);}.cls-113{fill:url(#Degradado_sin_nombre_381-45);}.cls-114{fill:url(#Degradado_sin_nombre_381-46);}.cls-115{clip-path:url(#clip-path);}.cls-116{fill:url(#linear-gradient);}.cls-117{fill:#545252;}.cls-118,.cls-149,.cls-150{fill:#777676;}.cls-119{fill:#c6c4c4;}.cls-120{fill:#4c4a4a;}.cls-121,.cls-151{fill:#636262;}.cls-122{opacity:0.33;}.cls-123{fill:#757474;}.cls-124{opacity:0.07;}.cls-125,.cls-126{fill:#f7436a;}.cls-125,.cls-132{opacity:0.49;}.cls-127{fill:url(#linear-gradient-2);}.cls-128{fill:url(#linear-gradient-3);}.cls-129{fill:url(#linear-gradient-4);}.cls-130{fill:url(#linear-gradient-5);}.cls-131{opacity:0.15;}.cls-133,.cls-134{fill:#21100d;}.cls-135{fill:#af908c;}.cls-136{opacity:0.54;}.cls-138{opacity:0.19;}.cls-139,.cls-140,.cls-141{fill:#514f4f;}.cls-140,.cls-142,.cls-143,.cls-146,.cls-151{mix-blend-mode:screen;}.cls-142,.cls-143{opacity:0.79;}.cls-142{fill:url(#linear-gradient-6);}.cls-143{fill:url(#linear-gradient-7);}.cls-144,.cls-145,.cls-146{fill:#564f4f;}.cls-148{fill:#595656;}.cls-149{opacity:0.2;}</style><linearGradient id="Degradado_sin_nombre_410" x1="809.5" y1="851.61" x2="809.5" gradientUnits="userSpaceOnUse"><stop offset="0.27" stop-color="#6082bc"/><stop offset="0.34" stop-color="#5f71b2"/><stop offset="0.53" stop-color="#5d4597"/><stop offset="0.69" stop-color="#5c2987"/><stop offset="0.78" stop-color="#5b1f81"/><stop offset="0.86" stop-color="#5a1872"/><stop offset="1" stop-color="#57054e"/></linearGradient><radialGradient id="Degradado_sin_nombre_240" cx="-3956.17" cy="-380.9" r="389.91" gradientTransform="matrix(-0.37, -0.93, -0.93, 0.37, -1431.21, -2944.42)" gradientUnits="userSpaceOnUse"><stop offset="0.01" stop-color="#005b96" stop-opacity="0"/><stop offset="0.04" stop-color="#0c5c96" stop-opacity="0.05"/><stop offset="0.23" stop-color="#586296" stop-opacity="0.39"/><stop offset="0.4" stop-color="#946795" stop-opacity="0.65"/><stop offset="0.54" stop-color="#bf6b95" stop-opacity="0.84"/><stop offset="0.65" stop-color="#da6d95" stop-opacity="0.96"/><stop offset="0.72" stop-color="#e46e95"/><stop offset="0.74" stop-color="#e6789b"/><stop offset="0.79" stop-color="#ea8ea8"/><stop offset="0.85" stop-color="#ed9fb2"/><stop offset="0.91" stop-color="#eea8b7"/><stop offset="1" stop-color="#efabb9"/></radialGradient><radialGradient id="Degradado_sin_nombre_265" cx="-4738.66" cy="-811.22" r="241.82" gradientTransform="matrix(-0.37, -0.93, -0.93, 0.37, -1184.77, -3617.45)" gradientUnits="userSpaceOnUse"><stop offset="0.01" stop-color="#8c8f17" stop-opacity="0"/><stop offset="0.16" stop-color="#7d8e46" stop-opacity="0.28"/><stop offset="0.35" stop-color="#6c8c7a" stop-opacity="0.58"/><stop offset="0.52" stop-color="#5f8ba0" stop-opacity="0.81"/><stop offset="0.64" stop-color="#588ab7" stop-opacity="0.95"/><stop offset="0.72" stop-color="#558ac0"/><stop offset="0.76" stop-color="#6f97c8"/><stop offset="0.81" stop-color="#85a3ce"/><stop offset="0.86" stop-color="#96acd3"/><stop offset="0.92" stop-color="#9fb0d6"/><stop offset="1" stop-color="#a2b2d7"/></radialGradient><linearGradient id="Degradado_sin_nombre_89" x1="809.64" y1="842.92" x2="809.64" y2="420.25" gradientUnits="userSpaceOnUse"><stop offset="0.37" stop-color="#c5616e"/><stop offset="0.54" stop-color="#c6405f"/><stop offset="0.68" stop-color="#c72954"/><stop offset="0.78" stop-color="#c72150"/></linearGradient><linearGradient id="Degradado_sin_nombre_436" x1="809.64" y1="1079.28" x2="809.64" y2="330.33" gradientUnits="userSpaceOnUse"><stop offset="0.37" stop-color="#cf3c51"/><stop offset="0.39" stop-color="#cb394f"/><stop offset="0.52" stop-color="#b32943"/><stop offset="0.67" stop-color="#a21d3b"/><stop offset="0.82" stop-color="#971636"/><stop offset="1" stop-color="#941434"/></linearGradient><linearGradient id="Degradado_sin_nombre_397" x1="-0.28" y1="899.08" x2="2438.32" y2="899.08" gradientUnits="userSpaceOnUse"><stop offset="0.37" stop-color="#de3e6a"/><stop offset="0.64" stop-color="#db3c67"/><stop offset="0.84" stop-color="#d2345e"/><stop offset="1" stop-color="#c42951"/></linearGradient><linearGradient id="Degradado_sin_nombre_449" x1="251.71" y1="790.76" x2="476.81" y2="790.76" gradientUnits="userSpaceOnUse"><stop offset="0.56" stop-color="#d74278"/><stop offset="0.62" stop-color="#d74278" stop-opacity="0.98"/><stop offset="0.68" stop-color="#d84378" stop-opacity="0.94"/><stop offset="0.73" stop-color="#d84479" stop-opacity="0.85"/><stop offset="0.78" stop-color="#d94579" stop-opacity="0.74"/><stop offset="0.83" stop-color="#db477a" stop-opacity="0.59"/><stop offset="0.88" stop-color="#dc4a7b" stop-opacity="0.4"/><stop offset="0.92" stop-color="#de4d7c" stop-opacity="0.19"/><stop offset="0.96" stop-color="#e04f7d" stop-opacity="0"/></linearGradient><linearGradient id="Degradado_sin_nombre_419" x1="292.41" y1="730.45" x2="385.19" y2="730.45" gradientUnits="userSpaceOnUse"><stop offset="0" stop-color="#a61030"/><stop offset="0.84" stop-color="#c42951"/></linearGradient><linearGradient id="Degradado_sin_nombre_305" x1="250.7" y1="766.02" x2="395.18" y2="766.02" gradientUnits="userSpaceOnUse"><stop offset="0" stop-color="#e46a86"/><stop offset="0.04" stop-color="#e36685"/><stop offset="0.24" stop-color="#e15980"/><stop offset="0.49" stop-color="#e0517e"/><stop offset="0.97" stop-color="#e04f7d"/></linearGradient><linearGradient id="Degradado_sin_nombre_447" x1="577.86" y1="929.07" x2="765.21" y2="929.07" gradientUnits="userSpaceOnUse"><stop offset="0.54" stop-color="#d74278"/><stop offset="0.59" stop-color="#d74278" stop-opacity="0.98"/><stop offset="0.65" stop-color="#d84378" stop-opacity="0.92"/><stop offset="0.71" stop-color="#d94479" stop-opacity="0.82"/><stop offset="0.77" stop-color="#da467a" stop-opacity="0.68"/><stop offset="0.83" stop-color="#dc497b" stop-opacity="0.49"/><stop offset="0.89" stop-color="#de4b7c" stop-opacity="0.27"/><stop offset="0.95" stop-color="#e04f7d" stop-opacity="0.01"/><stop offset="0.96" stop-color="#e04f7d" stop-opacity="0"/></linearGradient><linearGradient id="Degradado_sin_nombre_305-2" x1="576.47" y1="903.8" x2="677.01" y2="903.8" xlink:href="#Degradado_sin_nombre_305"/><linearGradient id="Degradado_sin_nombre_419-2" x1="618.23" y1="869.86" x2="675.43" y2="869.86" xlink:href="#Degradado_sin_nombre_419"/><linearGradient id="Degradado_sin_nombre_447-2" x1="1314.36" y1="800.05" x2="1492.01" y2="800.05" xlink:href="#Degradado_sin_nombre_447"/><linearGradient id="Degradado_sin_nombre_305-3" x1="1313.08" y1="778.17" x2="1405.23" y2="778.17" xlink:href="#Degradado_sin_nombre_305"/><linearGradient id="Degradado_sin_nombre_419-3" x1="1351.36" y1="748.78" x2="1403.78" y2="748.78" xlink:href="#Degradado_sin_nombre_419"/><linearGradient id="Degradado_sin_nombre_447-3" x1="924.23" y1="937" x2="1284.84" y2="937" xlink:href="#Degradado_sin_nombre_447"/><linearGradient id="Degradado_sin_nombre_419-4" x1="983.12" y1="848.78" x2="1128.71" y2="848.78" xlink:href="#Degradado_sin_nombre_419"/><linearGradient id="Degradado_sin_nombre_305-4" x1="917.92" y1="897.69" x2="1135.63" y2="897.69" xlink:href="#Degradado_sin_nombre_305"/><linearGradient id="Degradado_sin_nombre_447-4" x1="802.67" y1="781.94" x2="965.09" y2="781.94" xlink:href="#Degradado_sin_nombre_447"/><linearGradient id="Degradado_sin_nombre_419-5" x1="829.19" y1="742.2" x2="894.76" y2="742.2" xlink:href="#Degradado_sin_nombre_419"/><linearGradient id="Degradado_sin_nombre_305-5" x1="799.82" y1="764.23" x2="897.88" y2="764.23" xlink:href="#Degradado_sin_nombre_305"/><linearGradient id="Degradado_sin_nombre_293" y1="917.64" x2="291.95" y2="917.64" gradientUnits="userSpaceOnUse"><stop offset="0" stop-color="#791b40"/><stop offset="0.84" stop-color="#c42951"/></linearGradient><linearGradient id="Degradado_sin_nombre_293-2" x1="577.86" y1="808.77" x2="745.65" y2="808.77" xlink:href="#Degradado_sin_nombre_293"/><linearGradient id="Degradado_sin_nombre_293-3" x1="753.86" y1="857.2" x2="946.54" y2="857.2" xlink:href="#Degradado_sin_nombre_293"/><linearGradient id="Degradado_sin_nombre_293-4" x1="1061.59" y1="1046.18" x2="1372.01" y2="1046.18" xlink:href="#Degradado_sin_nombre_293"/><linearGradient id="Degradado_sin_nombre_293-5" x1="1454.87" y1="888.05" x2="1618.92" y2="888.05" xlink:href="#Degradado_sin_nombre_293"/><linearGradient id="Degradado_sin_nombre_293-6" x1="166.56" y1="1028.91" x2="201.94" y2="1028.91" xlink:href="#Degradado_sin_nombre_293"/><linearGradient id="Degradado_sin_nombre_293-7" x1="334.64" y1="881.01" x2="354.31" y2="881.01" xlink:href="#Degradado_sin_nombre_293"/><linearGradient id="Degradado_sin_nombre_293-8" x1="395.22" y1="823.11" x2="408.56" y2="823.11" xlink:href="#Degradado_sin_nombre_293"/><linearGradient id="Degradado_sin_nombre_293-9" x1="600.42" y1="770.14" x2="614.61" y2="770.14" xlink:href="#Degradado_sin_nombre_293"/><linearGradient id="Degradado_sin_nombre_293-10" x1="66.65" y1="773.95" x2="83.56" y2="773.95" xlink:href="#Degradado_sin_nombre_293"/><linearGradient id="Degradado_sin_nombre_293-11" x1="466.04" y1="958.76" x2="487.83" y2="958.76" xlink:href="#Degradado_sin_nombre_293"/><linearGradient id="Degradado_sin_nombre_293-12" x1="706.39" y1="867.04" x2="722.85" y2="867.04" xlink:href="#Degradado_sin_nombre_293"/><linearGradient id="Degradado_sin_nombre_293-13" x1="104.73" y1="829.5" x2="121.2" y2="829.5" xlink:href="#Degradado_sin_nombre_293"/><linearGradient id="Degradado_sin_nombre_293-14" x1="756.98" y1="772.18" x2="773.44" y2="772.18" xlink:href="#Degradado_sin_nombre_293"/><linearGradient id="Degradado_sin_nombre_293-15" x1="199.21" y1="779.2" x2="215.67" y2="779.2" xlink:href="#Degradado_sin_nombre_293"/><linearGradient id="Degradado_sin_nombre_293-16" x1="1220.95" y1="805.9" x2="1237.41" y2="805.9" xlink:href="#Degradado_sin_nombre_293"/><linearGradient id="Degradado_sin_nombre_293-17" x1="1101.38" y1="761.63" x2="1117.85" y2="761.63" xlink:href="#Degradado_sin_nombre_293"/><linearGradient id="Degradado_sin_nombre_293-18" x1="1101.38" y1="805.9" x2="1117.85" y2="805.9" xlink:href="#Degradado_sin_nombre_293"/><linearGradient id="Degradado_sin_nombre_293-19" x1="1396.61" y1="851.01" x2="1413.08" y2="851.01" xlink:href="#Degradado_sin_nombre_293"/><linearGradient id="Degradado_sin_nombre_293-20" x1="504.1" y1="848.35" x2="528.86" y2="848.35" xlink:href="#Degradado_sin_nombre_293"/><linearGradient id="Degradado_sin_nombre_293-21" x1="863.75" y1="977.01" x2="905.51" y2="977.01" xlink:href="#Degradado_sin_nombre_293"/><linearGradient id="Degradado_sin_nombre_293-22" x1="1109.61" y1="997.52" x2="1163.18" y2="997.52" xlink:href="#Degradado_sin_nombre_293"/><linearGradient id="Degradado_sin_nombre_293-23" x1="999.42" y1="782.62" x2="1029.37" y2="782.62" xlink:href="#Degradado_sin_nombre_293"/><linearGradient id="Degradado_sin_nombre_293-24" x1="1531.95" y1="796.5" x2="1561.9" y2="796.5" xlink:href="#Degradado_sin_nombre_293"/><linearGradient id="Degradado_sin_nombre_293-25" x1="706.39" y1="975.52" x2="739.32" y2="975.52" xlink:href="#Degradado_sin_nombre_293"/><linearGradient id="Degradado_sin_nombre_293-26" x1="829.61" y1="918.02" x2="858.57" y2="918.02" xlink:href="#Degradado_sin_nombre_293"/><linearGradient id="Degradado_sin_nombre_293-27" x1="1190.01" y1="870.82" x2="1218.98" y2="870.82" xlink:href="#Degradado_sin_nombre_293"/><linearGradient id="Degradado_sin_nombre_293-28" x1="1499.56" y1="975.52" x2="1528.53" y2="975.52" xlink:href="#Degradado_sin_nombre_293"/><linearGradient id="Degradado_sin_nombre_293-29" x1="1289.59" y1="954.08" x2="1318.56" y2="954.08" xlink:href="#Degradado_sin_nombre_293"/><radialGradient id="Degradado_sin_nombre_381" cx="344.48" cy="64.76" r="6.89" gradientUnits="userSpaceOnUse"><stop offset="0" stop-color="#fdff00"/><stop offset="0.25" stop-color="#fee04d" stop-opacity="0.7"/><stop offset="0.52" stop-color="#fec399" stop-opacity="0.4"/><stop offset="0.75" stop-color="#ffadd0" stop-opacity="0.18"/><stop offset="0.91" stop-color="#ff9ff2" stop-opacity="0.05"/><stop offset="1" stop-color="#ff9aff" stop-opacity="0"/></radialGradient><radialGradient id="Degradado_sin_nombre_381-2" cx="344.48" cy="64.76" r="14.48" xlink:href="#Degradado_sin_nombre_381"/><radialGradient id="Degradado_sin_nombre_381-3" cx="76.18" cy="75.79" r="6.89" xlink:href="#Degradado_sin_nombre_381"/><radialGradient id="Degradado_sin_nombre_381-4" cx="76.18" cy="75.79" r="14.48" xlink:href="#Degradado_sin_nombre_381"/><radialGradient id="Degradado_sin_nombre_381-5" cx="1262.72" cy="131.04" r="6.89" xlink:href="#Degradado_sin_nombre_381"/><radialGradient id="Degradado_sin_nombre_381-6" cx="1262.72" cy="131.04" r="14.48" xlink:href="#Degradado_sin_nombre_381"/><radialGradient id="Degradado_sin_nombre_381-7" cx="1508.32" cy="177.63" r="6.89" xlink:href="#Degradado_sin_nombre_381"/><radialGradient id="Degradado_sin_nombre_381-8" cx="1508.32" cy="177.63" r="14.48" xlink:href="#Degradado_sin_nombre_381"/><radialGradient id="Degradado_sin_nombre_381-9" cx="1117.85" cy="100.95" r="6.89" xlink:href="#Degradado_sin_nombre_381"/><radialGradient id="Degradado_sin_nombre_381-10" cx="1117.85" cy="100.95" r="14.48" xlink:href="#Degradado_sin_nombre_381"/><radialGradient id="Degradado_sin_nombre_381-11" cx="563.82" cy="245.2" r="6.89" xlink:href="#Degradado_sin_nombre_381"/><radialGradient id="Degradado_sin_nombre_381-12" cx="563.82" cy="245.2" r="14.48" xlink:href="#Degradado_sin_nombre_381"/><radialGradient id="Degradado_sin_nombre_381-13" cx="1040.96" cy="267.7" r="6.89" xlink:href="#Degradado_sin_nombre_381"/><radialGradient id="Degradado_sin_nombre_381-14" cx="1040.96" cy="267.7" r="14.48" xlink:href="#Degradado_sin_nombre_381"/><radialGradient id="Degradado_sin_nombre_381-15" cx="184.25" cy="253.23" r="6.89" xlink:href="#Degradado_sin_nombre_381"/><radialGradient id="Degradado_sin_nombre_381-16" cx="184.25" cy="253.23" r="14.48" xlink:href="#Degradado_sin_nombre_381"/><radialGradient id="Degradado_sin_nombre_381-17" cx="456.19" cy="154.02" r="3.45" xlink:href="#Degradado_sin_nombre_381"/><radialGradient id="Degradado_sin_nombre_381-18" cx="456.19" cy="154.02" r="7.24" xlink:href="#Degradado_sin_nombre_381"/><radialGradient id="Degradado_sin_nombre_381-19" cx="505.03" cy="50.28" r="3.45" xlink:href="#Degradado_sin_nombre_381"/><radialGradient id="Degradado_sin_nombre_381-20" cx="505.03" cy="50.28" r="7.24" xlink:href="#Degradado_sin_nombre_381"/><radialGradient id="Degradado_sin_nombre_381-21" cx="704.77" cy="224.28" r="3.45" xlink:href="#Degradado_sin_nombre_381"/><radialGradient id="Degradado_sin_nombre_381-22" cx="704.77" cy="224.28" r="7.24" xlink:href="#Degradado_sin_nombre_381"/><radialGradient id="Degradado_sin_nombre_381-23" cx="1296.21" cy="29.13" r="3.45" xlink:href="#Degradado_sin_nombre_381"/><radialGradient id="Degradado_sin_nombre_381-24" cx="1296.21" cy="29.13" r="7.24" xlink:href="#Degradado_sin_nombre_381"/><radialGradient id="Degradado_sin_nombre_381-25" cx="1554.16" cy="392.99" r="3.45" xlink:href="#Degradado_sin_nombre_381"/><radialGradient id="Degradado_sin_nombre_381-26" cx="1554.16" cy="392.99" r="7.24" xlink:href="#Degradado_sin_nombre_381"/><radialGradient id="Degradado_sin_nombre_381-27" cx="1501.43" cy="131.04" r="3.45" xlink:href="#Degradado_sin_nombre_381"/><radialGradient id="Degradado_sin_nombre_381-28" cx="1501.43" cy="131.04" r="7.24" xlink:href="#Degradado_sin_nombre_381"/><radialGradient id="Degradado_sin_nombre_381-29" cx="1106.81" cy="65.18" r="3.45" xlink:href="#Degradado_sin_nombre_381"/><radialGradient id="Degradado_sin_nombre_381-30" cx="1106.81" cy="65.18" r="7.24" xlink:href="#Degradado_sin_nombre_381"/><radialGradient id="Degradado_sin_nombre_381-31" cx="1071.9" cy="79.23" r="3.45" xlink:href="#Degradado_sin_nombre_381"/><radialGradient id="Degradado_sin_nombre_381-32" cx="1071.9" cy="79.23" r="7.24" xlink:href="#Degradado_sin_nombre_381"/><radialGradient id="Degradado_sin_nombre_381-33" cx="835.79" cy="414.52" r="3.45" xlink:href="#Degradado_sin_nombre_381"/><radialGradient id="Degradado_sin_nombre_381-34" cx="835.79" cy="414.52" r="7.24" xlink:href="#Degradado_sin_nombre_381"/><radialGradient id="Degradado_sin_nombre_381-35" cx="177.36" cy="290.63" r="1.95" xlink:href="#Degradado_sin_nombre_381"/><radialGradient id="Degradado_sin_nombre_381-36" cx="177.36" cy="290.63" r="4.09" xlink:href="#Degradado_sin_nombre_381"/><radialGradient id="Degradado_sin_nombre_381-37" cx="660.52" cy="57.86" r="1.95" xlink:href="#Degradado_sin_nombre_381"/><radialGradient id="Degradado_sin_nombre_381-38" cx="660.52" cy="57.86" r="4.09" xlink:href="#Degradado_sin_nombre_381"/><radialGradient id="Degradado_sin_nombre_381-39" cx="708.22" cy="361.37" r="1.95" xlink:href="#Degradado_sin_nombre_381"/><radialGradient id="Degradado_sin_nombre_381-40" cx="708.22" cy="361.37" r="4.09" xlink:href="#Degradado_sin_nombre_381"/><radialGradient id="Degradado_sin_nombre_381-41" cx="191.15" cy="154.02" r="1.95" xlink:href="#Degradado_sin_nombre_381"/><radialGradient id="Degradado_sin_nombre_381-42" cx="191.15" cy="154.02" r="4.08" xlink:href="#Degradado_sin_nombre_381"/><radialGradient id="Degradado_sin_nombre_381-43" cx="940.84" cy="327.19" r="1.95" xlink:href="#Degradado_sin_nombre_381"/><radialGradient id="Degradado_sin_nombre_381-44" cx="940.84" cy="327.19" r="4.09" xlink:href="#Degradado_sin_nombre_381"/><radialGradient id="Degradado_sin_nombre_381-45" cx="917.56" cy="302.56" r="1.95" xlink:href="#Degradado_sin_nombre_381"/><radialGradient id="Degradado_sin_nombre_381-46" cx="917.56" cy="302.56" r="4.09" xlink:href="#Degradado_sin_nombre_381"/><clipPath id="clip-path"><rect class="cls-1" x="436.86" y="997.52" width="315.23" height="82.48"/></clipPath><linearGradient id="linear-gradient" x1="593.85" y1="1274.6" x2="593.85" y2="1008.02" gradientUnits="userSpaceOnUse"><stop offset="0.49" stop-color="#c42951"/><stop offset="0.63" stop-color="#c12850"/><stop offset="0.74" stop-color="#b7264e"/><stop offset="0.84" stop-color="#a5234a"/><stop offset="0.94" stop-color="#8d1f45"/><stop offset="1" stop-color="#791b40"/></linearGradient><linearGradient id="linear-gradient-2" x1="789.9" y1="776.25" x2="799.05" y2="785.4" gradientUnits="userSpaceOnUse"><stop offset="0.37" stop-color="#de3e6a"/><stop offset="0.59" stop-color="#dc3d68" stop-opacity="0.99"/><stop offset="0.75" stop-color="#d73863" stop-opacity="0.97"/><stop offset="0.89" stop-color="#ce315b" stop-opacity="0.94"/><stop offset="1" stop-color="#c42951" stop-opacity="0.9"/></linearGradient><linearGradient id="linear-gradient-3" x1="807.6" y1="796.56" x2="819.15" y2="808.11" xlink:href="#linear-gradient-2"/><linearGradient id="linear-gradient-4" x1="811.86" y1="784.48" x2="832.92" y2="805.54" xlink:href="#linear-gradient-2"/><linearGradient id="linear-gradient-5" x1="747.52" y1="737.21" x2="847.39" y2="837.08" xlink:href="#linear-gradient-2"/><linearGradient id="linear-gradient-6" x1="562.22" y1="672.45" x2="651.67" y2="762.64" gradientUnits="userSpaceOnUse"><stop offset="0" stop-color="#fff"/><stop offset="1" stop-color="#fff" stop-opacity="0"/></linearGradient><linearGradient id="linear-gradient-7" x1="462.81" y1="734.16" x2="523.97" y2="832.94" xlink:href="#linear-gradient-6"/></defs><title>pink parrot about page graphic sarah new</title><g class="cls-2"><g id="Layer_5" data-name="Layer 5"><polygon class="cls-3" points="1618.92 851.61 0 851.61 0 0 1619 0 1618.92 851.61"/><text class="cls-4" transform="translate(289.82 405.47)">PINK <tspan class="cls-5" x="415.13" y="0">P</tspan><tspan class="cls-6" x="506.34" y="0">AR</tspan><tspan class="cls-7" x="727.17" y="0">R</tspan><tspan class="cls-8" x="832.88" y="0">O</tspan><tspan x="946.85" y="0">T</tspan></text><path class="cls-9" d="M0,1079.28V240.66s34-51.84,95.82-79.44C203,113.35,360.05,138,482,171.28c54.86,15,104.81,38.55,160,53,106.06,27.8,223.28,19.95,333.73,3.63s219.52-39.43,331.87-45.38c237.6-12.57,311.77,63.84,311.77,63.84v832.91Z"/><path class="cls-9" d="M0,1079.28V291.81s34-48.67,95.82-74.6c107.16-45,264.23-21.83,386.14,9.45,54.86,14.07,104.81,36.2,160,49.76,106.06,26.11,223.28,18.74,333.73,3.42s219.52-37,331.87-42.62c237.6-11.8,311.77,60,311.77,60v782.11Z"/><g class="cls-10"><path class="cls-11" d="M1103.36,416.65a277.85,277.85,0,0,1,52.84-9.35,309,309,0,0,1,54.41.22c9.09.78,18.14,2.1,27,3.52s17.57,3.14,26.15,4.79c17.15,3.29,33.88,6.36,50.3,7.51,32.54,2.32,66.12-4.44,101.18-9.73,17.53-2.62,35.58-4.81,53.91-4.88s36.95,2.14,53.65,8.49l-.65,2.38c-35.41-2.57-68.24,5.68-102.13,13.85-17,4.05-34.26,8.26-52.33,11a237.13,237.13,0,0,1-55.91,2.56c-18.81-1.57-36.66-5.53-53.81-9.67s-33.69-8.57-50.42-11.61a436.55,436.55,0,0,0-51.17-6.25,522.23,522.23,0,0,0-52.54-.41Z"/></g><g class="cls-12"><path class="cls-13" d="M470.8,501a28.78,28.78,0,0,0,11.95,6.36A45.62,45.62,0,0,0,496.44,509c9.33-.09,18.23-2.54,26.88-6.47,8.67-3.76,17-8.79,25.89-13.78a217.09,217.09,0,0,1,28.11-13.26,161.08,161.08,0,0,1,30.43-8.67,139.16,139.16,0,0,1,16-1.94A130.12,130.12,0,0,1,640,465c10.93.71,21.47,3.22,31.53,6.13s19.59,6.7,28.92,10.15,18.39,6.83,27.46,9.26a160.72,160.72,0,0,0,27.68,5c18.83,1.72,38.11.44,57.18-2.74,9.55-1.61,19-3.92,28.43-6.47s18.79-5.6,28.09-8.92C888,470.9,906.34,463,925,455.63a2.26,2.26,0,0,1,2,4A540.54,540.54,0,0,1,874.09,489c-18.38,8.64-37.63,16-57.82,20.74a211.87,211.87,0,0,1-62.21,5.81,173,173,0,0,1-31.46-5,310.25,310.25,0,0,1-29.48-9.68c-18.81-7.11-36.69-14.1-54.83-15.88-18.15-1.95-37,1.21-55.23,6.82a238.32,238.32,0,0,0-27,10.55c-9,4-18.25,8.63-28.34,11.91s-21.11,5.14-31.83,3.75a53.21,53.21,0,0,1-15.63-4.16,33,33,0,0,1-12.89-9.94,2.26,2.26,0,0,1,3.3-3.05Z"/></g><g class="cls-12"><path class="cls-13" d="M963,518.29a28.89,28.89,0,0,0,12,6.36,46,46,0,0,0,13.69,1.67c9.34-.09,18.24-2.54,26.88-6.47,8.67-3.76,17-8.79,25.89-13.78a218.46,218.46,0,0,1,28.11-13.27,161.9,161.9,0,0,1,30.44-8.66,136.71,136.71,0,0,1,16-1.94,130,130,0,0,1,16.27.11c10.93.7,21.47,3.21,31.54,6.13s19.58,6.7,28.91,10.14,18.39,6.84,27.46,9.27a162,162,0,0,0,27.68,5c18.83,1.72,38.12.44,57.19-2.74,9.54-1.61,19-3.92,28.42-6.47s18.79-5.6,28.09-8.92c18.69-6.48,37-14.36,55.71-21.74a2.26,2.26,0,0,1,2,4,542.63,542.63,0,0,1-53,29.32c-18.38,8.63-37.63,16-57.82,20.74a212.2,212.2,0,0,1-62.21,5.81,172.74,172.74,0,0,1-31.45-5c-10.3-2.65-20-6.21-29.49-9.68-18.81-7.12-36.69-14.11-54.83-15.88-18.15-2-37,1.21-55.23,6.82a238.24,238.24,0,0,0-27,10.54c-9,4-18.25,8.63-28.34,11.92s-21.11,5.14-31.82,3.75a53.19,53.19,0,0,1-15.64-4.16,33,33,0,0,1-12.89-10,2.26,2.26,0,0,1,3.31-3Z"/></g><circle class="cls-14" cx="368.44" cy="428.58" r="186.33" transform="translate(-195.14 386.05) rotate(-45)"/><circle class="cls-15" cx="1304.08" cy="389.54" r="115.56" transform="translate(106.51 1036.22) rotate(-45)"/><g class="cls-12"><path class="cls-13" d="M1595.34,288.58a360.14,360.14,0,0,0-64.5-5.56,394.76,394.76,0,0,0-63.56,5.31A361,361,0,0,0,1405.92,304c-5,1.55-9.88,3.69-14.8,5.55s-9.75,3.93-14.46,6.07c-9.46,4.24-18.57,8.69-27.6,12.94-18,8.5-35.85,16.18-54.66,20.16s-38.64,4.88-58.49,3.75-39.83-4.08-59.76-7.21l-.54,2.49c19.46,5.38,39,10.64,59.23,14.1s41,5.09,62.06,3a202.42,202.42,0,0,0,31.12-5.67c10.13-2.64,20-5.8,29.69-9.08s19.15-6.62,28.51-9.59c4.68-1.52,9.33-2.88,14-4.07s9.27-2.63,14-3.51a328.45,328.45,0,0,1,57.12-7.78,355.85,355.85,0,0,1,57.16,1.76A313.61,313.61,0,0,1,1583.64,338,268.08,268.08,0,0,1,1619,351.56V294C1611.6,292.14,1602.78,289.92,1595.34,288.58Z"/></g><path class="cls-16" d="M1615.89,538.21c-1.59-3.51-.87-8.11-3.54-10.85-4.53-4.67-12,1.37-14.59,7.4s-5.33,13.85-11.77,14.16c-10.8.51-11.27-20-21.89-22-8.19-1.62-13.16,8.86-20.36,13.16-14.25,8.52-28.41-7.62-32-20.45-.4-1.45-.78-3-1.93-4-1.49-1.21-3.79-.81-5.3.38a13.25,13.25,0,0,0-3.27,4.73l-8.63,17.55a9.84,9.84,0,0,1-2.76,3.86c-2.62,1.87-6.47.57-8.52-1.93s-2.78-5.81-3.5-9-1.61-6.49-3.86-8.8c-4.5-4.62-12.54-3-17.38,1.22s-7.57,10.41-11.18,15.78c-2,3-4.52,5.88-8,6.61-6.28,1.32-11.42-5.15-13.89-11.17-3.86-9.39-5.57-20-11.81-27.92-1.85-2.35-4.89-4.56-7.54-3.22a6.79,6.79,0,0,0-2.72,3.32c-5.26,10.81-5.09,23.79-10.78,34.38-.63,1.17-1.68,2.47-3,2.18-.88-.2-1.42-1.1-1.83-1.92-3.75-7.52-5.72-15.8-7.48-24a580.33,580.33,0,0,1-9.86-62.46c-.47-4.55-.89-9.16-2.38-13.47-.38-1.11-1-2.36-2.16-2.52s-2.22,1.05-2.86,2.15c-3.45,6-5.3,12.77-7.54,19.33-5.92,17.32-15,40.25-31.57,49.67-4,2.26-9.19,3.73-12.86,1a11,11,0,0,1-3.25-4.45c-3-6.7-2.7-14.49-5.24-21.39a6.58,6.58,0,0,0-2.59-3.66c-3.1-1.74-6.53,1.57-8.57,4.51L1281,498.67c-2,2.83-5,6-8.19,4.76-1.54-.61-2.52-2.13-3.35-3.58-9.35-16.38-13.36-35.29-20.46-52.8-1.17-2.88-3.29-6.25-6.32-5.78-1.92.31-3.23,2.1-4.22,3.8-6.92,11.92-9.45,27-19.93,35.84a6.13,6.13,0,0,1-3.24,1.68c-2.45.23-4.35-2.11-5.47-4.34a30.33,30.33,0,0,1-3-10.15c-1.47-12.81-3.49-23.73-5.64-36.44-.77-4.54-2.3-9.92-6.66-11.18a8,8,0,0,0-7.37,2.18,19.83,19.83,0,0,0-4.34,6.8c-6,13.73-7.61,29-11,43.6-.7,3.06-1.61,6.31-4,8.26s-6.76,1.6-7.79-1.35c-.32-.94-.27-2-.58-2.91s-1.22-1.83-2.15-1.55c-.66.2-1,.9-1.34,1.53q-1.9,4-3.83,7.95a13.6,13.6,0,0,1-3.29,4.85c-1.52,1.23-3.86,1.66-5.4.44a6.66,6.66,0,0,1-1.61-2.25q-4.95-9.54-9.42-19.34c-1.23-2.71-2.47-5.49-4.52-7.62s-5.12-3.51-7.94-2.71c-3.64,1-5.49,5-6.88,8.59q-4,10.26-8,20.5c-2.38,6.07-4.84,12.28-9.14,17.13-1.36,1.53-3.09,3-5.11,3-4.82,0-5.87-7.39-10-9.88-2.7-1.62-6.29-.77-8.74,1.2s-4,4.87-5.41,7.71c-1.87,3.75-3.82,7.46-5.67,11.23-1.35,2.73-2.63,5.5-3.8,8.32-7.35-19-10.52-41.26-20.62-59.14-6.09-10.8-19.32-20.79-29.66-14.13-3.49,2.25-5.75,6-7.89,9.55l-24.48,41c-2.73,4.58-5.89,9.51-10.91,11.12s-11.79-2.73-10.31-7.88c-7.11,4.74-9.11,14.18-11.73,22.41s-8.16,17.27-16.66,17.27l-10.17-80.81L882.5,532.26c-.87,1.81-1.82,3.71-3.46,4.82-4.94,3.36-11-2.44-13.6-7.87-4.1-8.58-6.52-18.14-12.34-25.63s-16.79-12.21-24.66-7c-3,2-5.22,5.13-8.6,6.2-4.35,1.37-9-1.28-12.21-4.53-11.68-11.69-13-30.34-21.53-44.57-4.32-7.21-14.43-13.39-20.25-7.38-2.06,2.12-2.82,5.2-3.4,8.12-4.35,22-4.39,46.32-18.2,63.77a10.84,10.84,0,0,1-3.84,3.39c-7.23,3.22-11.83-7.84-13.24-15.74a78.69,78.69,0,0,0-12.31-30.33c-1.34-2-3.24-4.1-5.57-3.76s-3.53,2.81-4.4,5c-2.89,7.18-15.24,55.06-22.41,54.9-3.31-.07-5.55-3.51-6.42-6.75s-1.06-6.81-3-9.55a4.41,4.41,0,0,0-3.69-2.15c-4.44.36-2.82,8.39-6.43,11-2.3,1.68-5.78.12-7.12-2.42s-1.13-5.61-.76-8.47c2.68-20.72-5.36-44.8-7.4-65.58-.24-2.47-1.86-5.81-4.06-4.74a3.89,3.89,0,0,0-1.63,2.5c-5.57,17.23-7.22,34.63-10.77,52.07-3.19,15.75-4.81,30.79-12.37,45.37-1.81,3.48-5.24,6.11-8.94,3a10.54,10.54,0,0,1-3-5.49c-.55-2-.83-4.18-1.57-6.17-2.3-6.17-7.23-8.21-12.54-3.93-4.93,4-9.07,9.12-14.75,11.86s-13.86,1.87-16.49-3.94c-1.59-3.51-.87-8.11-3.54-10.85-4.53-4.67-12,1.37-14.58,7.4s-5.34,13.85-11.78,14.16c-10.8.51-11.26-20-21.89-22-8.19-1.62-13.16,8.86-20.35,13.16-14.25,8.52-28.41-7.62-32-20.45-.4-1.45-.77-3-1.93-4-1.49-1.21-3.79-.81-5.3.38a13.25,13.25,0,0,0-3.27,4.73q-4.31,8.78-8.63,17.55a9.84,9.84,0,0,1-2.76,3.86c-2.62,1.87-6.47.57-8.52-1.93s-2.78-5.81-3.5-9-1.6-6.49-3.86-8.8c-4.5-4.62-12.53-3-17.38,1.22s-7.57,10.41-11.18,15.78c-2,3-4.52,5.88-8,6.61-6.28,1.32-11.42-5.15-13.89-11.17-3.86-9.39-5.57-20-11.81-27.92-1.84-2.35-4.89-4.56-7.54-3.22A6.79,6.79,0,0,0,347.2,507c-5.26,10.81-5.09,23.79-10.77,34.38-.63,1.17-1.69,2.47-3,2.18-.89-.2-1.43-1.1-1.84-1.92-3.75-7.52-5.72-15.8-7.48-24a580.33,580.33,0,0,1-9.86-62.46c-.47-4.55-.89-9.16-2.37-13.47-.39-1.11-1-2.36-2.17-2.52s-2.22,1.05-2.86,2.15c-3.45,6-5.3,12.77-7.54,19.33-5.92,17.32-15,40.25-31.57,49.67-4,2.26-9.19,3.73-12.86,1a11,11,0,0,1-3.25-4.45c-3-6.7-2.69-14.49-5.24-21.39a6.58,6.58,0,0,0-2.59-3.66c-3.1-1.74-6.52,1.57-8.57,4.51l-8.57,12.31c-2,2.83-5,6-8.19,4.76-1.54-.61-2.51-2.13-3.35-3.58-9.35-16.38-13.36-35.29-20.46-52.8-1.17-2.88-3.29-6.25-6.32-5.78-1.92.31-3.23,2.1-4.21,3.8-6.93,11.92-9.46,27-19.93,35.84a6.15,6.15,0,0,1-3.25,1.68c-2.45.23-4.35-2.11-5.47-4.34a30.32,30.32,0,0,1-3-10.15c-1.48-12.81-3.49-23.73-5.65-36.44-.76-4.54-2.3-9.92-6.66-11.18-2.57-.74-5.39.35-7.37,2.18a19.66,19.66,0,0,0-4.33,6.8c-6,13.73-7.62,29-11,43.6-.69,3.06-1.61,6.31-4,8.26s-6.76,1.6-7.78-1.35c-.33-.94-.28-2-.58-2.91s-1.23-1.83-2.16-1.55c-.66.2-1,.9-1.34,1.53q-1.9,4-3.83,7.95a13.6,13.6,0,0,1-3.29,4.85c-1.52,1.23-3.86,1.66-5.39.44A6.53,6.53,0,0,1,87.52,488q-5-9.54-9.42-19.34c-1.24-2.71-2.48-5.49-4.53-7.62s-5.12-3.51-7.94-2.71c-3.64,1-5.49,5-6.88,8.59q-4,10.26-8,20.5c-2.38,6.07-4.84,12.28-9.14,17.13-1.36,1.53-3.09,3-5.11,3-4.82,0-5.87-7.39-10-9.88-2.69-1.62-6.29-.77-8.74,1.2s-4,4.87-5.41,7.71c-1.87,3.75-3.82,7.46-5.67,11.23-1.51,3.05-2.95,6.14-4.22,9.31-.66,1.63-1.31,3.28-1.91,4.93a8.7,8.7,0,0,0-.46,2.3c-.06.84,0,1.69,0,2.54v306H1619.28V542A8.49,8.49,0,0,1,1615.89,538.21Z"/><g class="cls-17"><path class="cls-13" d="M1019.42,387c-23.86.17-46.7-5.28-69.13-12.1l-33.85-10.72c-11.38-3.6-23-7.11-35-9.81a294.75,294.75,0,0,0-146.9,4.47c-11.85,3.48-23.34,7.55-34.57,11.78l-33,13c-5.29,2.07-10.55,4.09-15.82,6l13.79,15.82H632.6L626,398a216.87,216.87,0,0,1-24.39,5.56l-.1,0a103.21,103.21,0,0,1-17.81,1.53c-11,0-31.06-.2-41.26-2.19v2.59H522.26l-8.81-11c-13.44-5.28-23-10.42-38-21.24-2.82-2-3.61-1.25-3-.32l3,4.18c14.24,16.39,33.57,29,54.77,37.2a159.94,159.94,0,0,0,36.38,9.13,163.78,163.78,0,0,0,37.94.43c25.22-2.52,49.08-10,71.54-18.32,11.29-4.12,22.28-8.53,33.24-12.64s21.76-8.1,32.67-11.38A307.59,307.59,0,0,1,877.77,372c11.39,1.81,22.86,4.17,34.43,6.7s23.2,5.32,35.09,7.45c23.59,4.44,48.52,7.13,72.31,2.61Z"/></g><path class="cls-18" d="M1610,630.8a40.76,40.76,0,0,0-1.86-5.49c-6.61-13.14-11,9.48-14.14,12-5.5,4.45-14-1.53-16.39-7.93-1-2.78-5.52-24.32-11.26-14.71-2.87,4.8-1.72,11.35-2.78,16.53-1.45,7-8.49,14.73-15.5,11.75-5.11-2.16-10.2-29.27-17.41-17.61-1.39,2.23-1.62,4.91-2.5,7.36-1.4,3.92-6.65,7.41-11,4.45-1.82-1.24-2.78-3.27-3.56-5.24-3.87-9.82-5-20.34-6.18-30.74L1494.3,481.46c-.4-3.71-1.81-24.42-8.52-22.34-4.92,1.52-4.74,22.35-5.09,26.63-1.61,19.26-1.41,38.6-2.43,57.89-1.5,28.59-3.78,57.2-9.18,85.4-2.25,11.7-5.15,23.8-13.08,33.12-4.54,5.34-13.2,10.73-20.76,7.94-8.37-3.1-11.72-13.65-20.39-15.92-7.47-2-14.8,3.2-22.46,4.36-5.26.79-10.62-.34-16-.31-16.31.07-16.65,15-22.41,25.63-3.47,6.43-10.84,12.23-18.31,10.32-17-4.36-8.32-33-20.27-42.62a2.07,2.07,0,0,0-1.33-.58,2,2,0,0,0-1.18.63c-4.18,4-2.89,11.23-7.27,15a2.65,2.65,0,0,1-1.47.74c-1.52.13-2.3-1.64-2.56-3q-2-10.53-3-21.2c-.3-3.31.32-12-6.07-8.65-1.5.79-2.06,2.5-2.74,4a16.65,16.65,0,0,1-4.84,6.08c-10.87-4.37-5.93-18.76-13.38-26.29a3.75,3.75,0,0,0-1.62-1.1c-1.53-.43-3,.81-3.86,2.06-2.3,3.36-3,7.47-5.07,10.94-1.09,1.81-2.79,3.55-5,3.74a6,6,0,0,1-5.29-2.87,15.33,15.33,0,0,1-1.85-5.72c-.75-4.07-8.68-50.2-18-43.16a8.08,8.08,0,0,0-2.35,3.49c-2.68,6.43-.09,20.32-7.42,24.24-5.27,2.82-12-1.8-13.82-6.27a29.52,29.52,0,0,1-1.67-8.27,299.31,299.31,0,0,0-7.2-40.1c-.44-1.74-1.32-3.83-3.23-4-2.29-.17-3.39,2.52-3.74,4.63-1.41,8.51-1.59,17.54-3.61,25.89-1.48,6.16-7.17,8-11.21,3-3.11-3.84-3.62-9.52-4.06-14.12-2.35-24.34-2.6-48.78-3.31-73.19-.39-13.66-.46-27.33-1.34-41-.75-11.76-.91-24.07-3.16-35.61-.28-1.4-.87-3-2.33-3.4a3.13,3.13,0,0,0-3.21,1.35,7.82,7.82,0,0,0-1.07,3.33c-2.12,13.11-3.28,26.3-5,39.57-1.76,13.47-3,27-4.64,40.48q-5.94,49-15.39,97.56c-1.07,5.45-3.66,12.2-9.62,12.47-6.46.29-9.51-7.19-10.61-13.11-2.78-15-3.71-31-8.22-45.59-.41-1.32-1.35-3-2.82-2.7a2.74,2.74,0,0,0-1.42.89c-1.78,1.87-2.57,4.35-3.25,6.77-3.91,13.93-3.66,27.41-5.33,41.44-1.61,13.6-1.53,27-2.21,40.6a9.92,9.92,0,0,1-2.38,6.51c-1.69,1.73-4.72,2.49-6.8,1.17s-2.44-4-3.09-6.21-2.53-4.77-5-4.34c-2.23.39-3.14,2.85-3.59,4.91-2.26,10.35-2.27,20.74-3.16,31-2.44-.26-4.74-.35-6.45-.44-7.77-.37-12.87-8.49-14.52-16.09-1.29-6-1.24-12.07-1.94-18.11a8.66,8.66,0,0,0-.79-3.19,3,3,0,0,0-2.63-1.7c-7,.42-4.1,18.77-13.31,20.21-11.55,1.79-9.52-19.09-11.21-25.39a8.71,8.71,0,0,0-1.75-3.75,3.18,3.18,0,0,0-3.78-.8,4.57,4.57,0,0,0-1.62,2.32c-2.09,5-5.14,14-12.38,12.81-3.65-.58-6-4.1-7.68-7.4-18.67-37.33-13.6-82-14.7-122.31-.07-2.57-1.85-17.34-7-14a4.7,4.7,0,0,0-1.62,3.12c-6.29,28.89-6.73,59-12.92,88.22-2,9.29-4,18.64-7.56,27.44-1.12,2.75-2.53,5.59-5,7.18-4.29,2.72-10.3.6-13.55-3.3s-4.43-9.07-5.51-14c-1-4.46-2.15-8.93-2.92-13.43-.7-4.11-.64-8.13-2.62-12a2.92,2.92,0,0,0-1.61-1.66c-1.36-.36-2.45,1.13-3,2.42-2.2,5.17-8.71,38.94-20.62,26.82-1.64-1.67-2.43-4-3.13-6.21A260.36,260.36,0,0,1,876,555.15c-.22-1.71-1.59-4-3-3a2.43,2.43,0,0,0-.78,1.27,14.1,14.1,0,0,1-1.81,4c-5.42,7.08-7.44-6.9-7.87-9.76-.73-4.87-1.06-11.52-6-14.19-1.56-.86-3.44-1.28-4.6-2.62a8,8,0,0,1-1.44-4.55c-1-13.74-1.56-27.45-2.12-41.21-.29-7-.67-14-1.36-21-.57-5.72-2.4-10.85-3.38-16.51-.43-2.53-.91-5.17-2.44-7.25a4,4,0,0,0-2.48-1.74c-1.49-.21-2.85.93-3.71,2.18-1.64,2.38-2.23,5.3-3.12,8-1.37,4.24-8.21,20.19-14.72,13.14a9.73,9.73,0,0,1-1.92-4.81q-2.94-14.43-6-28.83-1.57-7.41-3.19-14.82c-.46-2.07-.5-8.71-3-9.55-1.36-.46-2.74.73-3.35,2s-.82,2.79-1.65,3.95a4.12,4.12,0,0,1-4.76,1.44c-3.17-1.31-3.17-8.56-3.65-11.39q-1.29-7.74-2.17-15.53c-.16-1.47-3.8-15.64-6.8-7.94-.77,2-2.89,11.36-6.47,6.17-1.68-2.45-1.19-7.93-1.54-10.78-.52-4.39-1.06-8.76-1.6-13.14C770,350,769,341.21,767.92,332.43c-.09-.8-.3-1.75-1.06-2-.94-.34-1.8.65-2.27,1.52-2.72,5-3.75,10.76-4.72,16.39-3.15,18.2-5.5,36.53-8.16,54.8-1.57,10.79.19,24.17-5.4,34-4.08,7.16-8.23,3.26-14.74,1.42C719,435,720.21,448.65,716.12,456.28c-3.51,6.54-11.82,6.53-18,4.44-4.15-1.42-8.29-9.36-12.42-8.92-3.15.33-4.31,4.24-4.66,7.38-2.89,25.7-1.45,52.64-10.76,77.2-9,23.65-24.14,45.07-39.86,64.77-4.22,5.28-9,10.91-15.6,12.23-10.6,2.12-19.41-8.14-22.33-17.35a47.67,47.67,0,0,0-1.85-5.91c-6.62-14.16-11,10.2-14.15,12.93-5.5,4.79-14-1.66-16.39-8.55-1-3-5.52-26.21-11.26-15.86-2.87,5.18-1.72,12.24-2.78,17.82-1.45,7.57-8.49,15.87-15.5,12.67-5.11-2.34-10.2-31.55-17.41-19-1.39,2.41-1.62,5.3-2.5,7.94-1.4,4.22-6.65,8-11,4.79-1.82-1.34-2.78-3.53-3.56-5.65-3.87-10.57-5-21.91-6.18-33.11l-13.14-129c-.4-4-1.81-26.31-8.51-24.08-4.93,1.65-4.74,24.09-5.1,28.7-1.61,20.76-1.41,41.6-2.43,62.38-1.5,30.81-3.78,61.64-9.18,92-2.25,12.6-5.15,25.63-13.08,35.68-4.54,5.75-13.2,11.56-20.76,8.55-8.37-3.33-11.72-14.7-20.39-17.15-7.47-2.11-14.8,3.45-22.46,4.7-5.26.85-10.62-.36-15.95-.34-16.31.08-16.65,16.12-22.41,27.62-3.47,6.93-10.84,13.18-18.31,11.12-17-4.69-8.32-35.61-20.27-45.92a2,2,0,0,0-1.33-.63,1.88,1.88,0,0,0-1.18.69c-4.18,4.3-2.89,12.09-7.27,16.19a2.56,2.56,0,0,1-1.47.8c-1.52.15-2.29-1.77-2.56-3.28-1.32-7.56-2.32-15.19-3-22.84-.3-3.57.32-13-6.07-9.33-1.5.86-2.06,2.69-2.74,4.28a17.85,17.85,0,0,1-4.84,6.56c-10.87-4.72-5.93-20.22-13.38-28.34a3.76,3.76,0,0,0-1.62-1.18c-1.53-.46-3,.88-3.86,2.23-2.3,3.61-3,8-5.07,11.78-1.09,1.95-2.79,3.82-5,4a5.9,5.9,0,0,1-5.3-3.1,17.36,17.36,0,0,1-1.85-6.15c-.75-4.4-8.68-54.1-18-46.51a8.66,8.66,0,0,0-2.35,3.76c-2.68,6.92-.09,21.89-7.42,26.12-5.27,3-12-1.94-13.82-6.76a33.91,33.91,0,0,1-1.67-8.91,345,345,0,0,0-7.2-43.21c-.43-1.87-1.32-4.13-3.23-4.29-2.29-.18-3.39,2.72-3.74,5-1.41,9.17-1.59,18.9-3.6,27.9-1.49,6.63-7.18,8.64-11.21,3.27-3.12-4.13-3.63-10.25-4.07-15.22-2.35-26.22-2.6-52.56-3.31-78.85-.39-14.72-.46-29.46-1.34-44.16-.75-12.68-.91-25.94-3.16-38.38-.28-1.5-.87-3.23-2.33-3.66a3,3,0,0,0-3.21,1.46,8.87,8.87,0,0,0-1.07,3.59c-2.12,14.12-3.28,28.33-5,42.63-1.76,14.52-3,29.09-4.64,43.62q-5.94,52.8-15.39,105.12c-1.07,5.88-3.66,13.15-9.62,13.44-6.46.31-9.51-7.75-10.61-14.12-2.78-16.19-3.71-33.36-8.22-49.12-.41-1.44-1.35-3.19-2.82-2.92a2.69,2.69,0,0,0-1.42,1c-1.78,2-2.57,4.69-3.25,7.29-3.91,15-3.66,29.54-5.32,44.66-1.62,14.65-1.54,29.14-2.22,43.74a11.2,11.2,0,0,1-2.38,7c-1.69,1.87-4.72,2.68-6.8,1.26s-2.44-4.26-3.09-6.69-2.53-5.14-5-4.67c-2.23.41-3.14,3.06-3.59,5.29-2.92,14.4-2.06,28.87-4.23,43.09-1.29,8.45-6.67,17.41-16.27,11.68-3.76-2.24-6.29-6-8.39-9.88a85.77,85.77,0,0,1-5.68-12.73c-1.14-3.24-2.44-6.95-5.63-8.21a4.05,4.05,0,0,0-3.77.27,5.56,5.56,0,0,0-1.5,1.92C-.61,646.93,0,661.14,0,674.19v405.09H1619.28V643.56A27.29,27.29,0,0,1,1610,630.8Z"/><path class="cls-19" d="M1606.56,733.88c-7.69-9.72-22.54-9.7-34.45-6.27s-23.57,9.4-35.94,8.56c-22.73-1.56-44.05-25.62-64.48-15.55-12.48,6.15-18.4,23.46-32.18,25.4-8.83,1.24-17-4.65-25.76-6.29-21.51-4-43.77,17.61-63.66,8.5-5.8-2.65-10.27-7.62-16-10.45-27.44-13.54-58,28.39-86.65,17.64-6.79-2.55-12.51-7.93-19.68-9-12.48-1.9-24.1,9.83-36.56,7.75-13.92-2.32-23.85-21.09-37.33-16.9-6.18,1.93-9.77,8.13-13.85,13.16s-10.91,9.53-16.67,6.56c-4.12-2.12-5.81-7.22-9.59-9.9-13-9.22-28.33,17.79-43.34,12.38-3.23-1.17-5.79-3.75-9-4.94-4.5-1.65-10.77.1-15.4,3.28-14.56-1.79-29.16-3.5-43.82-3.21-5.66.11-11.42.51-16.9-.92-4.72-1.22-9-3.75-13.71-5.07-22.53-6.35-52.41,25.47-66,6.4-5.33-7.51-16.81-2.7-25.89-1.15-26.06,4.43-49.42-25.35-75.22-19.58-9.42,2.11-19.15,8.84-27.81,4.58-6.46-3.18-9.82-11.77-16.94-12.85s-12.53,5.87-19.19,8.43c-9.43,3.63-19.85-2-30-1.61-10.54.38-19.9,7.2-30.38,8.35-13.86,1.52-26.86-7-40.74-8.32-13.1-1.26-25.85,3.93-38.74,6.58s-27.21,4.79-35.38-5.54c-7.69-9.72-22.53-9.7-34.44-6.27S507.34,737,495,736.17c-22.73-1.56-44.05-25.62-64.48-15.55-12.48,6.15-18.4,23.46-32.18,25.4-8.83,1.24-17-4.65-25.76-6.29-21.51-4-43.77,17.61-63.66,8.5-5.8-2.65-10.27-7.62-16-10.45-27.45-13.54-58,28.39-86.65,17.64-6.79-2.55-12.51-7.93-19.68-9-12.48-1.9-24.1,9.83-36.56,7.75-13.93-2.32-23.85-21.09-37.33-16.9-6.19,1.93-9.78,8.13-13.86,13.16S87.91,759.94,82.15,757c-4.11-2.12-5.81-7.22-9.58-9.9-13-9.22-28.33,17.79-43.34,12.38-3.23-1.17-5.8-3.75-9-4.94-6.44-2.37-16.49,2.21-20.19,8,0,0-.3,274.93-.3,317.49H1619l.28-338.89A19.77,19.77,0,0,1,1606.56,733.88Z"/><ellipse class="cls-20" cx="364.26" cy="790.76" rx="112.55" ry="17.33"/><path class="cls-21" d="M398.07,724.62c-.32-1.22-1.72-1.74-2.93-2.07-15.83-4.41-33.58-2.37-50-2.26-9,.07-18.08.4-27.12.63-8.38.22-17.56-1-25.8.26-.93.14-2.1.67-1.95,1.59.11.69.93,1,1.27,1.64a1.72,1.72,0,0,1-.31,1.9,3.65,3.65,0,0,1-1.75,1c-2.73.81-10.91-1.9-12.1,2.31a3.91,3.91,0,0,0-.15,1.08c0,2.64,3.08,4,5.64,4.68a219.24,219.24,0,0,0,60.57,6.77c.71,0,1.56-.13,1.85-.78s-.11-1.24-.19-1.87c-.28-2.15,2.53-3.18,4.68-3.43l25.07-3c4.67-.55,10.07-.51,14.85-1.83a16.74,16.74,0,0,0,6.91-3.6C397.52,726.87,398.37,725.76,398.07,724.62Z"/><path class="cls-22" d="M319.58,736.69q-4.68-.42-9.33-1.09c-3.41-.49-6.72-.89-10.12-1.21-2.25-.21-5.66-.32-7.33-2.09s3-1.85,2.94-4.42.2-3.06,3.1-3.39a58.25,58.25,0,0,1,9.71.1c3.71.19,7.61-.5,11.33-.65q7.15-.3,14.32-.17c4.26.07,8.21-.31,12.4-.47a292.8,292.8,0,0,1,29.48.4c1.94.12,6.89-.41,8.41.95,2.32,2.09-1.79,3-3.17,3.3-5.64,1.38-11.48,1.53-17.22,2.25s-11.16,2.1-16.69,3.25a19.28,19.28,0,0,0-5.23,1.63c-1.09.59-2.08,1.37-3.21,1.87-3.81,1.68-9.67.4-13.71.16Q322.41,736.95,319.58,736.69Z"/><path class="cls-23" d="M339.16,782a20.73,20.73,0,0,0,2.27,6.88,8.56,8.56,0,0,0,1.42,1.77c1.25-1.36,1.41-3.36,1.5-5.21.8-15.54,2-30.59,5.84-45.75a7.64,7.64,0,0,0,.38-3.67l-.76.09c-2.15.25-5,1.28-4.68,3.43.08.63.45,1.29.19,1.87s-1.14.76-1.85.78c-4.29.13-8.59.09-12.89,0,.16,1.51.57,3.1.88,4.84C333.57,758.65,336.81,770.26,339.16,782Z"/><path class="cls-24" d="M426.25,788a10.74,10.74,0,0,0-1.9-4.9c-9.93-17.11-26.28-58.52-26.28-58.52.3,1.14-.55,2.25-1.43,3a16.74,16.74,0,0,1-6.91,3.6c-4.78,1.32-10.18,1.28-14.85,1.83l-14.37,1.7c2.06,13.69,4.17,27.39,7,40.92a1.4,1.4,0,0,0,.6,1,1.23,1.23,0,0,0,1.18-.28c2.55-1.87,3.7-6.62,4.13-9.53.15-1.06.54-2.42,1.6-2.44a1.92,1.92,0,0,1,1.47,1c1.33,1.92,1.65,4.33,2.38,6.55a13.45,13.45,0,0,0,2.38,3.82,2,2,0,0,0,2.07.88,2.43,2.43,0,0,0,1.17-1.71l.9-2.85c.76-.6,1.66.56,1.93,1.49,2.37,8,5.19,16,7.73,24,0,.1.07.19.1.29,5-.71,9.89-1.47,14.88-2.28C414.24,795,426.46,794.61,426.25,788Z"/><path class="cls-23" d="M315,774.53a228.53,228.53,0,0,0-8.07,27.26c3.88.21,7.77.35,11.65.46q-1.11-13-2.24-26C316.25,775.44,315.81,774.31,315,774.53Z"/><path class="cls-23" d="M290.08,770.21a5.92,5.92,0,0,0,2-2.65q6.68-13.84,13.34-27.68-4.58-.68-9.12-1.54l-6.78,29.09C289.26,768.43,289.16,769.74,290.08,770.21Z"/><path class="cls-25" d="M395.08,797.7c-2.54-8-5.36-16-7.73-24-.27-.93-1.17-2.09-1.93-1.49l-.9,2.85a2.43,2.43,0,0,1-1.17,1.71,2,2,0,0,1-2.07-.88,13.45,13.45,0,0,1-2.38-3.82c-.73-2.22-1-4.63-2.38-6.55a1.92,1.92,0,0,0-1.47-1c-1.06,0-1.45,1.38-1.6,2.44-.43,2.91-1.58,7.66-4.13,9.53a1.23,1.23,0,0,1-1.18.28,1.4,1.4,0,0,1-.6-1c-2.86-13.53-5-27.23-7-40.92L350.57,736a7.64,7.64,0,0,1-.38,3.67c-3.79,15.16-5,30.21-5.84,45.75-.09,1.85-.25,3.85-1.5,5.21a8.56,8.56,0,0,1-1.42-1.77,20.73,20.73,0,0,1-2.27-6.88c-2.35-11.7-5.59-23.31-7.7-35-.31-1.74-.72-3.33-.88-4.84a221.47,221.47,0,0,1-25.19-2.23q-6.67,13.83-13.34,27.68a5.92,5.92,0,0,1-2,2.65c-.92-.47-.82-1.78-.59-2.78l6.78-29.09q-6.74-1.27-13.37-3c-2.56-.66-5.66-2-5.64-4.68a3.91,3.91,0,0,1,.15-1.08h0c-.5,0-4.08,16.58-4.62,18.06q-3,8.18-6.6,16.14c-3.94,8.82-7.94,17.07-13.88,24.76-2,2.59-2.69,4.44,1.16,5.64,12.08,3.73,24.7,5.36,37.28,6.45,5.39.47,10.77.84,16.17,1.12A228.53,228.53,0,0,1,315,774.53c.82-.22,1.26.91,1.34,1.75q1.13,13,2.24,26,16.79.45,33.58-.29,15.51-.69,31-2.42c4.07-.46,8.08-1,12.08-1.55C395.15,797.89,395.11,797.8,395.08,797.7Z"/><ellipse class="cls-26" cx="671.54" cy="929.07" rx="93.67" ry="18.54"/><path class="cls-21" d="M686,867.39c-.61-3.48-6.55-4.91-9.4-5.45-10.38-2-21.13-1.67-31.65-1.77-10.86-.1-21.82.14-32.5,2.26-2.12.42-4.65,1.33-5,3.46-.26,1.94,1.59,3.5,3.39,4.27,3.51,1.5,7.47,1.43,11,2.91s6.48,3.69,9.88,5.34c5.32,2.58,11.57,2,17.44,1.27,9.79-1.24,20.37-1.81,29.7-5.29C681.56,873.43,686.66,870.86,686,867.39Z"/><path class="cls-23" d="M648.27,918.87c.55,0,.91-.55,1.13-1,2.07-4.73,1.66-10.22,2-15.39q.66-11.08,1.31-22.17c0-.33,0-.66.05-1l-3.44.41a52.35,52.35,0,0,1-10.07.54c4.86,12,3.25,25.81,8.14,37.69C647.53,918.34,647.81,918.83,648.27,918.87Z"/><path class="cls-23" d="M625.42,919.69c-.13-2.91-.3-6.17-2-8.67-2.1,3.44-2,9-2.84,12.91a129.89,129.89,0,0,1-4.83,17.2c3.29.25,6.58.41,9.88.5Q625.92,930.67,625.42,919.69Z"/><path class="cls-27" d="M673.28,912.68a9.53,9.53,0,0,0-1.61-.43c-1.1-.43-1.42-1.79-1.59-3q-.89-6-1.76-11.94a3.63,3.63,0,0,0-1.22-2.66c-.76-.48-1.76-.32-2.59-.65-1.48-.58-2-2.38-2.23-3.95a80.56,80.56,0,0,1-1-11.82c-2.87.36-5.74.67-8.56,1,0,.33,0,.66-.05,1q-.66,11.09-1.31,22.17c-.3,5.17.11,10.66-2,15.39-.22.5-.58,1.1-1.13,1s-.74-.53-.92-1c-4.89-11.88-3.28-25.66-8.14-37.69a19.78,19.78,0,0,1-7.37-1.81c-3.4-1.65-6.35-3.88-9.88-5.34s-7.52-1.41-11-2.91c-1.8-.77-3.65-2.33-3.39-4.27,0,0-4.79,11.94-5.52,13.47-4.1,8.66-8.46,17.22-13.23,25.54-3.14,5.48-13.12,17.19-12.27,23.7.69,5.28,11.6,7.66,15.92,8.81a125.68,125.68,0,0,0,21.2,3.57l2.1.15a129.89,129.89,0,0,0,4.83-17.2c.8-3.93.74-9.47,2.84-12.91,1.71,2.5,1.88,5.76,2,8.67q.51,11,.2,21.94c10.22.26,20.47-.16,30.67-.63,6.91-.31,13.82-.61,20.72-1.09-2.08-8.24-.31-17.51-2.84-25.78A2.44,2.44,0,0,0,673.28,912.68Z"/><path class="cls-24" d="M704.9,923.37a454.24,454.24,0,0,1-14.75-45.25A101.2,101.2,0,0,0,686,867.39c.62,3.47-4.48,6-7.06,7a79.13,79.13,0,0,1-17.7,3.89,80.56,80.56,0,0,0,1,11.82c.26,1.57.75,3.37,2.23,3.95.83.33,1.83.17,2.59.65a3.63,3.63,0,0,1,1.22,2.66q.88,6,1.76,11.94c.17,1.16.49,2.52,1.59,3a9.53,9.53,0,0,1,1.61.43,2.44,2.44,0,0,1,.89,1.45c2.53,8.27.76,17.54,2.84,25.78q3.42-.23,6.86-.53c5-.45,14.13-.26,19.16-3.79a8.37,8.37,0,0,0,2.6-2.83C707.18,929.91,706.05,926.4,704.9,923.37Z"/><path class="cls-28" d="M620.77,864.62l-.48,0c-.85.06-1.93.31-2,1.15-.1.68.52,1.22,1.08,1.59,5.37,3.56,11.58,4.6,17.52,6.75a35.79,35.79,0,0,0,5.61,1.68c4,.7,8,0,12-.67,3.2-.55,19.47-1.28,20.79-4.22,2.58-5.74-20.85-6.95-24.11-7.12C641,863.28,630.87,863.93,620.77,864.62Z"/><ellipse class="cls-29" cx="1403.19" cy="800.05" rx="88.83" ry="16.06"/><path class="cls-21" d="M1413.52,746.64c-.56-3-6-4.25-8.63-4.72-9.51-1.71-19.36-1.45-29-1.53-10-.09-20,.12-29.78,2-1.94.37-4.27,1.16-4.54,3-.24,1.68,1.46,3,3.11,3.7,3.22,1.3,6.85,1.24,10.11,2.52s5.94,3.2,9.06,4.63c4.87,2.23,10.6,1.74,16,1.1,9-1.08,18.67-1.57,27.23-4.59C1409.41,751.87,1414.08,749.65,1413.52,746.64Z"/><path class="cls-23" d="M1378.89,791.22c.51,0,.84-.47,1-.91,1.9-4.1,1.52-8.84,1.8-13.32l1.2-19.21c0-.28,0-.56,0-.85-1.06.12-2.11.23-3.15.36a51,51,0,0,1-9.23.46c4.45,10.42,3,22.35,7.46,32.64C1378.22,790.76,1378.47,791.19,1378.89,791.22Z"/><path class="cls-23" d="M1358,791.93c-.12-2.52-.27-5.34-1.84-7.5-1.93,3-1.87,7.77-2.61,11.17a105.64,105.64,0,0,1-4.43,14.9q4.53.33,9.06.43Q1358.4,801.44,1358,791.93Z"/><path class="cls-30" d="M1401.81,785.86a8.55,8.55,0,0,0-1.47-.37c-1-.37-1.3-1.55-1.46-2.56-.53-3.44-1.07-6.89-1.61-10.33a3,3,0,0,0-1.12-2.3c-.69-.42-1.61-.29-2.37-.57-1.35-.5-1.81-2.07-2-3.42a66.29,66.29,0,0,1-.92-10.24c-2.63.31-5.26.58-7.85.86,0,.29,0,.57,0,.85l-1.2,19.21c-.28,4.48.1,9.22-1.8,13.32-.2.44-.53,1-1,.91s-.67-.46-.84-.83c-4.48-10.29-3-22.22-7.46-32.64a19,19,0,0,1-6.75-1.56c-3.12-1.43-5.83-3.37-9.06-4.63s-6.89-1.22-10.11-2.52c-1.65-.66-3.35-2-3.11-3.7,0,0-4.39,10.34-5,11.66-3.77,7.51-7.76,14.92-12.13,22.12-2.88,4.75-12,14.89-11.25,20.53.63,4.57,10.63,6.63,14.59,7.63a121.14,121.14,0,0,0,19.43,3.09l1.92.13a105.64,105.64,0,0,0,4.43-14.9c.74-3.4.68-8.19,2.61-11.17,1.57,2.16,1.72,5,1.84,7.5q.46,9.5.18,19c9.37.23,18.76-.13,28.11-.54,6.33-.28,12.67-.53,19-.94-1.9-7.15-.28-15.17-2.6-22.34A2,2,0,0,0,1401.81,785.86Z"/><path class="cls-24" d="M1430.8,795.12a380.17,380.17,0,0,1-13.52-39.19,87.63,87.63,0,0,0-3.76-9.29c.56,3-4.11,5.23-6.47,6.06a76,76,0,0,1-16.23,3.37,66.29,66.29,0,0,0,.92,10.24c.23,1.35.69,2.92,2,3.42.76.28,1.68.15,2.37.57a3,3,0,0,1,1.12,2.3c.54,3.44,1.08,6.89,1.61,10.33.16,1,.46,2.19,1.46,2.56a8.55,8.55,0,0,1,1.47.37,2,2,0,0,1,.82,1.25c2.32,7.17.7,15.19,2.6,22.34,2.1-.14,4.2-.29,6.29-.47,4.6-.39,13-.22,17.57-3.28a7.33,7.33,0,0,0,2.38-2.45C1432.89,800.78,1431.86,797.75,1430.8,795.12Z"/><path class="cls-31" d="M1353.69,744.24l-.45,0c-.77.05-1.76.27-1.87,1s.47,1.05,1,1.37c4.92,3.08,10.61,4,16.06,5.85a33.82,33.82,0,0,0,5.14,1.45c3.63.61,7.36,0,11-.58,2.94-.47,17.84-1.11,19-3.65,2.37-5-19.1-6-22.09-6.17A246,246,0,0,0,1353.69,744.24Z"/><path class="cls-23" d="M943.83,901.44a2.78,2.78,0,0,0,2.14,2.77c1.4.17,2.51-1.1,3.33-2.25a151.78,151.78,0,0,0,23.37-50.84,7.55,7.55,0,0,0-2.24-1.59,13.26,13.26,0,0,0-5.55-.63,37.21,37.21,0,0,1-6.82-.55,152.55,152.55,0,0,1-13.18,49.46A8.48,8.48,0,0,0,943.83,901.44Z"/><path class="cls-23" d="M1029.87,897.53a3.72,3.72,0,0,0,2.18,1.36c1.92.2,3-2.16,3.37-4.06q3.39-15.48,5.54-31.19c-7.79,0-15.56-.22-23.17-.53q1.44,8,3.46,15.9C1023,885.67,1025.15,892.52,1029.87,897.53Z"/><path class="cls-21" d="M1153.73,849.51c-.62-3.84-5.1-7.63-12.73-10-18.85-5.85-39.85-5.72-59.38-6.26L999.76,831c-6.73-.19-28.15-1.38-30.8,7.55-1.34,4.48,7.54,9.2,10.74,10.61a37.65,37.65,0,0,0,15.47,2.94c2.06,0,4.2-.14,6.09.69,2.64,1.16,4.15,3.9,6.08,6,6,6.67,16,7.52,25,7.91,35.36,1.54,76.68,4.44,110.84-6.8C1151.07,857.31,1154.35,853.38,1153.73,849.51Z"/><ellipse class="cls-32" cx="1104.54" cy="937" rx="180.31" ry="30.34"/><path class="cls-33" d="M992.38,844.06a42.05,42.05,0,0,1-9.26-4.76c.17-1.64,2.34-2.08,4-2.08,10.55,0,21.23,1,31.63,1,11.15.23,22.29.51,33.44.78,22.3.55,44.61,1.13,66.91,1.54,2.31.05,4.71.12,6.74,1.23s3.47,3.61,2.62,5.75-3.53,2.94-5.84,3.42c-24.48,5-49.38,10.17-74.52,9.29-12.25-.42-23.75-4.6-35-9.09C1007.16,848.79,999.25,846.77,992.38,844.06Z"/><path class="cls-34" d="M1128.51,930.91c-.36-.84-1-1.81-1.86-1.75-.73.05-1.21.75-1.59,1.39-2.81,4.8-5.33,3.36-7.09-1.09-1.25-3.17-2.38-6-3.7-9.14a.74.74,0,0,0-.31-.42c-.34-.17-.69.23-.85.58-2.13,4.66-1.28,10.48-3.22,15.31-.86,2.15-4.45,6.77-5.93,2.54-1.79-5.08-1.85-11.34-2.72-16.67q-1.53-9.33-3-18.68-2.68-17.52-5-35.08c-4.88.21-9.78.31-14.67.31q-2.37,17.2-6.06,34.2c-.45,2.07-1.59,4.66-3.7,4.44a4.08,4.08,0,0,1-2.39-1.49c-5.17-5.5-7.56-13-9.44-20.3-1.49-5.76-2.74-11.57-3.8-17.42-7.1-.29-14.09-.63-20.85-.93-9-.39-19-1.24-25-7.91-1.24-1.38-2.32-3-3.63-4.3a166.37,166.37,0,0,1-25.61,55.71c-.9,1.26-2.12,2.65-3.65,2.47a3,3,0,0,1-2.34-3,9.13,9.13,0,0,1,1.15-4,167.33,167.33,0,0,0,14.44-54.21,34.38,34.38,0,0,1-8-2.34c-3.2-1.41-12.08-6.13-10.74-10.61-6,11.86-12.54,23.49-19.26,35-9.29,15.86-18.41,31.86-28.68,47a17.7,17.7,0,0,0-2.85,5.5c-1.09,4.44,1.49,9.12,5.08,12,4.57,3.6,10.49,4.89,16.2,6,39.47,7.76,80.49,13.88,120.79,12.8,22.63-.6,45.28-1.21,67.83-3.38,2.52-.24,5-.51,7.56-.79l-3.57-12.92A70.63,70.63,0,0,0,1128.51,930.91Z"/><path class="cls-24" d="M1191.56,929.91c-9.84-15.56-17.58-33.65-25.06-50.48-2.85-6.41-5.68-12.83-8.44-19.28-.37-.87-3.67-10.6-4.33-10.64h0c.62,3.87-2.66,7.8-10.58,10.4-15.57,5.12-32.63,7.28-49.93,8q2.37,17.57,5,35.08,1.44,9.35,3,18.68c.87,5.33.93,11.59,2.72,16.67,1.48,4.23,5.07-.39,5.93-2.54,1.94-4.83,1.09-10.65,3.22-15.31.16-.35.51-.75.85-.58a.74.74,0,0,1,.31.42c1.32,3.1,2.45,6,3.7,9.14,1.76,4.45,4.28,5.89,7.09,1.09.38-.64.86-1.34,1.59-1.39.91-.06,1.5.91,1.86,1.75a70.63,70.63,0,0,1,3.55,8.75l3.57,12.92c8.69-1,17.35-2.21,25.95-3.8,8-1.47,16.09-2.46,23.82-5C1193.87,941,1196.5,937.74,1191.56,929.91Z"/><path class="cls-21" d="M906,742.53c-.27-1.73-2.29-3.44-5.73-4.51-8.49-2.63-17.95-2.57-26.74-2.82l-36.87-1c-3-.08-12.68-.62-13.88,3.4-.6,2,3.4,4.15,4.84,4.78a16.81,16.81,0,0,0,7,1.33,6.47,6.47,0,0,1,2.74.31c1.19.52,1.87,1.76,2.74,2.72,2.71,3,7.21,3.39,11.25,3.57,15.92.69,34.53,2,49.92-3.07C904.83,746,906.31,744.27,906,742.53Z"/><path class="cls-35" d="M965.09,781.94c0,7.54-36.36,13.66-81.21,13.66s-81.21-6.12-81.21-13.66,36.36-13.67,81.21-13.67S965.09,774.39,965.09,781.94Z"/><path class="cls-36" d="M833.36,740.08a19.39,19.39,0,0,1-4.17-2.15c.08-.74,1.06-.94,1.8-.94,4.76,0,9.57.46,14.25.46,5,.1,10,.23,15.06.35,10.05.25,20.09.51,30.14.7a6.35,6.35,0,0,1,3,.55,2.21,2.21,0,0,1,1.18,2.59c-.39,1-1.59,1.32-2.63,1.54-11,2.27-22.24,4.58-33.56,4.18-5.52-.19-10.7-2.07-15.77-4.09C840,742.2,836.46,741.29,833.36,740.08Z"/><path class="cls-23" d="M824.23,769.61a1.37,1.37,0,0,0,1.06,1.37c.69.08,1.24-.54,1.64-1.11a75.11,75.11,0,0,0,11.54-25.09,3.58,3.58,0,0,0-1.11-.79,6.47,6.47,0,0,0-2.74-.31,19.15,19.15,0,0,1-3.37-.27,75,75,0,0,1-6.5,24.41A4.15,4.15,0,0,0,824.23,769.61Z"/><path class="cls-23" d="M866.7,767.68a1.88,1.88,0,0,0,1.08.68c1,.09,1.46-1.07,1.66-2q1.68-7.64,2.73-15.4c-3.84,0-7.67-.11-11.43-.26.48,2.64,1,5.26,1.71,7.85C863.3,761.83,864.37,765.21,866.7,767.68Z"/><path class="cls-37" d="M894.68,779.19c-.17-.38-.43-.81-.84-.79s-.55.34-.72.63c-1.27,2.16-2.4,1.51-3.19-.49-.57-1.43-1.08-2.72-1.67-4.12a.38.38,0,0,0-.14-.19c-.15-.08-.31.11-.38.27-1,2.09-.58,4.72-1.45,6.89-.39,1-2,3.05-2.67,1.14-.81-2.29-.83-5.1-1.23-7.5-.46-2.81-.9-5.61-1.33-8.42q-1.21-7.89-2.28-15.8-3.3.13-6.61.14-1.06,7.75-2.73,15.4c-.2.94-.71,2.1-1.66,2a1.88,1.88,0,0,1-1.08-.68c-2.33-2.47-3.4-5.85-4.25-9.14-.67-2.59-1.23-5.21-1.71-7.85l-9.39-.41c-4-.18-8.54-.56-11.25-3.57-.56-.62-1-1.35-1.63-1.93a75.11,75.11,0,0,1-11.54,25.09c-.4.57-.95,1.19-1.64,1.11a1.37,1.37,0,0,1-1.06-1.37,4.15,4.15,0,0,1,.52-1.79,75,75,0,0,0,6.5-24.41,16,16,0,0,1-3.6-1.06c-1.44-.63-5.44-2.76-4.84-4.78-2.71,5.35-5.64,10.58-8.67,15.75-4.19,7.15-8.29,14.35-12.92,21.18a7.91,7.91,0,0,0-1.28,2.48c-.49,2,.67,4.1,2.29,5.38,2,1.62,4.72,2.2,7.29,2.71,17.78,3.49,36.25,6.25,54.4,5.76,10.2-.27,20.4-.54,30.56-1.52,1.13-.11,2.27-.23,3.4-.36-.54-1.94-1.07-3.88-1.61-5.82A32.45,32.45,0,0,0,894.68,779.19Z"/><path class="cls-24" d="M923.07,778.74c-4.43-7-7.92-15.15-11.28-22.73q-1.93-4.34-3.81-8.69c-.16-.39-1.65-4.77-1.94-4.79h0c.28,1.74-1.2,3.51-4.76,4.68a83.18,83.18,0,0,1-22.49,3.6q1.07,7.92,2.28,15.8c.43,2.81.87,5.61,1.33,8.42.4,2.4.42,5.21,1.23,7.5.67,1.91,2.28-.17,2.67-1.14.87-2.17.49-4.8,1.45-6.89.07-.16.23-.35.38-.27a.38.38,0,0,1,.14.19c.59,1.4,1.1,2.69,1.67,4.12.79,2,1.92,2.65,3.19.49.17-.29.39-.61.72-.63s.67.41.84.79a32.45,32.45,0,0,1,1.59,3.94c.54,1.94,1.07,3.88,1.61,5.82,3.91-.44,7.81-1,11.69-1.71A83.09,83.09,0,0,0,920.3,785C924.11,783.75,925.3,782.27,923.07,778.74Z"/><path class="cls-38" d="M0,973c2.05,3.71,129.33,12.18,137.29-18.18,7.16-27.31-69.73-11.61-64.77-36.8,3.77-19.13,75.82-21,86.78-22.08,14.57-1.43,131.31-6.67,132.65-23.39C293.19,857.15,7.33,857.52,0,858.87Z"/><path class="cls-39" d="M630.19,831.42c-9.78-.64-19.1-1.17-28.7-3.64-2.53-.65-5.23-1.64-6.6-4-3.9-6.87,8.88-9.28,12.61-9.93s19-2.7,18.87-7.7c-.06-2-2.47-2.81-4.4-3.14-12.67-2.19-25.58-1.21-38.48-2.89-1.83-.23-3.8-.56-5.11-1.86a1.4,1.4,0,0,1-.51-1.07c.06-.53.59-.86,1.07-1.1,6.54-3.17,13.57-3.85,20.64-5,9.52-1.56,19-3.09,28.65-4,9-.86,17.55-.27,26.5-.43,25.55-.44,51.14-1.2,76.65.55,3.58.25,7.16.54,10.73.89a5.25,5.25,0,0,1,2.68.76,1.85,1.85,0,0,1,.6,2.46,2.75,2.75,0,0,1-2.13.74l-42.36,1.89c-6.76.3-12.86,1.2-19.57,2.07-2.79.36-5.67.74-8.13,2.11-.38.22-.79.52-.81,1a1.18,1.18,0,0,0,.32.77c1.35,1.69,3.7,2.1,5.83,2.36,7.06.87,14.23,1.19,21.33,1.44,2.68.1,27.2,2.88,25.74,7.75-.51,1.71-2.57,2.3-4.33,2.62-28.76,5.24-58.13,7.52-87.12,9.85-1.08.09-2.48.68-2.29,1.75.1.62.73,1,1.3,1.28A32.14,32.14,0,0,0,638.9,829a1.15,1.15,0,0,1,.67.35c.45.59-.41,1.29-1.13,1.49A25,25,0,0,1,630.19,831.42Z"/><path class="cls-40" d="M845,884.69c-8,.32-16.3.56-23.88-1.65-1.47-.43-3.14-1.24-3.11-2.53,0-1.58,2.45-2.19,4.35-2.37l31.26-2.9c4.61-.43,8.46-1.36,13-1.44,1.79,0,3.87-.82,4.07-2.29,1.07-7.9-55.2-3.61-60.63-3.55a235.94,235.94,0,0,1-51-4.93c-2.49-.52-5.55-1.77-5.17-3.87.29-1.61,2.52-2.39,4.43-2.83,12.81-2.92,26-2.13,38.82-4.72,1.35-.28,2.92-.77,3.21-1.9.34-1.32-1.34-2.35-2.82-2.93-5.17-2-10.78-2.48-16.22-3.38a150,150,0,0,1-15.73-3.18c-1.51-.41-3.38-1.63-2.73-3.05a2.72,2.72,0,0,1,1.23-1.11c6.1-3.41,12.88-3.75,19.68-4.29a718.57,718.57,0,0,1,154.6,4.38c3,.41,6.29,1,7.86,3.15,4.22,5.67-35.87,14-41.35,16.52-4.46,2-12.1,5.36-8,9.8,2.6,2.83,11.38,1.31,12.62,5.61C913.61,885.53,852.36,884.11,845,884.69Z"/><path class="cls-41" d="M1089.13,1080c-9.38,0-19.39-1-26.49-6.19a2.67,2.67,0,0,1-1-1c-.47-1.25,1.5-2.13,3.07-2.46,22-4.75,44.31-7,66.78-9.85a7.72,7.72,0,0,0,2.69-.68c.78-.43,1.32-1.25,1-2s-1.41-1.07-2.35-1.3c-21.91-5.37-44.16-7.43-66.34-11.57a7.15,7.15,0,0,1-3-1,1.54,1.54,0,0,1-.39-2.35,3.26,3.26,0,0,1,1.19-.6c14.07-4.78,31-6.46,46.11-7.93,14.55-1.41,30.29-.53,45.1-1,26.09-.81,52.12-.34,78.32-1a34.74,34.74,0,0,0,9-1c.17-.88-1.17-1.38-2.23-1.59-12.46-2.34-25.65-2.25-37.87-5.16-1.52-.36-3.37-1.23-3-2.46.26-.8,1.36-1.2,2.34-1.45,35-9,73.59-7.22,109.86-5.93,16.08.57,32.37,1.19,47.75,5,1.58.39,3.51,1.29,3.15,2.59-.27,1-1.74,1.42-3,1.65-10.38,2-20.34,3.91-30.3,6.83a2.66,2.66,0,0,0-1.39.73c-.76,1,1,2.06,2.44,2.38,12.68,2.82,26.6,1.78,38.55,6.19,1.24.45,2.66,1.48,2,2.43a2.67,2.67,0,0,1-1.42.75,97.61,97.61,0,0,1-20.23,3.65c-5.15.38-10.83.53-14.59,3.38,3.27,2.42,8.13,2.59,12.56,2.81,6.4.32,12.89,1,18.71,3.19,3.36,1.26,6.89,4,5.41,6.77-.66,1.21-2.13,2-3.54,2.66a217.1,217.1,0,0,1-43.12,15.32Z"/><g class="cls-42"><path class="cls-43" d="M1617.63,853.65l-5.57-.17q-23.11-.66-46.25-.69c-20.89,0-41.88.35-62.52,3.63-7.87,1.26-16.85,2.2-24,5.8a.5.5,0,0,0-.29.26.48.48,0,0,0,.06.33c.79,1.58,2.75,2.1,4.48,2.44,4.84,1,9.37.3,14.29.1a121.38,121.38,0,0,1,21.89,1.08,2.32,2.32,0,0,1,1.75.8c.69,1.12-.78,2.32-2,2.81-12.29,5-25.28,7-38.14,10-8.64,2-17.34,2.69-25.33,7.15a2.18,2.18,0,0,0-1.07,1c-.48,1.23,1.25,2.08,2.56,2.25a214.69,214.69,0,0,0,26.23,1.38c4.39,0,8.78,0,13.16.05s7.93.95,12.09,1.84a4.07,4.07,0,0,1,1.52.54,1.41,1.41,0,0,1,.66,1.37c-.13.6-.74,1-1.31,1.2-4.17,1.81-9.23,2.48-13.66,3.54-5.47,1.3-10.92,2.65-16.44,3.71-.66.12-1.47.39-1.58,1.06-.16,1,1.2,1.34,2.18,1.31,14.54-.36,29.09-.49,43.63-.19,13.57.29,27.46-2.07,40.79,1.27a1.81,1.81,0,0,1,.84.39c.79.83-.58,2-1.68,2.27-12.59,3.45-26,4-38.94,5.24-6.18.61-12.38,1.1-18.53,2-1.2.16-14.44,1.28-12.53,4.35,1.48,2.39,10.55,1.28,12.81,1.31q8.05.1,16.13.16,15.87.11,31.73.14c21.94.1,39,0,64.31-2.06V853.56C1618.37,853.61,1617.88,853.66,1617.63,853.65Z"/></g><ellipse class="cls-44" cx="184.25" cy="1028.91" rx="17.69" ry="6.48"/><path class="cls-45" d="M354.31,881c0,2-4.4,3.6-9.83,3.6s-9.84-1.61-9.84-3.6,4.4-3.6,9.84-3.6S354.31,879,354.31,881Z"/><path class="cls-46" d="M408.56,823.11c0,1.46-3,2.65-6.67,2.65s-6.67-1.19-6.67-2.65,3-2.65,6.67-2.65S408.56,821.64,408.56,823.11Z"/><path class="cls-47" d="M614.61,770.14c0,1-3.17,1.8-7.09,1.8s-7.1-.81-7.1-1.8,3.18-1.8,7.1-1.8S614.61,769.14,614.61,770.14Z"/><ellipse class="cls-48" cx="75.1" cy="773.95" rx="8.45" ry="1.89"/><path class="cls-49" d="M487.83,958.76c0,2.58-4.88,4.68-10.89,4.68s-10.9-2.1-10.9-4.68,4.88-4.68,10.9-4.68S487.83,956.18,487.83,958.76Z"/><path class="cls-50" d="M722.85,867c0,2-3.68,3.53-8.23,3.53s-8.23-1.58-8.23-3.53,3.68-3.54,8.23-3.54S722.85,865.09,722.85,867Z"/><path class="cls-51" d="M121.2,829.5c0,2-3.69,3.54-8.24,3.54s-8.23-1.59-8.23-3.54S108.42,826,113,826,121.2,827.55,121.2,829.5Z"/><path class="cls-52" d="M773.44,772.18c0,1-3.68,1.77-8.23,1.77s-8.23-.8-8.23-1.77,3.68-1.77,8.23-1.77S773.44,771.2,773.44,772.18Z"/><path class="cls-53" d="M215.67,779.2c0,1-3.68,1.77-8.23,1.77s-8.23-.79-8.23-1.77,3.68-1.77,8.23-1.77S215.67,778.22,215.67,779.2Z"/><path class="cls-54" d="M1237.41,805.9c0,1-3.68,1.77-8.23,1.77s-8.23-.8-8.23-1.77,3.68-1.77,8.23-1.77S1237.41,804.92,1237.41,805.9Z"/><path class="cls-55" d="M1117.85,761.63c0,1-3.69,1.76-8.24,1.76s-8.23-.79-8.23-1.76,3.69-1.77,8.23-1.77S1117.85,760.65,1117.85,761.63Z"/><path class="cls-56" d="M1117.85,805.9c0,1-3.69,1.77-8.24,1.77s-8.23-.8-8.23-1.77,3.69-1.77,8.23-1.77S1117.85,804.92,1117.85,805.9Z"/><path class="cls-57" d="M1413.08,851c0,1-3.69,1.77-8.23,1.77s-8.24-.79-8.24-1.77,3.69-1.77,8.24-1.77S1413.08,850,1413.08,851Z"/><ellipse class="cls-58" cx="516.48" cy="848.35" rx="12.38" ry="2.66"/><path class="cls-59" d="M905.51,977c0,3.77-9.35,6.83-20.88,6.83s-20.88-3.06-20.88-6.83,9.35-6.84,20.88-6.84S905.51,973.23,905.51,977Z"/><path class="cls-60" d="M1163.18,997.52c0,4.62-12,8.37-26.78,8.37s-26.79-3.75-26.79-8.37,12-8.37,26.79-8.37S1163.18,992.9,1163.18,997.52Z"/><ellipse class="cls-61" cx="1014.4" cy="782.62" rx="14.98" ry="3.42"/><path class="cls-62" d="M1561.9,796.5c0,1.88-6.71,3.41-15,3.41s-15-1.53-15-3.41,6.7-3.42,15-3.42S1561.9,794.61,1561.9,796.5Z"/><ellipse class="cls-63" cx="722.85" cy="975.52" rx="16.47" ry="7.07"/><ellipse class="cls-64" cx="844.09" cy="918.02" rx="14.48" ry="6.22"/><path class="cls-65" d="M1219,870.82c0,3.43-6.49,6.21-14.49,6.21s-14.48-2.78-14.48-6.21,6.48-6.22,14.48-6.22S1219,867.39,1219,870.82Z"/><ellipse class="cls-66" cx="1514.05" cy="975.52" rx="14.48" ry="6.22"/><ellipse class="cls-67" cx="1304.08" cy="954.08" rx="14.48" ry="6.22"/><circle class="cls-68" cx="344.48" cy="64.76" r="6.89"/><circle class="cls-69" cx="344.48" cy="64.76" r="14.48"/><path class="cls-70" d="M83.08,75.79a6.9,6.9,0,1,1-6.9-6.9A6.9,6.9,0,0,1,83.08,75.79Z"/><circle class="cls-71" cx="76.18" cy="75.79" r="14.48"/><path class="cls-72" d="M1269.62,131a6.9,6.9,0,1,1-6.9-6.9A6.89,6.89,0,0,1,1269.62,131Z"/><circle class="cls-73" cx="1262.72" cy="131.04" r="14.48"/><path class="cls-74" d="M1515.22,177.63a6.9,6.9,0,1,1-6.9-6.89A6.9,6.9,0,0,1,1515.22,177.63Z"/><circle class="cls-75" cx="1508.32" cy="177.63" r="14.48"/><path class="cls-76" d="M1124.74,101a6.9,6.9,0,1,1-6.89-6.9A6.88,6.88,0,0,1,1124.74,101Z"/><path class="cls-77" d="M1132.32,101a14.48,14.48,0,1,1-14.47-14.48A14.47,14.47,0,0,1,1132.32,101Z"/><path class="cls-78" d="M570.71,245.2a6.9,6.9,0,1,1-6.89-6.9A6.88,6.88,0,0,1,570.71,245.2Z"/><path class="cls-79" d="M578.3,245.2a14.48,14.48,0,1,1-14.48-14.48A14.48,14.48,0,0,1,578.3,245.2Z"/><path class="cls-80" d="M1047.85,267.7a6.9,6.9,0,1,1-6.89-6.89A6.9,6.9,0,0,1,1047.85,267.7Z"/><circle class="cls-81" cx="1040.96" cy="267.7" r="14.48"/><path class="cls-82" d="M191.15,253.23a6.9,6.9,0,1,1-6.9-6.9A6.9,6.9,0,0,1,191.15,253.23Z"/><circle class="cls-83" cx="184.25" cy="253.23" r="14.48"/><circle class="cls-84" cx="456.19" cy="154.02" r="3.45"/><path class="cls-85" d="M463.43,154a7.24,7.24,0,1,1-7.24-7.24A7.24,7.24,0,0,1,463.43,154Z"/><path class="cls-86" d="M508.48,50.28A3.45,3.45,0,1,1,505,46.83,3.46,3.46,0,0,1,508.48,50.28Z"/><path class="cls-87" d="M512.27,50.28A7.24,7.24,0,1,1,505,43,7.24,7.24,0,0,1,512.27,50.28Z"/><circle class="cls-88" cx="704.77" cy="224.28" r="3.45"/><path class="cls-89" d="M712,224.28a7.24,7.24,0,1,1-7.24-7.24A7.24,7.24,0,0,1,712,224.28Z"/><circle class="cls-90" cx="1296.21" cy="29.13" r="3.45"/><path class="cls-91" d="M1303.45,29.13a7.24,7.24,0,1,1-7.24-7.24A7.24,7.24,0,0,1,1303.45,29.13Z"/><circle class="cls-92" cx="1554.16" cy="392.99" r="3.45"/><path class="cls-93" d="M1561.4,393a7.24,7.24,0,1,1-7.24-7.24A7.24,7.24,0,0,1,1561.4,393Z"/><path class="cls-94" d="M1504.88,131a3.45,3.45,0,1,1-3.45-3.45A3.46,3.46,0,0,1,1504.88,131Z"/><path class="cls-95" d="M1508.67,131a7.24,7.24,0,1,1-7.24-7.24A7.24,7.24,0,0,1,1508.67,131Z"/><path class="cls-96" d="M1110.26,65.18a3.45,3.45,0,1,1-3.45-3.45A3.45,3.45,0,0,1,1110.26,65.18Z"/><path class="cls-97" d="M1114.05,65.18a7.24,7.24,0,1,1-7.24-7.24A7.24,7.24,0,0,1,1114.05,65.18Z"/><path class="cls-98" d="M1075.35,79.23a3.45,3.45,0,1,1-3.45-3.44A3.45,3.45,0,0,1,1075.35,79.23Z"/><path class="cls-99" d="M1079.14,79.23A7.24,7.24,0,1,1,1071.9,72,7.24,7.24,0,0,1,1079.14,79.23Z"/><g class="cls-100"><path class="cls-13" d="M408.66,463.26h0A126.61,126.61,0,0,1,379,464.76a106.19,106.19,0,0,1-28.18-6,121.88,121.88,0,0,1-24.87-12.41c-2-1.2-3.81-2.52-5.66-3.85s-3.67-2.68-5.46-4.07-3.53-2.82-5.26-4.27l-5.63-4.61a157.5,157.5,0,0,0-56.61-28.25,142.76,142.76,0,0,0-34.1-4.92c-3-.14-5.94,0-8.93.15s-6,.45-9,.81a88.13,88.13,0,0,0-9,1.5c-3,.55-5.92,1.3-8.68,2.08-11,3.18-20.2,6.81-28,8.45a53.16,53.16,0,0,1-11,1.25,64.7,64.7,0,0,1-11.22-1,100.47,100.47,0,0,1-23.3-7.26c-3.89-1.7-7.74-3.59-11.6-5.65s-7.9-4.36-12-6.72c-8.16-4.72-16.67-9.89-26.25-14.9-4.78-2.5-9.82-5-15.19-7.25-2.67-1.15-5.45-2.23-8.29-3.3s-6-2.06-9.06-2.94A196.07,196.07,0,0,0,0,357v45.7c1.18.16,5.46.3,6.64.52,1.84.33,3.66.74,5.49,1.18s3.89,1.07,5.87,1.7c4,1.25,8,2.74,12.19,4.41,8.31,3.34,17,7.47,26.3,11.69,4.66,2.11,9.45,4.26,14.48,6.33s10.39,4.08,15.87,5.86a149.35,149.35,0,0,0,35.5,7.25,110.63,110.63,0,0,0,19.49-.27,95.55,95.55,0,0,0,19.06-4.06c11.64-3.79,20.51-8.49,28.57-11.57a56.87,56.87,0,0,1,5.88-2,52.13,52.13,0,0,1,6-1.59,56.73,56.73,0,0,1,6.21-1.15,58.62,58.62,0,0,1,6.42-.71,111.25,111.25,0,0,1,26.76,1.41,140.25,140.25,0,0,1,51,19.61c1.88,1.22,3.72,2.39,5.88,3.86s4.15,2.81,6.34,4.12,4.29,2.68,6.55,3.91,4.45,2.51,6.79,3.65a142.25,142.25,0,0,0,29.47,11.27,120.54,120.54,0,0,0,32,3.79A132.41,132.41,0,0,0,410,467.44a2.15,2.15,0,0,0,1.77-2.48A2.63,2.63,0,0,0,408.66,463.26Z"/><path class="cls-13" d="M178.26,328.9c5.2.84,10.19,2.2,15.3,3.33s10.17,2.44,15.27,3.9C219,339,229.38,342.24,240,345.41s21.45,6.26,32.62,8.83A242.15,242.15,0,0,0,307,359.68c23.36,1.89,46.43,0,68.54-3.71s43.51-9.13,64.72-14.67l-.72-2.35c-21.83,3.42-43.69,6.68-65.51,8.12s-43.57,1-64.14-2.76-39.84-11-59.43-19.22c-9.81-4.09-19.72-8.38-30.07-12.47-5.14-2.07-10.46-4-15.87-5.84s-10.75-3.84-16.29-5.33C144.34,288.08,97.2,282,49.69,282.67c-15.49.26-34.16,1.87-49.69,3.74v48.32c16.28-4.19,36.33-8.38,53.5-10.37C94.45,319.66,137.21,320.8,178.26,328.9Z"/></g><path class="cls-101" d="M839.24,414.52a3.45,3.45,0,1,1-3.45-3.45A3.45,3.45,0,0,1,839.24,414.52Z"/><path class="cls-102" d="M843,414.52a7.24,7.24,0,1,1-7.24-7.24A7.24,7.24,0,0,1,843,414.52Z"/><circle class="cls-103" cx="177.36" cy="290.63" r="1.95"/><path class="cls-104" d="M181.44,290.63a4.09,4.09,0,1,1-4.08-4.09A4.08,4.08,0,0,1,181.44,290.63Z"/><path class="cls-105" d="M662.46,57.86a1.95,1.95,0,1,1-1.94-1.94A1.94,1.94,0,0,1,662.46,57.86Z"/><path class="cls-106" d="M664.6,57.86a4.09,4.09,0,1,1-4.08-4.08A4.09,4.09,0,0,1,664.6,57.86Z"/><circle class="cls-107" cx="708.22" cy="361.37" r="1.95"/><circle class="cls-108" cx="708.22" cy="361.37" r="4.09"/><path class="cls-109" d="M193.09,154a1.95,1.95,0,1,1-1.94-2A2,2,0,0,1,193.09,154Z"/><path class="cls-110" d="M195.23,154a4.09,4.09,0,1,1-4.08-4.08A4.09,4.09,0,0,1,195.23,154Z"/><circle class="cls-111" cx="940.84" cy="327.19" r="1.95"/><path class="cls-112" d="M944.92,327.19a4.09,4.09,0,1,1-4.08-4.09A4.08,4.08,0,0,1,944.92,327.19Z"/><circle class="cls-113" cx="917.56" cy="302.56" r="1.95"/><circle class="cls-114" cx="917.56" cy="302.56" r="4.09"/><g class="cls-115"><path class="cls-116" d="M573.71,1026.47c1.28.67,2.52,1.36,3.72,2.06l0,0q1.72,1,3.36,2l.63.42c.88.56,1.73,1.13,2.56,1.7l.83.59c.74.53,1.47,1.06,2.18,1.59l.88.68c.66.52,1.31,1,1.94,1.55l.87.73c.61.52,1.2,1,1.78,1.55l.82.75c.57.52,1.12,1,1.66,1.56l.76.75c.53.53,1,1.07,1.56,1.6l.67.71c.52.56,1,1.13,1.51,1.69l.56.63c.52.61,1,1.23,1.51,1.84l.4.48c.57.73,1.12,1.45,1.65,2.17l.1.14a75.43,75.43,0,0,1,4.51,7c.08.13.15.26.22.39.34.61.68,1.21,1,1.81.1.18.19.36.28.54.28.54.56,1.08.81,1.6.1.21.2.41.29.62.24.5.47,1,.7,1.49l.24.54a11.5,11.5,0,0,1,1.47.79c.23.16.44.31.62.46a4.06,4.06,0,0,1,.81.89,2.28,2.28,0,0,1,.21.41,1.53,1.53,0,0,1,.12.73,1,1,0,0,1-1.26.94,1.12,1.12,0,0,1-.31-.1h0c.16.42.3.83.44,1.23l.18.53q.22.66.42,1.29c.05.15.09.3.14.45.14.45.26.88.38,1.3l.1.34.37,1.39,0,.13c.25,1,.45,1.91.62,2.73,0,.09,0,.16,0,.24.06.31.12.61.17.88s0,.27.07.41.06.39.09.57,0,.29.07.44a3.69,3.69,0,0,0,0,.37c0,.17,0,.32.06.46s0,.13,0,.18,0,.33.05.46h0c0,.4.06.63.06.63,8.52-1.1,17-4.75,25.25-9.2l2.33,1,.89.39.8-.44c.59-.32,1.27-.67,2-1s1.54-.74,2.37-1.09a39.37,39.37,0,0,1,3.72-1.38l-24.22-48.33,4.2,1,24.06,46.54a9.71,9.71,0,0,1,1.2,0,10.32,10.32,0,0,1,1.31.14l.48.08a4.9,4.9,0,0,1,.55.13,8.65,8.65,0,0,1,1.12.35h0a5.21,5.21,0,0,1,3.42,3.6.25.25,0,0,1,0-.07,4.25,4.25,0,0,1,0,1.81v0a3.81,3.81,0,0,1-.2.68l-.07.15a3.15,3.15,0,0,1-.28.51,1.5,1.5,0,0,1-.19.25c-.09.11-.17.23-.27.34a3.26,3.26,0,0,1-.36.29l-.23.19a4.18,4.18,0,0,1-.56.28l-.14.07a4,4,0,0,1-.81.19h0l-.6.08,8.12,16.81c5.44-.75,16.11-1.45,32.35.81,20.06,2.79,28.27-8.79,28.27-8.79,6,4.72,8.26,13.7,12.13,21.81.36.75.73,1.49,1.12,2.23,0,0-.53.33-1.53.85l-1.17.58c-.44.21-.93.44-1.47.67s-1.13.49-1.76.74-1.32.51-2.05.77a65,65,0,0,1-21.39,3.65,66.23,66.23,0,0,1-8-.46,114.88,114.88,0,0,0-14-.87q-1.41,0-2.67.06a49.86,49.86,0,0,0-7.84.86,15.71,15.71,0,0,0-4.61,1.46h0L666.36,1098l.23-.06-7.5-15.53A157.3,157.3,0,0,1,621,1100.45c-2.87.94-5.79,1.8-8.76,2.6.94.31.32.71-.84,1.06.2.11.39.22.57.34a3.65,3.65,0,0,1,1.47,1.55.79.79,0,0,1,0,.13h0a1.72,1.72,0,0,1,.12.63s0,0,0,0,0,0,0,.06a2,2,0,0,1-.14.64,1.94,1.94,0,0,1-.18.35c0,.06-.06.13-.1.2l0,0a3.53,3.53,0,0,1-.7.76c23.87,9.24,39.17,23.45,39.17,39.39,0,27.85-46.67,50.43-104.24,50.43S443.17,1176,443.17,1148.18c0-15.94,15.31-30.15,39.18-39.39a3.74,3.74,0,0,1-.7-.75h0a.91.91,0,0,1-.09-.17,2.1,2.1,0,0,1-.21-.39,1.84,1.84,0,0,1-.1-.51,1.16,1.16,0,0,1,0-.18,1.5,1.5,0,0,1,.06-.29,1.68,1.68,0,0,1,.07-.39h0c.39-1.1,1.71-2.05,3.56-2.63a14.85,14.85,0,0,1,4.46-.65h1.84c.46-.07.92-.18,1.39-.3h0l.33-.1a57,57,0,0,1-18.17-10c-10.16-8.7-10.7-17.73-8.27-25,2.91-8.71,10.1-14.88,10.1-14.88h0l3.27.31.23-.31a11.75,11.75,0,0,1,3.23-2.76,12.62,12.62,0,0,1,6.31-1.65h0l.6,0,.81,0h0a19.16,19.16,0,0,1,4.19.58h0l.48.14c15.34-15.6,35.91-22.41,35.91-22.41h0l1.43-2.21-6.08-2,23.41-.51-.47,5.24h0l.72,20.09,4.79-20.09h0l-.28-5.24,22.44.52h.78l-6.08,2,1.43,2.21m83.66,62.62,1.63.81-.46-1.08Z"/></g><path class="cls-117" d="M478.49,954.46c1.08,5,4.29,14.56,11.23,14.74s9-4.8,9-4.8l-5.84-11.31Z"/><path class="cls-118" d="M495.31,967.91a8.36,8.36,0,0,0,3.42-3.51l-5.84-11.31-4.88.47A46.14,46.14,0,0,0,495.31,967.91Z"/><path class="cls-119" d="M481.64,954.16l-3.15.3c1.08,5,4.29,14.56,11.23,14.74a10.56,10.56,0,0,0,1.41-.09C484.81,964.75,483.1,958.19,481.64,954.16Z"/><polygon class="cls-120" points="634.09 1024.73 629.89 1023.75 667.96 860.82 681.57 821.58 681.57 821.58 671.94 862.75 634.09 1024.73"/><polygon class="cls-119" points="631.59 1024.14 629.89 1023.75 667.96 860.82 679.17 821.02 679.17 821.02 631.59 1024.14"/><path class="cls-121" d="M915.15,761.16s-47.49-61.58-118.27-44.45-92.06-9.88-92.06-9.88L668,860.82s37.57,22.54,115.9,0c63.42-18.25,89.41,57.41,89.41,57.41C893.87,884.54,900.61,817.61,915.15,761.16Z"/><path class="cls-122" d="M915.15,761.16s-47.49-61.58-118.27-44.45-92.06-9.88-92.06-9.88L668,860.82s37.57,22.54,115.9,0c63.42-18.25,89.41,57.41,89.41,57.41C893.87,884.54,900.61,817.61,915.15,761.16Z"/><path class="cls-123" d="M810,725.56c25.57-3.09,72.58,7,101.28,51.69q1.86-8.14,3.89-16.09s-47.49-61.58-118.27-44.45-92.06-9.88-92.06-9.88S709.35,737.73,810,725.56Z"/><path class="cls-122" d="M915.15,761.16s-47.49-61.58-118.27-44.45-92.06-9.88-92.06-9.88L668,860.82s37.57,22.54,115.9,0c63.42-18.25,89.41,57.41,89.41,57.41C893.87,884.54,900.61,817.61,915.15,761.16Z"/><path class="cls-124" d="M915.15,761.16s-47.49-61.58-118.27-44.45-92.06-9.88-92.06-9.88L668,860.82s37.57,22.54,115.9,0c63.42-18.25,89.41,57.41,89.41,57.41C893.87,884.54,900.61,817.61,915.15,761.16Z"/><g id="Layer_2" data-name="Layer 2"><g id="Layer_1-2" data-name="Layer 1-2"><path class="cls-125" d="M809.5,825.66h0Z"/><path class="cls-126" d="M826,821l.77-.54Z"/><path class="cls-126" d="M826.76,820.43l.06,0-.1.07h0Z"/><path class="cls-127" d="M791.75,774.65c1.93-.75,4.73,1.43,6.22,4.83s1.12,6.75-.77,7.53-4.63-1.33-6.15-4.76S789.82,775.39,791.75,774.65Z"/><path class="cls-128" d="M809.39,794.84c.53-.8,1.36-1.13,2.13-.43a5.61,5.61,0,0,1,.72.89,12,12,0,0,0,5.3,4.05c.41.17.82.32,1.24.46.23.07,1.19.19,1.3.37a25.51,25.51,0,0,1,2.37,4.62,17.82,17.82,0,0,1-2.75,1.64,15.93,15.93,0,0,1-8.32,1.53c-5.18-.47-3.63-9-2.39-12.32A3.4,3.4,0,0,1,809.39,794.84Z"/><path class="cls-129" d="M821.28,777.57a2.16,2.16,0,0,1,.76-.11A2.64,2.64,0,0,1,824,778.8c2.73,4.18,3.84,8.93,4.36,13.76A38.5,38.5,0,0,1,824,814.5c0-.26,0-.51,0-.77v0a20.48,20.48,0,0,0-.78-6.62,23.66,23.66,0,0,0-1-2.72,27.25,27.25,0,0,0-9.55-11.6l-.8-.58a5.55,5.55,0,0,1-1.86-1.81c-.68-1.31-.1-2.64.59-3.77a21.85,21.85,0,0,1,10.2-8.87Z"/><path class="cls-130" d="M835.79,806.64c.89-1.38,1.7-2.79,2.45-4.23a31.46,31.46,0,0,0,2.74-6.79,23.94,23.94,0,0,0,.8-6.55c0-1.64-1.29-4.47.4-5.64a6.12,6.12,0,0,1,2.64-1l.37,0a4.93,4.93,0,0,1,4,1.68,15.12,15.12,0,0,1,2.2,3.27,15.38,15.38,0,0,1,1.55,5.24,16.55,16.55,0,0,1-.3,5.47q4.95-1.14,10-2.23a4.42,4.42,0,0,1,5.57,3.7v0a41.06,41.06,0,0,1-3.21,19.2c-2.34,5.61-11.39,6-16.12,6.43-3.63.32-6.55.79-9.56,3.41a89,89,0,0,0-6.17,6.69c-5.27,5.62-12.24,9.63-19.29,10.3-11.69,1.14-23.43-4.06-31.53-14.13a65.12,65.12,0,0,1-12.06-25.85c-2.36-10.21-4.21-20.81-7.77-31a21.35,21.35,0,0,0-5.9-8.88c-2.76-2.28-6-3.67-8.26-6.8a11.82,11.82,0,0,1-2.09-4.41c0-.16-.12-1.58-.18-1.64,5.13,4.6,11.33,1.62,8.25-1.14-9.39-8.4-4.54-16.87-4.5-16.83,3.25,4.56,21.82,13.07,36.25,14,16.64,1.16,32,3.71,36.39,22.47-7.89-6.92-24-8.87-31.34-9.18-12.7-.62-21.79,6.32-19.74,20.48a68.42,68.42,0,0,0,14.26,33c.64.78,1.31,1.51,2,2.21a25.84,25.84,0,0,0,18.92,7.6c6.44-.21,13.62-2.36,18.82-6.88A57,57,0,0,0,835.79,806.64Z"/></g></g><g id="Layer_2-2" data-name="Layer 2" class="cls-131"><g id="Layer_1-2-2" data-name="Layer 1-2"><path class="cls-132" d="M809.5,825.66h0Z"/><path d="M826,821l.77-.54Z"/><path d="M826.76,820.43l.06,0-.1.07h0Z"/><path d="M791.75,774.65c1.93-.75,4.73,1.43,6.22,4.83s1.12,6.75-.77,7.53-4.63-1.33-6.15-4.76S789.82,775.39,791.75,774.65Z"/><path d="M809.39,794.84c.53-.8,1.36-1.13,2.13-.43a5.61,5.61,0,0,1,.72.89,12,12,0,0,0,5.3,4.05c.41.17.82.32,1.24.46.23.07,1.19.19,1.3.37a25.51,25.51,0,0,1,2.37,4.62,17.82,17.82,0,0,1-2.75,1.64,15.93,15.93,0,0,1-8.32,1.53c-5.18-.47-3.63-9-2.39-12.32A3.4,3.4,0,0,1,809.39,794.84Z"/><path d="M821.28,777.57a2.16,2.16,0,0,1,.76-.11A2.64,2.64,0,0,1,824,778.8c2.73,4.18,3.84,8.93,4.36,13.76A38.5,38.5,0,0,1,824,814.5c0-.26,0-.51,0-.77v0a20.48,20.48,0,0,0-.78-6.62,23.66,23.66,0,0,0-1-2.72,27.25,27.25,0,0,0-9.55-11.6l-.8-.58a5.55,5.55,0,0,1-1.86-1.81c-.68-1.31-.1-2.64.59-3.77a21.85,21.85,0,0,1,10.2-8.87Z"/><path d="M835.79,806.64c.89-1.38,1.7-2.79,2.45-4.23a31.46,31.46,0,0,0,2.74-6.79,23.94,23.94,0,0,0,.8-6.55c0-1.64-1.29-4.47.4-5.64a6.12,6.12,0,0,1,2.64-1l.37,0a4.93,4.93,0,0,1,4,1.68,15.12,15.12,0,0,1,2.2,3.27,15.38,15.38,0,0,1,1.55,5.24,16.55,16.55,0,0,1-.3,5.47q4.95-1.14,10-2.23a4.42,4.42,0,0,1,5.57,3.7v0a41.06,41.06,0,0,1-3.21,19.2c-2.34,5.61-11.39,6-16.12,6.43-3.63.32-6.55.79-9.56,3.41a89,89,0,0,0-6.17,6.69c-5.27,5.62-12.24,9.63-19.29,10.3-11.69,1.14-23.43-4.06-31.53-14.13a65.12,65.12,0,0,1-12.06-25.85c-2.36-10.21-4.21-20.81-7.77-31a21.35,21.35,0,0,0-5.9-8.88c-2.76-2.28-6-3.67-8.26-6.8a11.82,11.82,0,0,1-2.09-4.41c0-.16-.12-1.58-.18-1.64,5.13,4.6,11.33,1.62,8.25-1.14-9.39-8.4-4.54-16.87-4.5-16.83,3.25,4.56,21.82,13.07,36.25,14,16.64,1.16,32,3.71,36.39,22.47-7.89-6.92-24-8.87-31.34-9.18-12.7-.62-21.79,6.32-19.74,20.48a68.42,68.42,0,0,0,14.26,33c.64.78,1.31,1.51,2,2.21a25.84,25.84,0,0,0,18.92,7.6c6.44-.21,13.62-2.36,18.82-6.88A57,57,0,0,0,835.79,806.64Z"/></g></g><path class="cls-117" d="M643.7,909.59s9.6,12.38,15.75,11.8c8.94-.83,8.24-17.55,3.79-18.63s-12-5.08-12-5.08Z"/><path class="cls-118" d="M645.41,906.9l-1.71,2.69s9.6,12.38,15.75,11.8A6.27,6.27,0,0,0,662.9,920C660.84,912.05,652.58,909.71,645.41,906.9Z"/><path class="cls-119" d="M666.34,912.64c-.35-3-1.49-5.53-3.11-5.91-4.45-1.08-12-5.08-12-5.08l-6.13,9.67c-.88-1-1.42-1.72-1.42-1.72l7.55-11.92s7.53,4,12,5.07C665.54,903.32,666.86,908.06,666.34,912.64Z"/><path class="cls-121" d="M659.45,898.74l-15,13.6-2.33,2.11c-8.25-9.19-16.73-16.75-25.26-19,0,0-2,74-43,118.51l-18.29-1.08-4.79-41.51-.71,41.51L531.7,1014s-25-17.1-40.41-56.73l-14.61,2.87s-24.2-42.81-1.84-82.42c11.71-20.74,32.1-34.19,68-36.78C588.91,837.54,628.56,856.6,659.45,898.74Z"/><path class="cls-118" d="M550,964.37c-3.43,1-4.72,41.87-4.27,48.75l4.27-.25.71-41.51,4.79,41.51,3.47.2C560.72,1000.18,551.88,963.85,550,964.37Z"/><path class="cls-119" d="M536.18,1013.69l-4.47.26S508,997.7,492.5,960.19C517.44,998.34,532.64,1009.2,536.18,1013.69Zm34.83.1,2.8.16c37.89-41.12,42.5-107.37,43-117.22C614.22,920.1,598,982.84,571,1013.79ZM478.49,879.62c15.47-35.71,87.82-29.09,103.72-27.34,34.4,3.8,66,34.65,75.39,48.14l1.85-1.68c-30.89-42.14-70.54-61.21-116.59-57.86-35.92,2.61-56.3,16-68,36.79-22.36,39.61,1.82,82.41,1.82,82.41l2.57-.5C473.27,943.8,460.08,922.1,478.49,879.62Z"/><path class="cls-133" d="M547.51,690.69c-18.66,0-32.79-6.83-33.58-10.89a.94.94,0,0,0-1.36-.56c-5.32,2.47-3.75,10-1,13.68a16,16,0,0,0,3.94,3.66c-2.19.84-15.2-7.16-13-19.18a1,1,0,0,0-1.85-.78c-4,5.21-6.62,10.69-4.2,17.21a17.9,17.9,0,0,0,7.06,8.43l-.64.36a54.54,54.54,0,0,1-6.71-2.68c-3-1.47-8.63-4-8.18-8,.09-.83-1-.92-1.42-.39-3,4.19.26,8.54,3.47,11.41,1.89,1.7,2.38,6.78.56,8.31-17.64,14.92-28.75,36.65-28.75,60.85,0,45,38.37,81.43,85.69,81.43s85.7-36.45,85.7-81.43S594.84,690.81,547.51,690.69Z"/><path class="cls-134" d="M633.2,772.13c0,45-38.35,81.43-85.69,81.43s-85.68-36.46-85.68-81.43a77.75,77.75,0,0,1,.62-9.82c11,33,43.42,56.88,81.75,56.88,43.82,0,80-31.23,85-71.58A77.66,77.66,0,0,1,633.2,772.13Z"/><path class="cls-135" d="M465.56,759.62c12.28-48.52,83.29-76.39,125.58-49.31,31.16,20,44.44,59.51,35.23,93.73a77.69,77.69,0,0,0,6.84-31.92c0-45-38.37-81.31-85.7-81.43-18.66,0-32.79-6.83-33.58-10.89a.94.94,0,0,0-1.36-.56c-5.32,2.47-3.75,10-1,13.68a16,16,0,0,0,3.94,3.66c-2.19.84-15.2-7.16-13-19.18a1,1,0,0,0-1.85-.78c-4,5.21-6.62,10.69-4.2,17.21a17.9,17.9,0,0,0,7.06,8.43l-.64.36a54.54,54.54,0,0,1-6.71-2.68c-3-1.47-8.63-4-8.18-8,.09-.83-1-.92-1.42-.39-3,4.19.26,8.54,3.47,11.41,1.89,1.7,2.38,6.78.56,8.31-17.64,14.92-28.75,36.65-28.75,60.85a78.19,78.19,0,0,0,1.43,14.77A85,85,0,0,1,465.56,759.62Z"/><g class="cls-136"><path class="cls-137" d="M547.51,661.15A101.25,101.25,0,1,1,446.27,762.4,101.36,101.36,0,0,1,547.51,661.15m0-3A104.25,104.25,0,1,0,651.76,762.4,104.24,104.24,0,0,0,547.51,658.15Z"/></g><g class="cls-138"><circle class="cls-137" cx="547.51" cy="762.4" r="104.25" transform="translate(-292.74 1180.72) rotate(-80.78)"/></g><path class="cls-139" d="M605.57,856.08H489.46a8.17,8.17,0,0,1-8.17-8.16h0a8.17,8.17,0,0,1,8.17-8.17H605.57a8.17,8.17,0,0,1,8.17,8.17h0A8.17,8.17,0,0,1,605.57,856.08Z"/><path class="cls-140" d="M613.73,847.92a7.32,7.32,0,0,1-.13,1.41,8.11,8.11,0,0,0-8-6.78H489.46a8,8,0,0,0-5.76,2.39,7.9,7.9,0,0,0-2.27,4.39,7.32,7.32,0,0,1-.13-1.41,8.12,8.12,0,0,1,2.4-5.78,8,8,0,0,1,5.76-2.4H605.57A8.17,8.17,0,0,1,613.73,847.92Z"/><path class="cls-141" d="M613.73,847.92a8.07,8.07,0,0,1-2.39,5.77,8.16,8.16,0,0,1-5.77,2.39H489.46a8.17,8.17,0,0,1-8.16-8.16,8,8,0,0,1,.43-2.59,8.12,8.12,0,0,0,7.73,5.57H605.57a8.13,8.13,0,0,0,7.73-5.57A8,8,0,0,1,613.73,847.92Z"/><polygon class="cls-117" points="531.71 1013.95 533.14 1018.51 527.06 1022.66 550.38 1021.88 550 1012.86 531.71 1013.95"/><path class="cls-142" d="M553.1,678.83c5.21-11,43.59-6.86,67,24.92,20.06,27.24,23.68,68.38,13.1,68.37-2.87,0-10.65-39.43-37.52-57.19C566.94,695.92,544.53,696.93,553.1,678.83Z"/><path class="cls-143" d="M548.88,834.39c-4.73,11.21-43.26,8.74-68-22-21.22-26.34-26.61-67.29-16-67.74,2.86-.12,12.34,38.94,39.95,55.52C534.32,817.91,556.66,815.94,548.88,834.39Z"/><path class="cls-144" d="M597,907.86c1,16.75,9.87,23,16.5,16.57,1.66-1.61,3.52,4.93-3,9.67-6.26,4.52-20.1,3.38-19.13-25.93C591.31,908.17,597,907.42,597,907.86Z"/><path class="cls-145" d="M601.9,935.76A13.13,13.13,0,0,0,604,934a10.24,10.24,0,0,0,2.51-7.36c-4.66-1.21-8.82-7.67-9.47-18.81,0-.44-5.68.31-5.68.31C590.69,927.06,596.22,934.24,601.9,935.76Z"/><path class="cls-144" d="M606.43,851.7c-6.09.58-15.77,15.38-12.5,29.79.47,2.09,3.73.92,3.85-1,.65-11.2,7.74-22.42,13.75-24.37C615.91,854.66,608.11,851.54,606.43,851.7Z"/><path class="cls-145" d="M597.79,859.36c-3.43,5.76-5.7,14-3.86,22.13.47,2.09,3.73.92,3.85-1a35.92,35.92,0,0,1,4.57-15.12A27.22,27.22,0,0,0,597.79,859.36Z"/><path class="cls-146" d="M605.31,854.14a22.87,22.87,0,0,1,4.82,2.57,8.18,8.18,0,0,1,1.4-.63c4.38-1.42-3.42-4.54-5.1-4.38a7.23,7.23,0,0,0-3.46,1.58C603.75,853.53,604.54,853.83,605.31,854.14Z"/><path class="cls-146" d="M613.49,924.43a9.38,9.38,0,0,1-2.73,1.87,15,15,0,0,1-2.29,8.92,10.49,10.49,0,0,0,2-1.12C617,929.36,615.15,922.82,613.49,924.43Z"/><path class="cls-144" d="M511.51,908.17c1,29.31-12.88,30.45-19.14,25.93a20.37,20.37,0,0,1-3.31-2.6c-.29-2.5-.27-4.64-.42-7.45,6.63,6.41,16.2.56,17.18-16.19C505.85,907.42,511.51,908.17,511.51,908.17Z"/><g class="cls-147"><path class="cls-144" d="M511.51,908.17c1,29.31-12.88,30.45-19.14,25.93a20.37,20.37,0,0,1-3.31-2.6c-.29-2.5-.27-4.64-.42-7.45,6.63,6.41,16.2.56,17.18-16.19C505.85,907.42,511.51,908.17,511.51,908.17Z"/></g><path class="cls-144" d="M491.28,856.08c6,1.95,13.1,13.17,13.76,24.37.11,2,3.37,3.13,3.84,1,3.27-14.41-6.4-29.21-12.5-29.79C494.71,851.54,486.91,854.66,491.28,856.08Z"/><path class="cls-145" d="M505,859.36c3.42,5.76,5.7,14,3.85,22.13-.47,2.09-3.73.92-3.84-1a35.93,35.93,0,0,0-4.58-15.12A27,27,0,0,1,505,859.36Z"/><path class="cls-146" d="M497.5,854.14a23,23,0,0,0-4.81,2.57,7.93,7.93,0,0,0-1.41-.63c-4.37-1.42,3.43-4.54,5.1-4.38a7.3,7.3,0,0,1,3.47,1.58C499.06,853.53,498.28,853.83,497.5,854.14Z"/><path class="cls-118" d="M541.4,1022.18l9-.3-.38-9-5.07.31A13.9,13.9,0,0,1,541.4,1022.18Z"/><path class="cls-119" d="M531.08,1022.52c1.18-.79,2.34-1.63,3.51-2.45,1.41-1,2.6-1.46,1.6-3.23-.6-1.05-1.55-2-2.24-3l0-.06-2.21.13,1.43,4.56-6.08,4.15Z"/><polygon class="cls-117" points="573.81 1013.95 572.37 1018.51 578.46 1022.66 555.14 1021.88 555.51 1012.86 573.81 1013.95"/><path class="cls-118" d="M560.42,1013.16l-4.91-.3-.37,9,7.5.25A21.17,21.17,0,0,1,560.42,1013.16Z"/><path class="cls-119" d="M571.49,1013.81q-1.37,2.25-2.87,4.41a44.3,44.3,0,0,1,5.28,4.29l4.56.15-6.09-4.15,1.44-4.56Z"/><path class="cls-148" d="M504.2,836.59c5.6-8.06,79.26-7.26,87.23,0S600,946.11,593.73,953s-86.54,4.83-90.52-.65C495.78,942,498.61,844.65,504.2,836.59Z"/><path class="cls-149" d="M593.74,953c-6.26,6.83-86.56,4.82-90.53-.66-3.45-4.78-4.68-28.41-4.47-53.11.15,20.77,1.49,38.88,4.47,43,4,5.48,84.27,7.51,90.53.67,2.64-2.87,4.06-22.67,4.21-45.16C598.19,924.06,596.77,949.66,593.74,953Z"/><path class="cls-150" d="M593.74,880c-6.26,2.79-86.56,2-90.53-.26-3.8-2.13-4.92-13.6-4.34-24.71.41,7,1.75,12.84,4.34,14.29,4,2.22,84.27,3,90.53.26,2.31-1,3.7-7.39,4.11-15.14C598.43,866.19,597.05,878.53,593.74,880Z"/><path class="cls-121" d="M504.2,830.42c5.6-3.28,79.26-3,87.23,0s8.56,44.64,2.3,47.43-86.54,2-90.52-.27C495.78,873.39,498.61,833.71,504.2,830.42Z"/><path class="cls-151" d="M597.93,860.29c-.3-11.33-2.46-22.86-6.5-24.35-8-3-81.64-3.28-87.23,0-2.93,1.73-5.11,13.5-5.44,24.89-.36-12.78,2-28.38,5.44-30.41,5.59-3.28,79.27-3,87.23,0C596.14,832.17,598.28,847.49,597.93,860.29Z"/><path class="cls-149" d="M593.74,877.84c-6.26,2.79-86.56,2-90.53-.26-3.8-2.13-4.92-13.6-4.34-24.71.41,7,1.75,12.84,4.34,14.29,4,2.22,84.27,3,90.53.26,2.31-1,3.7-7.39,4.11-15.14C598.43,864,597.05,876.38,593.74,877.84Z"/><path class="cls-118" d="M514.82,888.18c-5.14,5.89-6.17,41,0,44.27s63.59,3.71,65.7,0,4.73-39.33,0-44.27S520,882.28,514.82,888.18Z"/><path class="cls-118" d="M487.78,896.79c0-.14-.39-2.64-1.42,1.92-4.82,21.39-.87,50,2.25,59,.93-.26,1.72-.35,2.69-.53C489.37,944.53,487.59,906.91,487.78,896.79Z"/><path class="cls-118" d="M644.43,912.34l-2.33,2.11c-8.25-9.19-16.73-16.75-25.26-19-.11-.07,4.86-3,17.51,5.8A41.73,41.73,0,0,1,644.43,912.34Z"/></g></g></svg>