<svg xmlns="http://www.w3.org/2000/svg" xmlns:xlink="http://www.w3.org/1999/xlink" viewBox="0 0 29.91 39.92"><defs><style>.cls-1{fill:url(#Degradado_sin_nombre_462);}.cls-2{fill:url(#linear-gradient);}.cls-3{fill:url(#linear-gradient-2);}.cls-4{fill:url(#linear-gradient-3);}</style><linearGradient id="Degradado_sin_nombre_462" x1="7.67" y1="5.67" x2="22.24" y2="5.67" gradientUnits="userSpaceOnUse"><stop offset="0" stop-color="#28ffdc"/><stop offset="0.09" stop-color="#28f7d9" stop-opacity="0.97"/><stop offset="0.22" stop-color="#27e3d1" stop-opacity="0.89"/><stop offset="0.38" stop-color="#26c0c5" stop-opacity="0.75"/><stop offset="0.56" stop-color="#2591b3" stop-opacity="0.57"/><stop offset="0.76" stop-color="#23549d" stop-opacity="0.33"/><stop offset="0.97" stop-color="#200b82" stop-opacity="0.04"/><stop offset="1" stop-color="#20007e" stop-opacity="0"/></linearGradient><linearGradient id="linear-gradient" y1="19.96" x2="29.91" y2="19.96" gradientUnits="userSpaceOnUse"><stop offset="0" stop-color="#20007e" stop-opacity="0.7"/><stop offset="0.03" stop-color="#200b82" stop-opacity="0.71"/><stop offset="0.24" stop-color="#23549d" stop-opacity="0.8"/><stop offset="0.44" stop-color="#2591b3" stop-opacity="0.87"/><stop offset="0.62" stop-color="#26c0c5" stop-opacity="0.93"/><stop offset="0.78" stop-color="#27e3d1" stop-opacity="0.97"/><stop offset="0.91" stop-color="#28f7d9" stop-opacity="0.99"/><stop offset="1" stop-color="#28ffdc"/></linearGradient><linearGradient id="linear-gradient-2" x1="8.15" y1="25.63" x2="21.76" y2="25.63" xlink:href="#linear-gradient"/><linearGradient id="linear-gradient-3" x1="11.65" y1="25.63" x2="18.35" y2="25.63" xlink:href="#linear-gradient"/></defs><title>Layer 2 (2)7 target</title><g id="Layer_2" data-name="Layer 2"><g id="DESIGNED_BY_FREEPIK" data-name="DESIGNED BY FREEPIK"><g id="Layer_2-2" data-name="Layer 2"><g id="Layer_1-2" data-name="Layer 1-2"><path class="cls-1" d="M22.24,11.34H20.47V7.23A5.52,5.52,0,0,0,15,1.77H14.9A5.52,5.52,0,0,0,9.44,7.33v4H7.67v-4A7.3,7.3,0,0,1,14.89,0H15a7.29,7.29,0,0,1,7.28,7.22v4.12Z"/><path class="cls-2" d="M25.23,11.34h-3V7.22A7.29,7.29,0,0,0,15,0h-.07A7.3,7.3,0,0,0,7.67,7.35v4h-3A4.67,4.67,0,0,0,0,16V35.24a4.68,4.68,0,0,0,4.68,4.68H25.23a4.67,4.67,0,0,0,4.68-4.68h0V16A4.67,4.67,0,0,0,25.23,11.34Zm-15.79-4A5.52,5.52,0,0,1,14.9,1.77H15a5.52,5.52,0,0,1,5.51,5.46v4.11h-11Zm18.7,27.91a2.91,2.91,0,0,1-2.91,2.91H4.68a2.91,2.91,0,0,1-2.91-2.91V16a2.91,2.91,0,0,1,2.91-2.91H25.23A2.91,2.91,0,0,1,28.14,16Z"/><path class="cls-3" d="M15,20.59a5,5,0,1,1-5,5,5,5,0,0,1,5-5m0-1.77a6.81,6.81,0,1,0,6.8,6.81A6.81,6.81,0,0,0,15,18.82Z"/><path class="cls-4" d="M17.29,26a1.85,1.85,0,0,1-1.86-1.85,1.88,1.88,0,0,1,.91-1.59A3.35,3.35,0,1,0,18.07,27a3.23,3.23,0,0,0,.28-1.3A1.75,1.75,0,0,1,17.29,26Z"/></g></g></g></g></svg>