<svg xmlns="http://www.w3.org/2000/svg" xmlns:xlink="http://www.w3.org/1999/xlink" viewBox="0 0 30.32 39.92"><defs><style>.cls-1{opacity:0.8;fill:url(#linear-gradient);}</style><linearGradient id="linear-gradient" y1="19.96" x2="30.32" y2="19.96" gradientUnits="userSpaceOnUse"><stop offset="0" stop-color="#20007e"/><stop offset="0.1" stop-color="#280180"/><stop offset="0.26" stop-color="#3d0486"/><stop offset="0.45" stop-color="#5f0a90"/><stop offset="0.67" stop-color="#8e119d"/><stop offset="0.9" stop-color="#cb1aae"/><stop offset="1" stop-color="#e61eb6"/></linearGradient></defs><title>Asset 37 target</title><g id="Layer_2" data-name="Layer 2"><g id="DESIGNED_BY_FREEPIK" data-name="DESIGNED BY FREEPIK"><path class="cls-1" d="M29.91,20.74V16a4.67,4.67,0,0,0-4.68-4.68H22.44V7.22A7.27,7.27,0,0,0,15.16,0h-.07A7.29,7.29,0,0,0,7.88,7.35v4H4.68A4.67,4.67,0,0,0,0,16V35.24a4.68,4.68,0,0,0,4.68,4.68H25.23a4.67,4.67,0,0,0,4.68-4.68h0V27.4a.41.41,0,0,0,.41-.41h0V21.15A.41.41,0,0,0,29.91,20.74ZM9.65,7.33a5.51,5.51,0,0,1,5.46-5.56h.05a5.5,5.5,0,0,1,5.51,5.46v4.11h-11ZM17,13.53a.3.3,0,0,1-.3.3H13.21a.3.3,0,0,1-.3-.3h0a.3.3,0,0,1,.3-.3h3.5A.29.29,0,0,1,17,13.53ZM28.14,35.24a2.91,2.91,0,0,1-2.91,2.91H4.68a2.91,2.91,0,0,1-2.91-2.91V16a2.91,2.91,0,0,1,2.91-2.91h2.4a.5.5,0,0,1,.51.5v.24a1.35,1.35,0,0,0,1.35,1.36H21a1.35,1.35,0,0,0,1.35-1.36v-.24a.5.5,0,0,1,.51-.5h2.4A2.91,2.91,0,0,1,28.14,16Z"/></g></g></svg>