<svg xmlns="http://www.w3.org/2000/svg" viewBox="0 0 210.64 237.16"><defs><style>.cls-1{fill:#fff;}</style></defs><title>Asset 67 target bla</title><g id="Layer_2" data-name="Layer 2"><g id="Layer_1-2" data-name="Layer 1"><path class="cls-1" d="M155.74,95.63H54.89V71.42a50.43,50.43,0,0,1,100.85,0h21a71.43,71.43,0,0,0-142.85,0V95.63H20.59A20.59,20.59,0,0,0,0,116.23V216.56a20.59,20.59,0,0,0,20.59,20.6H190a20.6,20.6,0,0,0,20.6-20.6V116.23A20.6,20.6,0,0,0,190,95.63h-34.3Zm-42.65,81.09v15H97.54v-15a12.95,12.95,0,1,1,15.55,0Z"/></g></g></svg>