<svg xmlns="http://www.w3.org/2000/svg" viewBox="0 0 474.22 570.46"><defs><style>.cls-1{fill:#fff;}</style></defs><title>Asset 17</title><g id="Layer_2" data-name="Layer 2"><g id="Layer_1-2" data-name="Layer 1"><path id="_Path_" data-name="&lt;Path&gt;" class="cls-1" d="M51.69,535a51.17,51.17,0,0,1,19,3.41c24.51,9.62,90.75,32.74,160,32.06,1.65,0,6.59-.07,6.59-.07s4.84.08,6.49.07c69.2.68,135.41-22.44,159.91-32.06a51.17,51.17,0,0,1,19-3.41c.58,0,1.16,0,1.73,0,30.54-.75,53.44-28.33,49.48-58.62l-6.94-53.07c-6.87-74.86-75.72-87.76-89.48-92.07s-63.68-18.07-70.55-33.57c-2.15-4.77-2.46-13.56-1.87-23.36a7.11,7.11,0,0,1,1.58-4c16.66-20.6,28.31-45.52,35.42-63.84a6.9,6.9,0,0,1,7.89-4.32,7.86,7.86,0,0,0,8.76-4c.11-.19.22-.38.34-.56,31.56-46.24,11.83-65.08,7.55-68.52-2.86-2.29-5.71-.4-7.31,1.13a6.81,6.81,0,0,0-1.73,2.74h0C363.4,11.08,261.16.86,246,0a5.88,5.88,0,0,0-.94,0c-.69.05-2.77.13-7.88.27C232,.16,229.93.08,229.25,0a5.66,5.66,0,0,0-.92,0C213.4.83,110.8,10.91,116.77,132.87h0a6.83,6.83,0,0,0-1.74-2.74c-1.59-1.53-4.45-3.42-7.31-1.13-4.28,3.44-24,22.28,7.55,68.52a6.42,6.42,0,0,1,.34.56,7.86,7.86,0,0,0,8.76,4,6.9,6.9,0,0,1,7.89,4.32c7.12,18.32,18.76,43.24,35.43,63.84a7.1,7.1,0,0,1,1.57,4c.59,9.8.28,18.59-1.86,23.36-6.88,15.5-56.79,29.27-70.55,33.57S14.24,348.42,7.37,423.28L.44,476.36c-3.95,30.29,19,57.85,49.49,58.61C50.51,535,51.1,535,51.69,535Z"/></g></g></svg>